<?xml version="1.0" encoding="utf-8" standalone="no"?>
<!DOCTYPE svg PUBLIC "-//W3C//DTD SVG 1.1//EN"
  "http://www.w3.org/Graphics/SVG/1.1/DTD/svg11.dtd">
<!-- Created with matplotlib (https://matplotlib.org/) -->
<svg height="432pt" version="1.1" viewBox="0 0 576 432" width="576pt" xmlns="http://www.w3.org/2000/svg" xmlns:xlink="http://www.w3.org/1999/xlink">
 <defs>
  <style type="text/css">
*{stroke-linecap:butt;stroke-linejoin:round;}
  </style>
 </defs>
 <g id="figure_1">
  <g id="patch_1">
   <path d="M 0 432 
L 576 432 
L 576 0 
L 0 0 
z
" style="fill:#ffffff;"/>
  </g>
  <g id="axes_1">
   <g id="patch_2">
    <path d="M 98.065 363.06 
L 556.56 363.06 
L 556.56 19.44 
L 98.065 19.44 
z
" style="fill:#ffffff;"/>
   </g>
   <g id="PolyCollection_1">
    <defs>
     <path d="M 118.905682 -144.081649 
L 118.905682 -128.050249 
L 119.701128 -128.446008 
L 120.496574 -129.193519 
L 121.292019 -129.711525 
L 122.087465 -130.406967 
L 122.882911 -130.747148 
L 123.678357 -131.106623 
L 124.473803 -131.460036 
L 125.269249 -131.713189 
L 126.064695 -132.028443 
L 126.860141 -132.077547 
L 127.655586 -132.530374 
L 128.451032 -132.783351 
L 129.246478 -133.134497 
L 130.041924 -133.149189 
L 130.83737 -133.452961 
L 131.632816 -133.849157 
L 132.428262 -134.025189 
L 133.223707 -134.609781 
L 134.019153 -134.791807 
L 134.814599 -134.927274 
L 135.610045 -135.47432 
L 136.405491 -135.847648 
L 137.200937 -136.152669 
L 137.996383 -136.474354 
L 138.791829 -136.979022 
L 139.587274 -137.304174 
L 140.38272 -137.677756 
L 141.178166 -137.869512 
L 141.973612 -138.202933 
L 142.769058 -138.528859 
L 143.564504 -138.937074 
L 144.35995 -139.231521 
L 145.155396 -139.619913 
L 145.950841 -140.076035 
L 146.746287 -140.350325 
L 147.541733 -140.687131 
L 148.337179 -141.184544 
L 149.132625 -141.514439 
L 149.928071 -141.820911 
L 150.723517 -142.122911 
L 151.518963 -142.30762 
L 152.314408 -142.378575 
L 153.109854 -142.490376 
L 153.9053 -142.601529 
L 154.700746 -142.407162 
L 155.496192 -142.342126 
L 156.291638 -142.054921 
L 157.087084 -141.869096 
L 157.882529 -141.425627 
L 158.677975 -141.19347 
L 159.473421 -140.743758 
L 160.268867 -140.346271 
L 161.064313 -140.04044 
L 161.859759 -139.546725 
L 162.655205 -138.988581 
L 163.450651 -138.65091 
L 164.246096 -138.346013 
L 165.041542 -137.8859 
L 165.836988 -137.416946 
L 166.632434 -137.261638 
L 167.42788 -136.775762 
L 168.223326 -136.471312 
L 169.018772 -136.356577 
L 169.814218 -135.901603 
L 170.609663 -135.793617 
L 171.405109 -135.41981 
L 172.200555 -135.396416 
L 172.996001 -135.210061 
L 173.791447 -135.051811 
L 174.586893 -134.937965 
L 175.382339 -134.61178 
L 176.177785 -134.80064 
L 176.97323 -134.782622 
L 177.768676 -134.713619 
L 178.564122 -134.775827 
L 179.359568 -134.736964 
L 180.155014 -134.628302 
L 180.95046 -134.772095 
L 181.745906 -134.686421 
L 182.541351 -134.521238 
L 183.336797 -134.89591 
L 184.132243 -134.567475 
L 184.927689 -134.430232 
L 185.723135 -134.780899 
L 186.518581 -134.827136 
L 187.314027 -134.80531 
L 188.109473 -134.686457 
L 188.904918 -134.683416 
L 189.700364 -134.545273 
L 190.49581 -134.030476 
L 191.291256 -134.009438 
L 192.086702 -134.036388 
L 192.882148 -133.724747 
L 193.677594 -133.793572 
L 194.47304 -133.285997 
L 195.268485 -133.094453 
L 196.063931 -132.784385 
L 196.859377 -132.213679 
L 197.654823 -132.058398 
L 198.450269 -131.365995 
L 199.245715 -131.018957 
L 200.041161 -130.408051 
L 200.836607 -129.963055 
L 201.632052 -129.047921 
L 202.427498 -128.529466 
L 203.222944 -127.811262 
L 204.01839 -127.580358 
L 204.813836 -126.239506 
L 205.609282 -125.816632 
L 206.404728 -125.448878 
L 207.200173 -124.671442 
L 207.995619 -124.134469 
L 208.791065 -123.431911 
L 209.586511 -122.758331 
L 210.381957 -122.506442 
L 211.177403 -122.144136 
L 211.972849 -121.885905 
L 212.768295 -121.506493 
L 213.56374 -121.258769 
L 214.359186 -121.018626 
L 215.154632 -120.88541 
L 215.950078 -120.676214 
L 216.745524 -120.750253 
L 217.54097 -120.341598 
L 218.336416 -120.637094 
L 219.131862 -119.965703 
L 219.927307 -120.381545 
L 220.722753 -120.39649 
L 221.518199 -119.795782 
L 222.313645 -119.653306 
L 223.109091 -119.070433 
L 223.904537 -118.942851 
L 224.699983 -119.203428 
L 225.495429 -118.763171 
L 226.290874 -117.995561 
L 227.08632 -117.485417 
L 227.881766 -117.345218 
L 228.677212 -116.782751 
L 229.472658 -116.236648 
L 230.268104 -116.125593 
L 231.06355 -115.429055 
L 231.858995 -114.879833 
L 232.654441 -114.553998 
L 233.449887 -114.042984 
L 234.245333 -113.826278 
L 235.040779 -113.161694 
L 235.836225 -113.045991 
L 236.631671 -112.576114 
L 237.427117 -112.289004 
L 238.222562 -111.953071 
L 239.018008 -111.479249 
L 239.813454 -111.501612 
L 240.6089 -110.952785 
L 241.404346 -110.650745 
L 242.199792 -110.015207 
L 242.995238 -109.50675 
L 243.790684 -109.100781 
L 244.586129 -108.558987 
L 245.381575 -108.407672 
L 246.177021 -107.806643 
L 246.972467 -107.1047 
L 247.767913 -106.918489 
L 248.563359 -106.754142 
L 249.358805 -105.928346 
L 250.154251 -105.699051 
L 250.949696 -105.495059 
L 251.745142 -105.109476 
L 252.540588 -105.119041 
L 253.336034 -104.440577 
L 254.13148 -104.438541 
L 254.926926 -104.194325 
L 255.722372 -103.63802 
L 256.517817 -103.893549 
L 257.313263 -103.809349 
L 258.108709 -102.972765 
L 258.904155 -102.960052 
L 259.699601 -103.236398 
L 260.495047 -102.940831 
L 261.290493 -103.16568 
L 262.085939 -102.903342 
L 262.881384 -102.768732 
L 263.67683 -102.518714 
L 264.472276 -102.9067 
L 265.267722 -103.049259 
L 266.063168 -103.304975 
L 266.858614 -102.565058 
L 267.65406 -102.512762 
L 268.449506 -102.914696 
L 269.244951 -103.253112 
L 270.040397 -102.553809 
L 270.835843 -102.708077 
L 271.631289 -102.972023 
L 272.426735 -103.308856 
L 273.222181 -103.194721 
L 274.017627 -103.579145 
L 274.813073 -103.439269 
L 275.608518 -103.621471 
L 276.403964 -103.767149 
L 277.19941 -103.844493 
L 277.994856 -103.968493 
L 278.790302 -104.767187 
L 279.585748 -105.369463 
L 280.381194 -105.313567 
L 281.176639 -105.901567 
L 281.972085 -106.269505 
L 282.767531 -106.782111 
L 283.562977 -107.011261 
L 284.358423 -107.243286 
L 285.153869 -107.948547 
L 285.949315 -108.370105 
L 286.744761 -108.868181 
L 287.540206 -109.019771 
L 288.335652 -109.078129 
L 289.131098 -109.126505 
L 289.926544 -109.739237 
L 290.72199 -109.83319 
L 291.517436 -109.241015 
L 292.312882 -109.179197 
L 293.108328 -109.457656 
L 293.903773 -109.316592 
L 294.699219 -109.415734 
L 295.494665 -109.019714 
L 296.290111 -108.632105 
L 297.085557 -108.174198 
L 297.881003 -107.989019 
L 298.676449 -107.299577 
L 299.471895 -106.598177 
L 300.26734 -105.935137 
L 301.062786 -105.264813 
L 301.858232 -104.657719 
L 302.653678 -103.45483 
L 303.449124 -103.118226 
L 304.24457 -102.115691 
L 305.040016 -101.378264 
L 305.835461 -100.351726 
L 306.630907 -99.216822 
L 307.426353 -97.546761 
L 308.221799 -97.209612 
L 309.017245 -96.070724 
L 309.812691 -94.567856 
L 310.608137 -94.151464 
L 311.403583 -92.508024 
L 312.199028 -91.34523 
L 312.994474 -91.054943 
L 313.78992 -89.632412 
L 314.585366 -88.91024 
L 315.380812 -88.137525 
L 316.176258 -86.990904 
L 316.971704 -86.002684 
L 317.76715 -86.341059 
L 318.562595 -85.208912 
L 319.358041 -85.015838 
L 320.153487 -85.079339 
L 320.948933 -84.70834 
L 321.744379 -84.559091 
L 322.539825 -84.664673 
L 323.335271 -84.800653 
L 324.130717 -84.656785 
L 324.926162 -85.063884 
L 325.721608 -84.993313 
L 326.517054 -85.040223 
L 327.3125 -86.529948 
L 328.107946 -86.966898 
L 328.903392 -87.59999 
L 329.698838 -88.471497 
L 330.494283 -88.967975 
L 331.289729 -89.918688 
L 332.085175 -91.098094 
L 332.880621 -91.756232 
L 333.676067 -93.347158 
L 334.471513 -94.358513 
L 335.266959 -95.482392 
L 336.062405 -96.702761 
L 336.85785 -98.177669 
L 337.653296 -100.211451 
L 338.448742 -101.539297 
L 339.244188 -103.071006 
L 340.039634 -104.906509 
L 340.83508 -105.708562 
L 341.630526 -107.710787 
L 342.425972 -109.451121 
L 343.221417 -110.843105 
L 344.016863 -112.234958 
L 344.812309 -113.753879 
L 345.607755 -114.846511 
L 346.403201 -116.088018 
L 347.198647 -117.246372 
L 347.994093 -118.869727 
L 348.789539 -120.524126 
L 349.584984 -121.376947 
L 350.38043 -122.895897 
L 351.175876 -123.161636 
L 351.971322 -124.481051 
L 352.766768 -125.774627 
L 353.562214 -125.906659 
L 354.35766 -127.070123 
L 355.153105 -128.420201 
L 355.948551 -128.861957 
L 356.743997 -130.155519 
L 357.539443 -131.07198 
L 358.334889 -131.565095 
L 359.130335 -132.65282 
L 359.925781 -134.187555 
L 360.721227 -134.979491 
L 361.516672 -136.258487 
L 362.312118 -137.096567 
L 363.107564 -138.550735 
L 363.90301 -139.457801 
L 364.698456 -141.094439 
L 365.493902 -142.382506 
L 366.289348 -144.169486 
L 367.084794 -145.319802 
L 367.880239 -147.327311 
L 368.675685 -148.096431 
L 369.471131 -150.039741 
L 370.266577 -151.990614 
L 371.062023 -153.294107 
L 371.857469 -155.293923 
L 372.652915 -156.886411 
L 373.448361 -158.95802 
L 374.243806 -159.955859 
L 375.039252 -161.754659 
L 375.834698 -163.825581 
L 376.630144 -165.529434 
L 377.42559 -167.951226 
L 378.221036 -168.612563 
L 379.016482 -170.166782 
L 379.811927 -172.454092 
L 380.607373 -174.449907 
L 381.402819 -176.743877 
L 382.198265 -178.140869 
L 382.993711 -179.136009 
L 383.789157 -181.159301 
L 384.584603 -183.491231 
L 385.380049 -184.925237 
L 386.175494 -188.213194 
L 386.97094 -188.734528 
L 387.766386 -190.673593 
L 388.561832 -193.443081 
L 389.357278 -195.661252 
L 390.152724 -196.985771 
L 390.94817 -199.729413 
L 391.743616 -200.883003 
L 392.539061 -203.483008 
L 393.334507 -205.274637 
L 394.129953 -207.407077 
L 394.925399 -209.322137 
L 395.720845 -210.572297 
L 396.516291 -212.18166 
L 397.311737 -214.251148 
L 398.107183 -216.021364 
L 398.902628 -217.240821 
L 399.698074 -219.011163 
L 400.49352 -220.96865 
L 401.288966 -222.310087 
L 402.084412 -223.362875 
L 402.879858 -225.052972 
L 403.675304 -227.225988 
L 404.470749 -227.590445 
L 405.266195 -228.711737 
L 406.061641 -230.605563 
L 406.857087 -232.402412 
L 407.652533 -233.73247 
L 408.447979 -235.46079 
L 409.243425 -236.512652 
L 410.038871 -238.09895 
L 410.834316 -240.754054 
L 411.629762 -240.688994 
L 412.425208 -242.536125 
L 413.220654 -244.216889 
L 414.0161 -246.23025 
L 414.811546 -247.571101 
L 415.606992 -249.02796 
L 416.402438 -250.30554 
L 417.197883 -252.388024 
L 417.993329 -253.722252 
L 418.788775 -255.36947 
L 419.584221 -257.800247 
L 420.379667 -259.152145 
L 421.175113 -261.360036 
L 421.970559 -263.032343 
L 422.766005 -265.577282 
L 423.56145 -267.092891 
L 424.356896 -268.623822 
L 425.152342 -269.955564 
L 425.947788 -272.545422 
L 426.743234 -273.378851 
L 427.53868 -274.663907 
L 428.334126 -277.080608 
L 429.129571 -277.651481 
L 429.925017 -280.370996 
L 430.720463 -281.49792 
L 431.515909 -283.017918 
L 432.311355 -283.894328 
L 433.106801 -285.457192 
L 433.902247 -286.627282 
L 434.697693 -288.005904 
L 435.493138 -288.693828 
L 436.288584 -289.73177 
L 437.08403 -291.295712 
L 437.879476 -291.822601 
L 438.674922 -293.405047 
L 439.470368 -293.957681 
L 440.265814 -295.433106 
L 441.06126 -296.698991 
L 441.856705 -297.531071 
L 442.652151 -297.53997 
L 443.447597 -299.667244 
L 444.243043 -299.799112 
L 445.038489 -302.05409 
L 445.833935 -301.794279 
L 446.629381 -303.355602 
L 447.424827 -304.161584 
L 448.220272 -306.020168 
L 449.015718 -306.877291 
L 449.811164 -307.193053 
L 450.60661 -307.816504 
L 451.402056 -309.033275 
L 452.197502 -309.366073 
L 452.992948 -310.769811 
L 453.788393 -311.244089 
L 454.583839 -311.61702 
L 455.379285 -312.636482 
L 456.174731 -312.847953 
L 456.970177 -312.626935 
L 457.765623 -312.691054 
L 458.561069 -312.39232 
L 459.356515 -311.902332 
L 460.15196 -312.193839 
L 460.947406 -311.75203 
L 461.742852 -311.133452 
L 462.538298 -311.132899 
L 463.333744 -310.640447 
L 464.12919 -310.603478 
L 464.924636 -309.593781 
L 465.720082 -309.289748 
L 466.515527 -308.114788 
L 467.310973 -307.226326 
L 468.106419 -306.378257 
L 468.901865 -306.856061 
L 469.697311 -304.407985 
L 470.492757 -303.593809 
L 471.288203 -302.400059 
L 472.083649 -302.394195 
L 472.879094 -301.383243 
L 473.67454 -301.782322 
L 474.469986 -300.456867 
L 475.265432 -299.853546 
L 476.060878 -299.73465 
L 476.856324 -298.893991 
L 477.65177 -298.13866 
L 478.447215 -298.777842 
L 479.242661 -297.616462 
L 480.038107 -297.80564 
L 480.833553 -298.350632 
L 481.628999 -297.815468 
L 482.424445 -298.111461 
L 483.219891 -298.152867 
L 484.015337 -298.251767 
L 484.810782 -297.8663 
L 485.606228 -297.648297 
L 486.401674 -298.181596 
L 487.19712 -298.827281 
L 487.992566 -298.341818 
L 488.788012 -298.390191 
L 489.583458 -298.51106 
L 490.378904 -298.178323 
L 491.174349 -298.280689 
L 491.969795 -298.082239 
L 492.765241 -297.990323 
L 493.560687 -297.754244 
L 494.356133 -297.135809 
L 495.151579 -297.538602 
L 495.947025 -296.319642 
L 496.742471 -295.448313 
L 497.537916 -295.242171 
L 498.333362 -294.355836 
L 499.128808 -293.055685 
L 499.924254 -293.145923 
L 500.7197 -292.627 
L 501.515146 -290.961998 
L 502.310592 -291.614071 
L 503.106037 -290.799085 
L 503.901483 -289.057052 
L 504.696929 -288.918656 
L 505.492375 -288.535056 
L 506.287821 -287.586484 
L 507.083267 -286.778598 
L 507.878713 -286.468015 
L 508.674159 -286.140162 
L 509.469604 -285.291199 
L 510.26505 -284.660241 
L 511.060496 -284.125024 
L 511.855942 -283.121977 
L 512.651388 -282.621082 
L 513.446834 -281.463881 
L 514.24228 -280.722982 
L 515.037726 -280.210469 
L 515.833171 -278.915079 
L 516.628617 -278.947474 
L 517.424063 -278.267484 
L 518.219509 -276.976263 
L 519.014955 -276.207322 
L 519.810401 -275.149389 
L 520.605847 -273.714822 
L 521.401293 -273.038094 
L 522.196738 -272.688818 
L 522.992184 -270.586355 
L 523.78763 -269.945526 
L 524.583076 -269.154744 
L 525.378522 -266.834747 
L 526.173968 -265.843882 
L 526.969414 -265.753658 
L 527.764859 -264.258534 
L 528.560305 -264.002365 
L 529.355751 -261.814626 
L 530.151197 -259.737266 
L 530.946643 -259.825127 
L 531.742089 -258.370386 
L 532.537535 -256.643954 
L 533.332981 -255.354343 
L 534.128426 -253.590998 
L 534.923872 -251.925868 
L 535.719318 -251.967549 
L 535.719318 -313.562776 
L 535.719318 -313.562776 
L 534.923872 -315.382779 
L 534.128426 -316.565508 
L 533.332981 -317.554785 
L 532.537535 -319.296595 
L 531.742089 -321.010475 
L 530.946643 -322.621078 
L 530.151197 -324.223664 
L 529.355751 -325.07775 
L 528.560305 -326.76542 
L 527.764859 -327.15178 
L 526.969414 -329.576692 
L 526.173968 -331.159692 
L 525.378522 -331.81459 
L 524.583076 -332.847352 
L 523.78763 -334.062004 
L 522.992184 -335.29579 
L 522.196738 -336.682295 
L 521.401293 -336.885707 
L 520.605847 -338.704937 
L 519.810401 -340.39291 
L 519.014955 -341.035212 
L 518.219509 -341.69376 
L 517.424063 -342.493413 
L 516.628617 -343.653253 
L 515.833171 -343.229625 
L 515.037726 -345.262536 
L 514.24228 -345.778631 
L 513.446834 -346.185774 
L 512.651388 -347.452622 
L 511.855942 -347.688407 
L 511.060496 -347.333729 
L 510.26505 -349.605847 
L 509.469604 -349.553307 
L 508.674159 -350.627235 
L 507.878713 -350.691184 
L 507.083267 -352.12686 
L 506.287821 -352.080982 
L 505.492375 -353.359046 
L 504.696929 -354.235339 
L 503.901483 -354.501043 
L 503.106037 -355.028416 
L 502.310592 -356.3446 
L 501.515146 -357.205859 
L 500.7197 -357.885182 
L 499.924254 -358.202987 
L 499.128808 -359.913203 
L 498.333362 -359.843945 
L 497.537916 -360.698538 
L 496.742471 -362.460186 
L 495.947025 -362.757845 
L 495.151579 -362.889609 
L 494.356133 -362.552452 
L 493.560687 -362.559246 
L 492.765241 -363.213709 
L 491.969795 -362.869439 
L 491.174349 -364.601414 
L 490.378904 -364.479958 
L 489.583458 -363.748032 
L 488.788012 -364.156087 
L 487.992566 -363.340182 
L 487.19712 -364.281174 
L 486.401674 -363.379701 
L 485.606228 -364.129907 
L 484.810782 -363.999793 
L 484.015337 -363.360164 
L 483.219891 -364.150364 
L 482.424445 -364.800135 
L 481.628999 -363.833496 
L 480.833553 -364.264936 
L 480.038107 -364.897714 
L 479.242661 -364.557223 
L 478.447215 -365.565167 
L 477.65177 -365.906855 
L 476.856324 -366.632196 
L 476.060878 -366.88251 
L 475.265432 -367.082314 
L 474.469986 -367.551617 
L 473.67454 -369.684818 
L 472.879094 -369.071752 
L 472.083649 -369.653638 
L 471.288203 -371.084543 
L 470.492757 -370.964458 
L 469.697311 -372.828551 
L 468.901865 -374.28402 
L 468.106419 -374.793734 
L 467.310973 -374.876604 
L 466.515527 -375.308949 
L 465.720082 -377.180488 
L 464.924636 -377.629563 
L 464.12919 -377.736368 
L 463.333744 -378.165744 
L 462.538298 -379.136562 
L 461.742852 -379.846881 
L 460.947406 -379.405344 
L 460.15196 -379.914296 
L 459.356515 -379.530109 
L 458.561069 -380.147751 
L 457.765623 -380.25897 
L 456.970177 -379.543577 
L 456.174731 -380.130071 
L 455.379285 -379.569276 
L 454.583839 -378.972758 
L 453.788393 -379.172193 
L 452.992948 -377.294085 
L 452.197502 -375.93449 
L 451.402056 -377.482895 
L 450.60661 -376.070926 
L 449.811164 -374.604133 
L 449.015718 -373.861699 
L 448.220272 -374.381254 
L 447.424827 -371.945767 
L 446.629381 -370.986521 
L 445.833935 -369.798525 
L 445.038489 -369.527833 
L 444.243043 -367.982144 
L 443.447597 -367.850396 
L 442.652151 -365.408299 
L 441.856705 -365.095118 
L 441.06126 -363.685898 
L 440.265814 -362.599391 
L 439.470368 -361.335485 
L 438.674922 -361.144986 
L 437.879476 -359.134826 
L 437.08403 -358.211452 
L 436.288584 -357.465199 
L 435.493138 -355.837592 
L 434.697693 -354.011461 
L 433.902247 -352.296744 
L 433.106801 -351.993913 
L 432.311355 -350.793275 
L 431.515909 -348.151957 
L 430.720463 -348.695123 
L 429.925017 -345.802209 
L 429.129571 -344.418691 
L 428.334126 -342.984467 
L 427.53868 -340.713624 
L 426.743234 -338.776355 
L 425.947788 -336.931262 
L 425.152342 -334.50575 
L 424.356896 -334.216493 
L 423.56145 -331.73774 
L 422.766005 -329.396982 
L 421.970559 -327.862982 
L 421.175113 -324.907301 
L 420.379667 -323.855608 
L 419.584221 -321.32668 
L 418.788775 -320.06492 
L 417.993329 -317.270434 
L 417.197883 -315.496329 
L 416.402438 -312.536647 
L 415.606992 -311.93536 
L 414.811546 -309.411797 
L 414.0161 -307.738091 
L 413.220654 -305.796723 
L 412.425208 -303.71157 
L 411.629762 -301.935435 
L 410.834316 -300.487669 
L 410.038871 -298.2856 
L 409.243425 -295.959879 
L 408.447979 -293.810019 
L 407.652533 -291.233365 
L 406.857087 -290.772758 
L 406.061641 -287.152138 
L 405.266195 -286.723159 
L 404.470749 -285.638536 
L 403.675304 -283.531466 
L 402.879858 -281.184696 
L 402.084412 -280.106518 
L 401.288966 -278.020645 
L 400.49352 -276.824776 
L 399.698074 -274.402208 
L 398.902628 -271.979396 
L 398.107183 -271.002611 
L 397.311737 -269.818368 
L 396.516291 -267.948916 
L 395.720845 -265.504107 
L 394.925399 -264.205467 
L 394.129953 -262.914482 
L 393.334507 -259.667469 
L 392.539061 -258.804306 
L 391.743616 -255.863922 
L 390.94817 -254.697581 
L 390.152724 -251.389188 
L 389.357278 -250.533945 
L 388.561832 -248.891683 
L 387.766386 -245.535044 
L 386.97094 -244.650843 
L 386.175494 -243.432811 
L 385.380049 -240.473998 
L 384.584603 -238.943363 
L 383.789157 -236.800793 
L 382.993711 -235.243697 
L 382.198265 -233.199861 
L 381.402819 -230.992902 
L 380.607373 -229.093011 
L 379.811927 -227.152252 
L 379.016482 -225.490654 
L 378.221036 -223.337003 
L 377.42559 -221.483663 
L 376.630144 -219.482559 
L 375.834698 -217.123591 
L 375.039252 -215.593086 
L 374.243806 -213.54374 
L 373.448361 -211.449093 
L 372.652915 -209.847171 
L 371.857469 -207.848136 
L 371.062023 -206.11269 
L 370.266577 -204.164278 
L 369.471131 -202.189085 
L 368.675685 -200.208824 
L 367.880239 -198.204237 
L 367.084794 -197.216686 
L 366.289348 -195.346412 
L 365.493902 -192.588953 
L 364.698456 -191.249892 
L 363.90301 -189.595338 
L 363.107564 -187.728746 
L 362.312118 -185.818702 
L 361.516672 -184.953132 
L 360.721227 -183.404959 
L 359.925781 -181.94198 
L 359.130335 -180.652842 
L 358.334889 -178.630346 
L 357.539443 -177.473879 
L 356.743997 -176.366341 
L 355.948551 -175.26867 
L 355.153105 -173.915069 
L 354.35766 -171.874198 
L 353.562214 -170.149127 
L 352.766768 -168.699427 
L 351.971322 -166.962353 
L 351.175876 -165.439442 
L 350.38043 -164.301492 
L 349.584984 -162.880371 
L 348.789539 -161.305404 
L 347.994093 -159.941098 
L 347.198647 -157.291276 
L 346.403201 -155.978126 
L 345.607755 -154.836445 
L 344.812309 -153.192539 
L 344.016863 -150.866723 
L 343.221417 -149.348555 
L 342.425972 -147.554821 
L 341.630526 -145.983411 
L 340.83508 -143.764094 
L 340.039634 -142.116329 
L 339.244188 -140.533217 
L 338.448742 -139.249316 
L 337.653296 -137.343479 
L 336.85785 -135.728329 
L 336.062405 -133.968237 
L 335.266959 -132.558055 
L 334.471513 -131.57473 
L 333.676067 -130.528436 
L 332.880621 -129.490194 
L 332.085175 -128.234419 
L 331.289729 -126.91422 
L 330.494283 -126.174294 
L 329.698838 -125.588901 
L 328.903392 -125.096323 
L 328.107946 -124.476321 
L 327.3125 -123.197714 
L 326.517054 -122.789215 
L 325.721608 -122.974416 
L 324.926162 -122.701528 
L 324.130717 -122.190789 
L 323.335271 -122.38647 
L 322.539825 -122.420349 
L 321.744379 -121.911315 
L 320.948933 -122.168264 
L 320.153487 -122.240693 
L 319.358041 -123.235972 
L 318.562595 -122.660548 
L 317.76715 -122.927276 
L 316.971704 -123.674178 
L 316.176258 -124.015335 
L 315.380812 -124.526815 
L 314.585366 -125.106081 
L 313.78992 -125.895685 
L 312.994474 -126.188067 
L 312.199028 -127.073102 
L 311.403583 -127.874367 
L 310.608137 -128.647985 
L 309.812691 -129.297922 
L 309.017245 -130.693711 
L 308.221799 -131.192187 
L 307.426353 -131.142367 
L 306.630907 -132.287728 
L 305.835461 -132.849716 
L 305.040016 -133.528693 
L 304.24457 -134.396537 
L 303.449124 -134.760482 
L 302.653678 -135.486942 
L 301.858232 -135.779038 
L 301.062786 -136.719159 
L 300.26734 -136.472694 
L 299.471895 -137.559444 
L 298.676449 -137.571873 
L 297.881003 -138.506776 
L 297.085557 -138.301188 
L 296.290111 -139.023121 
L 295.494665 -139.024371 
L 294.699219 -139.259348 
L 293.903773 -140.031645 
L 293.108328 -139.833737 
L 292.312882 -139.576901 
L 291.517436 -139.564818 
L 290.72199 -139.413023 
L 289.926544 -140.003463 
L 289.131098 -139.708699 
L 288.335652 -139.585327 
L 287.540206 -139.526395 
L 286.744761 -139.578059 
L 285.949315 -139.249471 
L 285.153869 -138.926496 
L 284.358423 -138.904014 
L 283.562977 -137.998099 
L 282.767531 -137.456091 
L 281.972085 -137.451411 
L 281.176639 -137.22139 
L 280.381194 -136.785064 
L 279.585748 -136.300732 
L 278.790302 -136.378681 
L 277.994856 -136.182329 
L 277.19941 -135.07595 
L 276.403964 -135.438275 
L 275.608518 -135.192036 
L 274.813073 -135.422783 
L 274.017627 -135.133682 
L 273.222181 -134.901174 
L 272.426735 -134.501619 
L 271.631289 -134.541978 
L 270.835843 -134.349905 
L 270.040397 -134.855548 
L 269.244951 -134.227373 
L 268.449506 -134.113701 
L 267.65406 -134.064264 
L 266.858614 -133.794295 
L 266.063168 -133.76651 
L 265.267722 -133.627906 
L 264.472276 -133.792008 
L 263.67683 -133.371681 
L 262.881384 -133.844298 
L 262.085939 -133.709581 
L 261.290493 -133.694992 
L 260.495047 -133.127001 
L 259.699601 -133.691164 
L 258.904155 -133.778377 
L 258.108709 -133.204299 
L 257.313263 -133.802229 
L 256.517817 -134.015837 
L 255.722372 -133.69707 
L 254.926926 -134.195839 
L 254.13148 -134.611352 
L 253.336034 -134.289331 
L 252.540588 -134.75654 
L 251.745142 -134.68416 
L 250.949696 -134.5259 
L 250.154251 -135.054619 
L 249.358805 -134.922974 
L 248.563359 -135.609036 
L 247.767913 -135.576323 
L 246.972467 -135.752862 
L 246.177021 -135.673209 
L 245.381575 -136.263096 
L 244.586129 -136.554939 
L 243.790684 -136.179543 
L 242.995238 -136.554775 
L 242.199792 -137.180258 
L 241.404346 -137.388042 
L 240.6089 -137.69018 
L 239.813454 -137.444702 
L 239.018008 -137.862924 
L 238.222562 -138.180247 
L 237.427117 -138.255972 
L 236.631671 -138.39923 
L 235.836225 -138.614649 
L 235.040779 -138.795475 
L 234.245333 -139.069352 
L 233.449887 -139.499227 
L 232.654441 -139.512138 
L 231.858995 -139.887181 
L 231.06355 -140.06285 
L 230.268104 -139.785945 
L 229.472658 -140.670781 
L 228.677212 -141.123854 
L 227.881766 -141.594866 
L 227.08632 -141.180942 
L 226.290874 -141.49177 
L 225.495429 -142.097414 
L 224.699983 -142.293722 
L 223.904537 -142.08924 
L 223.109091 -142.322442 
L 222.313645 -142.6466 
L 221.518199 -142.693225 
L 220.722753 -143.118787 
L 219.927307 -143.140596 
L 219.131862 -143.036117 
L 218.336416 -142.949349 
L 217.54097 -143.097796 
L 216.745524 -143.044472 
L 215.950078 -143.119749 
L 215.154632 -143.048002 
L 214.359186 -142.936652 
L 213.56374 -143.186894 
L 212.768295 -143.526416 
L 211.972849 -143.484667 
L 211.177403 -143.993898 
L 210.381957 -144.151896 
L 209.586511 -144.729621 
L 208.791065 -144.932436 
L 207.995619 -145.317274 
L 207.200173 -145.787929 
L 206.404728 -146.473568 
L 205.609282 -146.816351 
L 204.813836 -147.211581 
L 204.01839 -147.89392 
L 203.222944 -148.529662 
L 202.427498 -148.648513 
L 201.632052 -149.642301 
L 200.836607 -149.790511 
L 200.041161 -150.152343 
L 199.245715 -150.374417 
L 198.450269 -151.086224 
L 197.654823 -151.331019 
L 196.859377 -151.799975 
L 196.063931 -152.037518 
L 195.268485 -152.382712 
L 194.47304 -152.377813 
L 193.677594 -152.761057 
L 192.882148 -152.703343 
L 192.086702 -153.194562 
L 191.291256 -152.738108 
L 190.49581 -153.005985 
L 189.700364 -153.184106 
L 188.904918 -153.123727 
L 188.109473 -153.18997 
L 187.314027 -153.219855 
L 186.518581 -153.03849 
L 185.723135 -153.132321 
L 184.927689 -153.031158 
L 184.132243 -152.835525 
L 183.336797 -152.407944 
L 182.541351 -152.462048 
L 181.745906 -152.404338 
L 180.95046 -152.426315 
L 180.155014 -151.732936 
L 179.359568 -151.844639 
L 178.564122 -151.343378 
L 177.768676 -151.379244 
L 176.97323 -151.07668 
L 176.177785 -150.848023 
L 175.382339 -150.237986 
L 174.586893 -150.338966 
L 173.791447 -149.844332 
L 172.996001 -149.60721 
L 172.200555 -149.410633 
L 171.405109 -149.216678 
L 170.609663 -149.317135 
L 169.814218 -148.975989 
L 169.018772 -148.826943 
L 168.223326 -148.743144 
L 167.42788 -148.576902 
L 166.632434 -148.741896 
L 165.836988 -148.661788 
L 165.041542 -148.720762 
L 164.246096 -148.689931 
L 163.450651 -148.786326 
L 162.655205 -148.787739 
L 161.859759 -148.973998 
L 161.064313 -149.067299 
L 160.268867 -149.205162 
L 159.473421 -149.331595 
L 158.677975 -149.478945 
L 157.882529 -149.556309 
L 157.087084 -149.599328 
L 156.291638 -149.503177 
L 155.496192 -149.470018 
L 154.700746 -149.532064 
L 153.9053 -149.365654 
L 153.109854 -149.289604 
L 152.314408 -148.99234 
L 151.518963 -148.820415 
L 150.723517 -148.485184 
L 149.928071 -148.17744 
L 149.132625 -147.677626 
L 148.337179 -147.319874 
L 147.541733 -146.837824 
L 146.746287 -146.426691 
L 145.950841 -146.004009 
L 145.155396 -145.653775 
L 144.35995 -145.412642 
L 143.564504 -145.11444 
L 142.769058 -144.701142 
L 141.973612 -144.586827 
L 141.178166 -144.432681 
L 140.38272 -144.397235 
L 139.587274 -144.322758 
L 138.791829 -144.418766 
L 137.996383 -144.406031 
L 137.200937 -144.6543 
L 136.405491 -144.824088 
L 135.610045 -145.097478 
L 134.814599 -145.415601 
L 134.019153 -145.458409 
L 133.223707 -145.806651 
L 132.428262 -145.800965 
L 131.632816 -145.792355 
L 130.83737 -146.000952 
L 130.041924 -146.119106 
L 129.246478 -146.133876 
L 128.451032 -146.164643 
L 127.655586 -146.061292 
L 126.860141 -146.055612 
L 126.064695 -145.947132 
L 125.269249 -145.817886 
L 124.473803 -145.859043 
L 123.678357 -145.440529 
L 122.882911 -145.446111 
L 122.087465 -145.095407 
L 121.292019 -144.480732 
L 120.496574 -144.641784 
L 119.701128 -144.205336 
L 118.905682 -144.081649 
z
" id="mc6f31255c1" style="stroke:#808080;stroke-opacity:0.2;stroke-width:1.5;"/>
    </defs>
    <g clip-path="url(#p9a06ddf9af)">
     <use style="fill:#808080;fill-opacity:0.2;stroke:#808080;stroke-opacity:0.2;stroke-width:1.5;" x="0" xlink:href="#mc6f31255c1" y="432"/>
    </g>
   </g>
   <g id="PolyCollection_2">
    <defs>
     <path d="M 118.905682 -146.062523 
L 118.905682 -129.752058 
L 119.701128 -130.585886 
L 120.496574 -131.512545 
L 121.292019 -132.174169 
L 122.087465 -132.753514 
L 122.882911 -133.229506 
L 123.678357 -133.468667 
L 124.473803 -133.75496 
L 125.269249 -133.809361 
L 126.064695 -133.967261 
L 126.860141 -133.922299 
L 127.655586 -134.030284 
L 128.451032 -133.872404 
L 129.246478 -134.042648 
L 130.041924 -133.796469 
L 130.83737 -133.731599 
L 131.632816 -133.853103 
L 132.428262 -133.631522 
L 133.223707 -133.64552 
L 134.019153 -133.67479 
L 134.814599 -133.774471 
L 135.610045 -133.433055 
L 136.405491 -133.515786 
L 137.200937 -133.281488 
L 137.996383 -133.28621 
L 138.791829 -133.337349 
L 139.587274 -133.033644 
L 140.38272 -133.053496 
L 141.178166 -132.908267 
L 141.973612 -132.851175 
L 142.769058 -132.88805 
L 143.564504 -132.71606 
L 144.35995 -132.606784 
L 145.155396 -132.737326 
L 145.950841 -132.737083 
L 146.746287 -132.929495 
L 147.541733 -133.17433 
L 148.337179 -133.327146 
L 149.132625 -133.615693 
L 149.928071 -133.925989 
L 150.723517 -134.334252 
L 151.518963 -134.504744 
L 152.314408 -135.041521 
L 153.109854 -135.220902 
L 153.9053 -135.587782 
L 154.700746 -136.136511 
L 155.496192 -136.563627 
L 156.291638 -136.960547 
L 157.087084 -137.270917 
L 157.882529 -137.747286 
L 158.677975 -138.268116 
L 159.473421 -138.821749 
L 160.268867 -139.133765 
L 161.064313 -139.601929 
L 161.859759 -140.05747 
L 162.655205 -140.429337 
L 163.450651 -140.653833 
L 164.246096 -141.037063 
L 165.041542 -140.683253 
L 165.836988 -141.066677 
L 166.632434 -140.696637 
L 167.42788 -140.574632 
L 168.223326 -139.972105 
L 169.018772 -139.983103 
L 169.814218 -139.598582 
L 170.609663 -138.802267 
L 171.405109 -138.016078 
L 172.200555 -137.422939 
L 172.996001 -136.845148 
L 173.791447 -135.524609 
L 174.586893 -134.866672 
L 175.382339 -133.531089 
L 176.177785 -132.888605 
L 176.97323 -131.404649 
L 177.768676 -130.647816 
L 178.564122 -129.291942 
L 179.359568 -128.84688 
L 180.155014 -127.486473 
L 180.95046 -126.447084 
L 181.745906 -125.69827 
L 182.541351 -124.180299 
L 183.336797 -123.523811 
L 184.132243 -122.612159 
L 184.927689 -121.751569 
L 185.723135 -121.109638 
L 186.518581 -119.763059 
L 187.314027 -118.427882 
L 188.109473 -118.496354 
L 188.904918 -117.409955 
L 189.700364 -117.420762 
L 190.49581 -116.048688 
L 191.291256 -115.138227 
L 192.086702 -115.080355 
L 192.882148 -114.960816 
L 193.677594 -114.226779 
L 194.47304 -113.815004 
L 195.268485 -113.498931 
L 196.063931 -113.488164 
L 196.859377 -113.022074 
L 197.654823 -113.571661 
L 198.450269 -113.504908 
L 199.245715 -113.586753 
L 200.041161 -114.298016 
L 200.836607 -114.992499 
L 201.632052 -115.060763 
L 202.427498 -115.726937 
L 203.222944 -116.864188 
L 204.01839 -117.447149 
L 204.813836 -118.277571 
L 205.609282 -118.939538 
L 206.404728 -120.10721 
L 207.200173 -120.444002 
L 207.995619 -122.009106 
L 208.791065 -123.092647 
L 209.586511 -123.460914 
L 210.381957 -124.756823 
L 211.177403 -125.808457 
L 211.972849 -126.391787 
L 212.768295 -126.792824 
L 213.56374 -127.33815 
L 214.359186 -127.485312 
L 215.154632 -128.387898 
L 215.950078 -128.287714 
L 216.745524 -129.018908 
L 217.54097 -129.288348 
L 218.336416 -129.145653 
L 219.131862 -129.455752 
L 219.927307 -128.986394 
L 220.722753 -128.578544 
L 221.518199 -128.727063 
L 222.313645 -128.276143 
L 223.109091 -127.719153 
L 223.904537 -127.928008 
L 224.699983 -127.095033 
L 225.495429 -127.478687 
L 226.290874 -126.601772 
L 227.08632 -126.141105 
L 227.881766 -126.133046 
L 228.677212 -125.270936 
L 229.472658 -124.884636 
L 230.268104 -124.325186 
L 231.06355 -124.194698 
L 231.858995 -123.45323 
L 232.654441 -123.011557 
L 233.449887 -122.206711 
L 234.245333 -122.212134 
L 235.040779 -121.527618 
L 235.836225 -121.12303 
L 236.631671 -121.33587 
L 237.427117 -120.657854 
L 238.222562 -120.455364 
L 239.018008 -119.960556 
L 239.813454 -120.65525 
L 240.6089 -120.18181 
L 241.404346 -120.342211 
L 242.199792 -119.887402 
L 242.995238 -120.107785 
L 243.790684 -120.13451 
L 244.586129 -120.449802 
L 245.381575 -120.19056 
L 246.177021 -119.809397 
L 246.972467 -119.529694 
L 247.767913 -119.089522 
L 248.563359 -118.667793 
L 249.358805 -117.90735 
L 250.154251 -118.382069 
L 250.949696 -117.862988 
L 251.745142 -117.144668 
L 252.540588 -117.278738 
L 253.336034 -116.804091 
L 254.13148 -116.226222 
L 254.926926 -115.975699 
L 255.722372 -115.171294 
L 256.517817 -115.009965 
L 257.313263 -114.514776 
L 258.108709 -114.681925 
L 258.904155 -113.207682 
L 259.699601 -113.943138 
L 260.495047 -113.218185 
L 261.290493 -112.97414 
L 262.085939 -112.473918 
L 262.881384 -111.392555 
L 263.67683 -110.550346 
L 264.472276 -110.381052 
L 265.267722 -110.145741 
L 266.063168 -108.770944 
L 266.858614 -108.67706 
L 267.65406 -107.584327 
L 268.449506 -106.650779 
L 269.244951 -106.38378 
L 270.040397 -105.859224 
L 270.835843 -105.591084 
L 271.631289 -105.328246 
L 272.426735 -104.199574 
L 273.222181 -103.722798 
L 274.017627 -103.068123 
L 274.813073 -103.258317 
L 275.608518 -103.307928 
L 276.403964 -102.355647 
L 277.19941 -103.682336 
L 277.994856 -102.791662 
L 278.790302 -102.989701 
L 279.585748 -103.226259 
L 280.381194 -103.732355 
L 281.176639 -103.928589 
L 281.972085 -104.334951 
L 282.767531 -104.264492 
L 283.562977 -104.749624 
L 284.358423 -105.541997 
L 285.153869 -104.675661 
L 285.949315 -104.798523 
L 286.744761 -105.402363 
L 287.540206 -105.383004 
L 288.335652 -104.80525 
L 289.131098 -105.11866 
L 289.926544 -105.136724 
L 290.72199 -104.992398 
L 291.517436 -104.380131 
L 292.312882 -103.816516 
L 293.108328 -104.05806 
L 293.903773 -104.034983 
L 294.699219 -103.560135 
L 295.494665 -103.119965 
L 296.290111 -103.523369 
L 297.085557 -103.258784 
L 297.881003 -103.237072 
L 298.676449 -103.650896 
L 299.471895 -104.057664 
L 300.26734 -103.219003 
L 301.062786 -104.24057 
L 301.858232 -104.392502 
L 302.653678 -104.955777 
L 303.449124 -105.178007 
L 304.24457 -106.155665 
L 305.040016 -105.973761 
L 305.835461 -106.354354 
L 306.630907 -106.751233 
L 307.426353 -107.272048 
L 308.221799 -107.610842 
L 309.017245 -107.709909 
L 309.812691 -107.915876 
L 310.608137 -107.449136 
L 311.403583 -108.013556 
L 312.199028 -107.617355 
L 312.994474 -107.327287 
L 313.78992 -107.436352 
L 314.585366 -106.970835 
L 315.380812 -106.593119 
L 316.176258 -107.128849 
L 316.971704 -106.258976 
L 317.76715 -105.853923 
L 318.562595 -106.293347 
L 319.358041 -106.31734 
L 320.153487 -105.226026 
L 320.948933 -104.40283 
L 321.744379 -105.290542 
L 322.539825 -104.829062 
L 323.335271 -104.788582 
L 324.130717 -104.959547 
L 324.926162 -105.683557 
L 325.721608 -105.263138 
L 326.517054 -105.099314 
L 327.3125 -105.943099 
L 328.107946 -105.630448 
L 328.903392 -105.627074 
L 329.698838 -105.961263 
L 330.494283 -106.394502 
L 331.289729 -106.162287 
L 332.085175 -106.55132 
L 332.880621 -108.082515 
L 333.676067 -107.123194 
L 334.471513 -108.427137 
L 335.266959 -108.627444 
L 336.062405 -109.424837 
L 336.85785 -110.096994 
L 337.653296 -111.201722 
L 338.448742 -111.502511 
L 339.244188 -113.634617 
L 340.039634 -113.62523 
L 340.83508 -115.220083 
L 341.630526 -116.335841 
L 342.425972 -116.932922 
L 343.221417 -120.100047 
L 344.016863 -121.015748 
L 344.812309 -121.741972 
L 345.607755 -123.790571 
L 346.403201 -124.300763 
L 347.198647 -126.582484 
L 347.994093 -127.355038 
L 348.789539 -129.025116 
L 349.584984 -131.216863 
L 350.38043 -132.702458 
L 351.175876 -133.906653 
L 351.971322 -136.496349 
L 352.766768 -139.059536 
L 353.562214 -140.739705 
L 354.35766 -142.177357 
L 355.153105 -144.061558 
L 355.948551 -146.896433 
L 356.743997 -149.183515 
L 357.539443 -150.760069 
L 358.334889 -151.420068 
L 359.130335 -153.049231 
L 359.925781 -154.216006 
L 360.721227 -155.426615 
L 361.516672 -158.099456 
L 362.312118 -158.42261 
L 363.107564 -159.592932 
L 363.90301 -160.86405 
L 364.698456 -162.595966 
L 365.493902 -163.834044 
L 366.289348 -164.692292 
L 367.084794 -165.824767 
L 367.880239 -166.810651 
L 368.675685 -168.085271 
L 369.471131 -168.820919 
L 370.266577 -171.000971 
L 371.062023 -172.804904 
L 371.857469 -173.082311 
L 372.652915 -175.20672 
L 373.448361 -176.56445 
L 374.243806 -178.649287 
L 375.039252 -180.221198 
L 375.834698 -183.22239 
L 376.630144 -184.305311 
L 377.42559 -186.739268 
L 378.221036 -187.74285 
L 379.016482 -190.527807 
L 379.811927 -192.770586 
L 380.607373 -194.158513 
L 381.402819 -196.721978 
L 382.198265 -198.107847 
L 382.993711 -200.239585 
L 383.789157 -202.318888 
L 384.584603 -203.934512 
L 385.380049 -206.794592 
L 386.175494 -207.403906 
L 386.97094 -210.516719 
L 387.766386 -211.820954 
L 388.561832 -213.832703 
L 389.357278 -215.306377 
L 390.152724 -217.302311 
L 390.94817 -218.519013 
L 391.743616 -220.335807 
L 392.539061 -221.484334 
L 393.334507 -224.279864 
L 394.129953 -225.777734 
L 394.925399 -228.258099 
L 395.720845 -228.298424 
L 396.516291 -231.188497 
L 397.311737 -232.869282 
L 398.107183 -234.275508 
L 398.902628 -236.171136 
L 399.698074 -238.501687 
L 400.49352 -239.800651 
L 401.288966 -242.556994 
L 402.084412 -244.88815 
L 402.879858 -246.633549 
L 403.675304 -249.835416 
L 404.470749 -251.964183 
L 405.266195 -253.503768 
L 406.061641 -256.370643 
L 406.857087 -259.764919 
L 407.652533 -262.594883 
L 408.447979 -264.864825 
L 409.243425 -267.193773 
L 410.038871 -270.968145 
L 410.834316 -272.566176 
L 411.629762 -275.439896 
L 412.425208 -278.591755 
L 413.220654 -280.836185 
L 414.0161 -282.988 
L 414.811546 -284.28903 
L 415.606992 -287.207209 
L 416.402438 -290.096143 
L 417.197883 -291.551376 
L 417.993329 -294.262818 
L 418.788775 -295.553537 
L 419.584221 -296.665279 
L 420.379667 -299.112546 
L 421.175113 -299.819385 
L 421.970559 -301.002384 
L 422.766005 -302.269127 
L 423.56145 -303.757601 
L 424.356896 -303.908664 
L 425.152342 -305.182371 
L 425.947788 -306.823395 
L 426.743234 -307.422825 
L 427.53868 -308.009854 
L 428.334126 -309.556729 
L 429.129571 -310.097453 
L 429.925017 -310.889274 
L 430.720463 -312.203983 
L 431.515909 -312.959733 
L 432.311355 -314.399697 
L 433.106801 -314.822354 
L 433.902247 -315.799494 
L 434.697693 -316.73417 
L 435.493138 -317.292464 
L 436.288584 -318.343101 
L 437.08403 -320.303978 
L 437.879476 -321.451827 
L 438.674922 -320.833652 
L 439.470368 -322.019578 
L 440.265814 -323.250011 
L 441.06126 -323.852789 
L 441.856705 -325.503157 
L 442.652151 -326.159758 
L 443.447597 -326.796313 
L 444.243043 -327.184303 
L 445.038489 -327.85798 
L 445.833935 -328.506573 
L 446.629381 -330.427932 
L 447.424827 -329.25646 
L 448.220272 -329.574214 
L 449.015718 -330.473431 
L 449.811164 -330.779427 
L 450.60661 -331.100341 
L 451.402056 -331.519925 
L 452.197502 -331.733834 
L 452.992948 -331.708691 
L 453.788393 -331.90262 
L 454.583839 -332.944938 
L 455.379285 -332.168494 
L 456.174731 -332.785856 
L 456.970177 -332.70231 
L 457.765623 -332.258905 
L 458.561069 -333.782451 
L 459.356515 -333.089032 
L 460.15196 -333.722887 
L 460.947406 -334.043032 
L 461.742852 -334.088217 
L 462.538298 -334.033431 
L 463.333744 -333.399838 
L 464.12919 -333.437935 
L 464.924636 -333.066353 
L 465.720082 -333.394341 
L 466.515527 -334.078647 
L 467.310973 -334.19606 
L 468.106419 -333.606493 
L 468.901865 -334.455711 
L 469.697311 -333.726381 
L 470.492757 -332.830385 
L 471.288203 -333.282152 
L 472.083649 -333.241001 
L 472.879094 -332.44815 
L 473.67454 -333.032667 
L 474.469986 -332.40919 
L 475.265432 -332.785956 
L 476.060878 -331.809136 
L 476.856324 -331.456464 
L 477.65177 -331.491783 
L 478.447215 -331.083508 
L 479.242661 -330.381234 
L 480.038107 -329.451131 
L 480.833553 -329.390677 
L 481.628999 -328.981737 
L 482.424445 -329.291551 
L 483.219891 -327.845814 
L 484.015337 -326.937342 
L 484.810782 -326.767328 
L 485.606228 -326.671659 
L 486.401674 -325.222853 
L 487.19712 -326.410355 
L 487.992566 -324.728337 
L 488.788012 -325.441075 
L 489.583458 -325.031852 
L 490.378904 -324.697649 
L 491.174349 -324.61061 
L 491.969795 -324.480202 
L 492.765241 -323.434018 
L 493.560687 -323.259579 
L 494.356133 -321.745057 
L 495.151579 -322.614867 
L 495.947025 -321.667756 
L 496.742471 -321.174362 
L 497.537916 -320.064253 
L 498.333362 -320.043844 
L 499.128808 -319.138921 
L 499.924254 -319.046671 
L 500.7197 -317.756345 
L 501.515146 -316.472229 
L 502.310592 -315.181845 
L 503.106037 -314.336484 
L 503.901483 -313.182167 
L 504.696929 -311.010923 
L 505.492375 -310.018652 
L 506.287821 -308.638858 
L 507.083267 -307.357419 
L 507.878713 -305.554933 
L 508.674159 -302.670064 
L 509.469604 -301.477923 
L 510.26505 -299.812953 
L 511.060496 -298.159051 
L 511.855942 -296.074332 
L 512.651388 -294.639737 
L 513.446834 -292.456249 
L 514.24228 -292.137487 
L 515.037726 -288.128053 
L 515.833171 -287.108393 
L 516.628617 -285.687627 
L 517.424063 -283.687877 
L 518.219509 -281.268358 
L 519.014955 -280.043893 
L 519.810401 -277.052595 
L 520.605847 -276.22997 
L 521.401293 -273.659205 
L 522.196738 -272.430252 
L 522.992184 -271.040257 
L 523.78763 -270.581989 
L 524.583076 -268.67632 
L 525.378522 -267.016183 
L 526.173968 -265.85042 
L 526.969414 -263.863663 
L 527.764859 -261.70901 
L 528.560305 -261.874082 
L 529.355751 -259.819294 
L 530.151197 -258.436029 
L 530.946643 -257.302336 
L 531.742089 -256.175278 
L 532.537535 -253.631893 
L 533.332981 -253.159807 
L 534.128426 -251.502309 
L 534.923872 -250.959078 
L 535.719318 -249.018996 
L 535.719318 -315.593426 
L 535.719318 -315.593426 
L 534.923872 -317.132524 
L 534.128426 -318.392052 
L 533.332981 -320.181517 
L 532.537535 -321.614092 
L 531.742089 -324.28088 
L 530.946643 -325.635627 
L 530.151197 -327.814469 
L 529.355751 -329.700711 
L 528.560305 -331.372709 
L 527.764859 -333.419596 
L 526.969414 -334.585342 
L 526.173968 -334.977561 
L 525.378522 -337.681586 
L 524.583076 -339.829744 
L 523.78763 -340.729224 
L 522.992184 -342.380801 
L 522.196738 -344.813848 
L 521.401293 -345.854678 
L 520.605847 -348.369514 
L 519.810401 -349.845508 
L 519.014955 -352.190735 
L 518.219509 -353.407043 
L 517.424063 -355.433351 
L 516.628617 -357.294052 
L 515.833171 -359.050158 
L 515.037726 -359.251248 
L 514.24228 -361.926154 
L 513.446834 -362.226713 
L 512.651388 -364.584577 
L 511.855942 -365.732929 
L 511.060496 -369.115332 
L 510.26505 -369.767207 
L 509.469604 -371.672921 
L 508.674159 -372.391809 
L 507.878713 -375.280668 
L 507.083267 -375.496483 
L 506.287821 -376.592378 
L 505.492375 -378.792656 
L 504.696929 -379.177083 
L 503.901483 -381.178456 
L 503.106037 -382.385541 
L 502.310592 -383.74683 
L 501.515146 -385.448554 
L 500.7197 -386.02597 
L 499.924254 -386.895675 
L 499.128808 -387.798466 
L 498.333362 -388.681599 
L 497.537916 -388.632548 
L 496.742471 -389.919024 
L 495.947025 -390.984409 
L 495.151579 -391.519714 
L 494.356133 -390.708894 
L 493.560687 -392.34543 
L 492.765241 -392.708488 
L 491.969795 -393.645604 
L 491.174349 -393.159437 
L 490.378904 -393.669611 
L 489.583458 -394.425325 
L 488.788012 -394.129298 
L 487.992566 -394.859174 
L 487.19712 -394.366656 
L 486.401674 -395.297003 
L 485.606228 -395.099569 
L 484.810782 -395.253658 
L 484.015337 -395.853591 
L 483.219891 -395.878875 
L 482.424445 -396.0342 
L 481.628999 -394.919692 
L 480.833553 -394.768738 
L 480.038107 -395.062425 
L 479.242661 -394.987139 
L 478.447215 -395.939258 
L 477.65177 -396.080102 
L 476.856324 -395.848255 
L 476.060878 -395.219352 
L 475.265432 -396.940909 
L 474.469986 -396.386875 
L 473.67454 -396.195662 
L 472.879094 -395.819446 
L 472.083649 -395.931673 
L 471.288203 -395.778188 
L 470.492757 -395.621919 
L 469.697311 -396.642675 
L 468.901865 -395.690195 
L 468.106419 -395.905369 
L 467.310973 -395.825936 
L 466.515527 -395.208847 
L 465.720082 -395.0295 
L 464.924636 -394.784222 
L 464.12919 -395.878582 
L 463.333744 -394.925999 
L 462.538298 -395.355773 
L 461.742852 -395.425112 
L 460.947406 -394.414537 
L 460.15196 -395.633053 
L 459.356515 -394.738708 
L 458.561069 -396.019059 
L 457.765623 -394.181767 
L 456.970177 -394.747214 
L 456.174731 -394.616082 
L 455.379285 -394.530014 
L 454.583839 -394.62683 
L 453.788393 -394.885855 
L 452.992948 -394.499816 
L 452.197502 -395.046559 
L 451.402056 -395.730513 
L 450.60661 -394.527732 
L 449.811164 -394.51797 
L 449.015718 -394.863718 
L 448.220272 -394.656665 
L 447.424827 -393.543387 
L 446.629381 -394.111361 
L 445.833935 -393.028877 
L 445.038489 -393.318107 
L 444.243043 -393.893019 
L 443.447597 -392.568317 
L 442.652151 -391.97655 
L 441.856705 -391.088999 
L 441.06126 -390.95026 
L 440.265814 -388.636625 
L 439.470368 -389.975987 
L 438.674922 -388.267348 
L 437.879476 -386.860018 
L 437.08403 -386.522542 
L 436.288584 -386.253731 
L 435.493138 -384.905139 
L 434.697693 -383.38198 
L 433.902247 -382.05036 
L 433.106801 -381.645102 
L 432.311355 -378.59745 
L 431.515909 -378.346659 
L 430.720463 -378.045337 
L 429.925017 -376.753106 
L 429.129571 -374.533513 
L 428.334126 -373.997863 
L 427.53868 -372.445252 
L 426.743234 -370.612143 
L 425.947788 -369.958048 
L 425.152342 -367.91786 
L 424.356896 -365.680354 
L 423.56145 -364.693807 
L 422.766005 -362.664628 
L 421.970559 -362.779291 
L 421.175113 -361.860219 
L 420.379667 -359.193852 
L 419.584221 -356.927519 
L 418.788775 -356.339164 
L 417.993329 -354.312098 
L 417.197883 -350.97757 
L 416.402438 -349.98621 
L 415.606992 -346.22617 
L 414.811546 -345.246568 
L 414.0161 -341.487294 
L 413.220654 -339.539779 
L 412.425208 -336.854742 
L 411.629762 -333.199481 
L 410.834316 -330.96014 
L 410.038871 -329.19019 
L 409.243425 -325.456387 
L 408.447979 -322.47159 
L 407.652533 -319.569912 
L 406.857087 -317.014453 
L 406.061641 -314.047735 
L 405.266195 -311.295383 
L 404.470749 -308.64184 
L 403.675304 -306.777775 
L 402.879858 -303.551347 
L 402.084412 -301.365229 
L 401.288966 -299.345101 
L 400.49352 -297.170198 
L 399.698074 -294.539128 
L 398.902628 -292.566138 
L 398.107183 -290.960589 
L 397.311737 -288.879503 
L 396.516291 -287.459153 
L 395.720845 -284.927967 
L 394.925399 -284.186743 
L 394.129953 -282.41528 
L 393.334507 -280.074791 
L 392.539061 -278.67818 
L 391.743616 -275.390576 
L 390.94817 -275.091851 
L 390.152724 -272.927199 
L 389.357278 -270.072277 
L 388.561832 -268.546289 
L 387.766386 -266.862417 
L 386.97094 -265.238707 
L 386.175494 -263.662645 
L 385.380049 -261.775791 
L 384.584603 -259.997503 
L 383.789157 -256.942445 
L 382.993711 -255.849005 
L 382.198265 -253.009072 
L 381.402819 -250.940324 
L 380.607373 -249.076381 
L 379.811927 -245.913607 
L 379.016482 -245.275506 
L 378.221036 -243.138482 
L 377.42559 -241.181821 
L 376.630144 -238.85642 
L 375.834698 -236.934295 
L 375.039252 -234.540549 
L 374.243806 -233.197111 
L 373.448361 -231.941386 
L 372.652915 -229.63567 
L 371.857469 -227.854451 
L 371.062023 -226.541694 
L 370.266577 -225.219297 
L 369.471131 -223.628171 
L 368.675685 -222.422526 
L 367.880239 -221.895574 
L 367.084794 -219.911385 
L 366.289348 -218.897795 
L 365.493902 -218.348499 
L 364.698456 -216.202288 
L 363.90301 -215.046394 
L 363.107564 -213.799465 
L 362.312118 -212.500247 
L 361.516672 -211.27333 
L 360.721227 -210.715708 
L 359.925781 -207.922946 
L 359.130335 -206.849154 
L 358.334889 -206.045705 
L 357.539443 -204.509197 
L 356.743997 -202.71215 
L 355.948551 -201.124861 
L 355.153105 -199.094547 
L 354.35766 -197.631449 
L 353.562214 -196.501318 
L 352.766768 -193.753581 
L 351.971322 -192.020994 
L 351.175876 -190.531586 
L 350.38043 -188.611816 
L 349.584984 -187.579922 
L 348.789539 -185.45261 
L 347.994093 -184.336228 
L 347.198647 -182.672962 
L 346.403201 -181.267147 
L 345.607755 -180.136364 
L 344.812309 -178.676121 
L 344.016863 -177.894364 
L 343.221417 -175.862952 
L 342.425972 -174.289872 
L 341.630526 -173.243761 
L 340.83508 -172.168343 
L 340.039634 -169.764632 
L 339.244188 -169.473985 
L 338.448742 -168.142667 
L 337.653296 -166.949534 
L 336.85785 -165.927776 
L 336.062405 -165.178319 
L 335.266959 -163.63263 
L 334.471513 -163.266268 
L 333.676067 -162.575396 
L 332.880621 -161.408058 
L 332.085175 -161.175949 
L 331.289729 -160.22614 
L 330.494283 -160.013654 
L 329.698838 -159.267364 
L 328.903392 -158.393173 
L 328.107946 -158.972227 
L 327.3125 -158.372494 
L 326.517054 -156.984605 
L 325.721608 -157.402472 
L 324.926162 -156.247895 
L 324.130717 -156.342807 
L 323.335271 -156.75193 
L 322.539825 -155.878247 
L 321.744379 -155.134496 
L 320.948933 -155.626358 
L 320.153487 -155.168826 
L 319.358041 -155.369601 
L 318.562595 -155.377953 
L 317.76715 -155.261386 
L 316.971704 -155.115982 
L 316.176258 -155.554854 
L 315.380812 -154.971324 
L 314.585366 -154.868247 
L 313.78992 -154.793247 
L 312.994474 -154.263848 
L 312.199028 -153.783663 
L 311.403583 -153.770901 
L 310.608137 -153.279131 
L 309.812691 -153.551452 
L 309.017245 -153.022177 
L 308.221799 -152.84568 
L 307.426353 -152.248621 
L 306.630907 -152.396693 
L 305.835461 -152.175198 
L 305.040016 -151.157824 
L 304.24457 -150.827193 
L 303.449124 -150.509907 
L 302.653678 -149.220397 
L 301.858232 -149.631244 
L 301.062786 -149.087487 
L 300.26734 -148.609334 
L 299.471895 -148.638998 
L 298.676449 -148.203677 
L 297.881003 -147.716691 
L 297.085557 -147.813726 
L 296.290111 -148.212173 
L 295.494665 -147.505142 
L 294.699219 -147.903004 
L 293.903773 -148.600089 
L 293.108328 -148.092931 
L 292.312882 -148.171002 
L 291.517436 -148.415883 
L 290.72199 -148.142994 
L 289.926544 -148.359539 
L 289.131098 -148.589028 
L 288.335652 -148.446164 
L 287.540206 -148.568327 
L 286.744761 -148.358703 
L 285.949315 -148.898953 
L 285.153869 -148.033648 
L 284.358423 -148.047704 
L 283.562977 -148.685339 
L 282.767531 -148.194701 
L 281.972085 -147.820477 
L 281.176639 -148.02764 
L 280.381194 -147.387432 
L 279.585748 -147.534375 
L 278.790302 -147.813906 
L 277.994856 -147.691934 
L 277.19941 -147.535954 
L 276.403964 -147.653899 
L 275.608518 -148.246217 
L 274.813073 -148.412223 
L 274.017627 -148.647635 
L 273.222181 -148.711215 
L 272.426735 -148.630639 
L 271.631289 -149.315887 
L 270.835843 -149.5336 
L 270.040397 -149.298512 
L 269.244951 -150.11854 
L 268.449506 -150.573106 
L 267.65406 -150.501717 
L 266.858614 -151.323151 
L 266.063168 -151.205576 
L 265.267722 -152.169847 
L 264.472276 -152.360382 
L 263.67683 -152.146744 
L 262.881384 -152.520766 
L 262.085939 -152.364399 
L 261.290493 -152.52911 
L 260.495047 -153.010113 
L 259.699601 -152.861733 
L 258.904155 -153.079015 
L 258.108709 -152.831413 
L 257.313263 -153.033224 
L 256.517817 -152.791085 
L 255.722372 -152.585546 
L 254.926926 -152.955506 
L 254.13148 -152.976909 
L 253.336034 -153.234307 
L 252.540588 -153.162479 
L 251.745142 -152.808714 
L 250.949696 -153.059294 
L 250.154251 -153.034366 
L 249.358805 -153.255263 
L 248.563359 -153.012458 
L 247.767913 -152.874821 
L 246.972467 -153.251167 
L 246.177021 -153.009186 
L 245.381575 -153.532411 
L 244.586129 -153.293212 
L 243.790684 -153.075728 
L 242.995238 -152.483927 
L 242.199792 -152.584335 
L 241.404346 -152.62387 
L 240.6089 -152.961071 
L 239.813454 -152.484108 
L 239.018008 -152.362723 
L 238.222562 -151.993911 
L 237.427117 -151.928903 
L 236.631671 -152.120825 
L 235.836225 -152.189398 
L 235.040779 -152.322882 
L 234.245333 -151.978524 
L 233.449887 -152.514298 
L 232.654441 -152.920543 
L 231.858995 -153.113991 
L 231.06355 -153.244358 
L 230.268104 -153.512963 
L 229.472658 -153.859382 
L 228.677212 -154.21797 
L 227.881766 -154.827384 
L 227.08632 -155.291768 
L 226.290874 -155.535131 
L 225.495429 -155.918817 
L 224.699983 -156.716014 
L 223.904537 -157.002383 
L 223.109091 -156.835305 
L 222.313645 -157.366947 
L 221.518199 -157.713358 
L 220.722753 -158.07877 
L 219.927307 -158.23438 
L 219.131862 -158.431245 
L 218.336416 -159.103544 
L 217.54097 -158.759872 
L 216.745524 -158.336873 
L 215.950078 -158.449477 
L 215.154632 -158.309799 
L 214.359186 -157.590799 
L 213.56374 -157.342236 
L 212.768295 -157.405518 
L 211.972849 -157.120565 
L 211.177403 -156.054339 
L 210.381957 -155.376643 
L 209.586511 -154.955651 
L 208.791065 -154.378029 
L 207.995619 -154.169851 
L 207.200173 -153.106315 
L 206.404728 -152.900603 
L 205.609282 -152.126401 
L 204.813836 -151.792204 
L 204.01839 -151.278648 
L 203.222944 -150.590823 
L 202.427498 -150.615715 
L 201.632052 -150.35129 
L 200.836607 -150.725857 
L 200.041161 -150.739318 
L 199.245715 -150.307819 
L 198.450269 -150.748106 
L 197.654823 -150.646599 
L 196.859377 -151.368662 
L 196.063931 -152.515461 
L 195.268485 -152.783525 
L 194.47304 -152.900933 
L 193.677594 -153.774546 
L 192.882148 -154.466936 
L 192.086702 -155.151643 
L 191.291256 -156.057431 
L 190.49581 -156.747445 
L 189.700364 -157.268481 
L 188.904918 -157.378592 
L 188.109473 -157.431342 
L 187.314027 -158.181556 
L 186.518581 -158.300559 
L 185.723135 -159.119912 
L 184.927689 -158.882781 
L 184.132243 -158.749918 
L 183.336797 -158.902127 
L 182.541351 -159.050164 
L 181.745906 -158.586464 
L 180.95046 -158.785295 
L 180.155014 -159.103852 
L 179.359568 -158.532204 
L 178.564122 -158.756533 
L 177.768676 -158.398948 
L 176.97323 -158.344763 
L 176.177785 -158.439944 
L 175.382339 -158.333763 
L 174.586893 -158.226525 
L 173.791447 -158.13492 
L 172.996001 -157.638746 
L 172.200555 -158.086504 
L 171.405109 -157.749458 
L 170.609663 -157.492012 
L 169.814218 -157.215565 
L 169.018772 -156.91536 
L 168.223326 -156.19976 
L 167.42788 -155.828379 
L 166.632434 -155.402916 
L 165.836988 -154.812334 
L 165.041542 -154.212202 
L 164.246096 -153.286089 
L 163.450651 -152.537374 
L 162.655205 -151.907289 
L 161.859759 -151.152729 
L 161.064313 -150.152552 
L 160.268867 -149.15403 
L 159.473421 -148.396474 
L 158.677975 -147.366495 
L 157.882529 -146.667875 
L 157.087084 -145.88793 
L 156.291638 -145.2311 
L 155.496192 -144.52224 
L 154.700746 -143.901022 
L 153.9053 -143.325037 
L 153.109854 -142.923866 
L 152.314408 -142.557503 
L 151.518963 -142.238124 
L 150.723517 -142.217643 
L 149.928071 -141.912598 
L 149.132625 -141.938287 
L 148.337179 -142.013954 
L 147.541733 -142.097074 
L 146.746287 -142.267277 
L 145.950841 -142.392111 
L 145.155396 -142.870041 
L 144.35995 -142.94168 
L 143.564504 -143.452693 
L 142.769058 -143.890804 
L 141.973612 -144.436369 
L 141.178166 -144.790968 
L 140.38272 -145.214886 
L 139.587274 -145.958057 
L 138.791829 -146.567264 
L 137.996383 -146.794356 
L 137.200937 -147.502731 
L 136.405491 -147.805345 
L 135.610045 -148.296307 
L 134.814599 -148.695944 
L 134.019153 -148.874493 
L 133.223707 -149.17477 
L 132.428262 -149.350211 
L 131.632816 -149.806636 
L 130.83737 -149.623171 
L 130.041924 -149.593301 
L 129.246478 -149.672917 
L 128.451032 -149.44355 
L 127.655586 -149.091293 
L 126.860141 -148.494157 
L 126.064695 -148.383748 
L 125.269249 -148.037372 
L 124.473803 -147.532432 
L 123.678357 -147.059164 
L 122.882911 -146.801165 
L 122.087465 -146.380049 
L 121.292019 -146.430675 
L 120.496574 -146.101166 
L 119.701128 -146.299537 
L 118.905682 -146.062523 
z
" id="mcac480fd17" style="stroke:#808080;stroke-opacity:0.2;stroke-width:1.5;"/>
    </defs>
    <g clip-path="url(#p9a06ddf9af)">
     <use style="fill:#808080;fill-opacity:0.2;stroke:#808080;stroke-opacity:0.2;stroke-width:1.5;" x="0" xlink:href="#mcac480fd17" y="432"/>
    </g>
   </g>
   <g id="matplotlib.axis_1">
    <g id="xtick_1">
     <g id="line2d_1">
      <defs>
       <path d="M 0 0 
L 0 9 
" id="m633e6429cc" style="stroke:#000000;stroke-width:1.875;"/>
      </defs>
      <g>
       <use style="stroke:#000000;stroke-width:1.875;" x="118.905682" xlink:href="#m633e6429cc" y="363.06"/>
      </g>
     </g>
     <g id="text_1">
      <!-- 1 -->
      <defs>
       <path d="M 10.59375 35.5 
L 73.1875 35.5 
L 73.1875 27.203125 
L 10.59375 27.203125 
z
" id="DejaVuSans-8722"/>
       <path d="M 12.40625 8.296875 
L 28.515625 8.296875 
L 28.515625 63.921875 
L 10.984375 60.40625 
L 10.984375 69.390625 
L 28.421875 72.90625 
L 38.28125 72.90625 
L 38.28125 8.296875 
L 54.390625 8.296875 
L 54.390625 0 
L 12.40625 0 
z
" id="DejaVuSans-49"/>
      </defs>
      <g transform="translate(106.743377 388.097422)scale(0.165 -0.165)">
       <use xlink:href="#DejaVuSans-8722"/>
       <use x="83.789062" xlink:href="#DejaVuSans-49"/>
      </g>
     </g>
    </g>
    <g id="xtick_2">
     <g id="line2d_2">
      <g>
       <use style="stroke:#000000;stroke-width:1.875;" x="178.564122" xlink:href="#m633e6429cc" y="363.06"/>
      </g>
     </g>
     <g id="text_2">
      <!-- 0 -->
      <defs>
       <path d="M 31.78125 66.40625 
Q 24.171875 66.40625 20.328125 58.90625 
Q 16.5 51.421875 16.5 36.375 
Q 16.5 21.390625 20.328125 13.890625 
Q 24.171875 6.390625 31.78125 6.390625 
Q 39.453125 6.390625 43.28125 13.890625 
Q 47.125 21.390625 47.125 36.375 
Q 47.125 51.421875 43.28125 58.90625 
Q 39.453125 66.40625 31.78125 66.40625 
z
M 31.78125 74.21875 
Q 44.046875 74.21875 50.515625 64.515625 
Q 56.984375 54.828125 56.984375 36.375 
Q 56.984375 17.96875 50.515625 8.265625 
Q 44.046875 -1.421875 31.78125 -1.421875 
Q 19.53125 -1.421875 13.0625 8.265625 
Q 6.59375 17.96875 6.59375 36.375 
Q 6.59375 54.828125 13.0625 64.515625 
Q 19.53125 74.21875 31.78125 74.21875 
z
" id="DejaVuSans-48"/>
      </defs>
      <g transform="translate(173.31506 388.097422)scale(0.165 -0.165)">
       <use xlink:href="#DejaVuSans-48"/>
      </g>
     </g>
    </g>
    <g id="xtick_3">
     <g id="line2d_3">
      <g>
       <use style="stroke:#000000;stroke-width:1.875;" x="238.222562" xlink:href="#m633e6429cc" y="363.06"/>
      </g>
     </g>
     <g id="text_3">
      <!-- 1 -->
      <g transform="translate(232.9735 388.097422)scale(0.165 -0.165)">
       <use xlink:href="#DejaVuSans-49"/>
      </g>
     </g>
    </g>
    <g id="xtick_4">
     <g id="line2d_4">
      <g>
       <use style="stroke:#000000;stroke-width:1.875;" x="297.881003" xlink:href="#m633e6429cc" y="363.06"/>
      </g>
     </g>
     <g id="text_4">
      <!-- 2 -->
      <defs>
       <path d="M 19.1875 8.296875 
L 53.609375 8.296875 
L 53.609375 0 
L 7.328125 0 
L 7.328125 8.296875 
Q 12.9375 14.109375 22.625 23.890625 
Q 32.328125 33.6875 34.8125 36.53125 
Q 39.546875 41.84375 41.421875 45.53125 
Q 43.3125 49.21875 43.3125 52.78125 
Q 43.3125 58.59375 39.234375 62.25 
Q 35.15625 65.921875 28.609375 65.921875 
Q 23.96875 65.921875 18.8125 64.3125 
Q 13.671875 62.703125 7.8125 59.421875 
L 7.8125 69.390625 
Q 13.765625 71.78125 18.9375 73 
Q 24.125 74.21875 28.421875 74.21875 
Q 39.75 74.21875 46.484375 68.546875 
Q 53.21875 62.890625 53.21875 53.421875 
Q 53.21875 48.921875 51.53125 44.890625 
Q 49.859375 40.875 45.40625 35.40625 
Q 44.1875 33.984375 37.640625 27.21875 
Q 31.109375 20.453125 19.1875 8.296875 
z
" id="DejaVuSans-50"/>
      </defs>
      <g transform="translate(292.63194 388.097422)scale(0.165 -0.165)">
       <use xlink:href="#DejaVuSans-50"/>
      </g>
     </g>
    </g>
    <g id="xtick_5">
     <g id="line2d_5">
      <g>
       <use style="stroke:#000000;stroke-width:1.875;" x="357.539443" xlink:href="#m633e6429cc" y="363.06"/>
      </g>
     </g>
     <g id="text_5">
      <!-- 3 -->
      <defs>
       <path d="M 40.578125 39.3125 
Q 47.65625 37.796875 51.625 33 
Q 55.609375 28.21875 55.609375 21.1875 
Q 55.609375 10.40625 48.1875 4.484375 
Q 40.765625 -1.421875 27.09375 -1.421875 
Q 22.515625 -1.421875 17.65625 -0.515625 
Q 12.796875 0.390625 7.625 2.203125 
L 7.625 11.71875 
Q 11.71875 9.328125 16.59375 8.109375 
Q 21.484375 6.890625 26.8125 6.890625 
Q 36.078125 6.890625 40.9375 10.546875 
Q 45.796875 14.203125 45.796875 21.1875 
Q 45.796875 27.640625 41.28125 31.265625 
Q 36.765625 34.90625 28.71875 34.90625 
L 20.21875 34.90625 
L 20.21875 43.015625 
L 29.109375 43.015625 
Q 36.375 43.015625 40.234375 45.921875 
Q 44.09375 48.828125 44.09375 54.296875 
Q 44.09375 59.90625 40.109375 62.90625 
Q 36.140625 65.921875 28.71875 65.921875 
Q 24.65625 65.921875 20.015625 65.03125 
Q 15.375 64.15625 9.8125 62.3125 
L 9.8125 71.09375 
Q 15.4375 72.65625 20.34375 73.4375 
Q 25.25 74.21875 29.59375 74.21875 
Q 40.828125 74.21875 47.359375 69.109375 
Q 53.90625 64.015625 53.90625 55.328125 
Q 53.90625 49.265625 50.4375 45.09375 
Q 46.96875 40.921875 40.578125 39.3125 
z
" id="DejaVuSans-51"/>
      </defs>
      <g transform="translate(352.290381 388.097422)scale(0.165 -0.165)">
       <use xlink:href="#DejaVuSans-51"/>
      </g>
     </g>
    </g>
    <g id="xtick_6">
     <g id="line2d_6">
      <g>
       <use style="stroke:#000000;stroke-width:1.875;" x="417.197883" xlink:href="#m633e6429cc" y="363.06"/>
      </g>
     </g>
     <g id="text_6">
      <!-- 4 -->
      <defs>
       <path d="M 37.796875 64.3125 
L 12.890625 25.390625 
L 37.796875 25.390625 
z
M 35.203125 72.90625 
L 47.609375 72.90625 
L 47.609375 25.390625 
L 58.015625 25.390625 
L 58.015625 17.1875 
L 47.609375 17.1875 
L 47.609375 0 
L 37.796875 0 
L 37.796875 17.1875 
L 4.890625 17.1875 
L 4.890625 26.703125 
z
" id="DejaVuSans-52"/>
      </defs>
      <g transform="translate(411.948821 388.097422)scale(0.165 -0.165)">
       <use xlink:href="#DejaVuSans-52"/>
      </g>
     </g>
    </g>
    <g id="xtick_7">
     <g id="line2d_7">
      <g>
       <use style="stroke:#000000;stroke-width:1.875;" x="476.856324" xlink:href="#m633e6429cc" y="363.06"/>
      </g>
     </g>
     <g id="text_7">
      <!-- 5 -->
      <defs>
       <path d="M 10.796875 72.90625 
L 49.515625 72.90625 
L 49.515625 64.59375 
L 19.828125 64.59375 
L 19.828125 46.734375 
Q 21.96875 47.46875 24.109375 47.828125 
Q 26.265625 48.1875 28.421875 48.1875 
Q 40.625 48.1875 47.75 41.5 
Q 54.890625 34.8125 54.890625 23.390625 
Q 54.890625 11.625 47.5625 5.09375 
Q 40.234375 -1.421875 26.90625 -1.421875 
Q 22.3125 -1.421875 17.546875 -0.640625 
Q 12.796875 0.140625 7.71875 1.703125 
L 7.71875 11.625 
Q 12.109375 9.234375 16.796875 8.0625 
Q 21.484375 6.890625 26.703125 6.890625 
Q 35.15625 6.890625 40.078125 11.328125 
Q 45.015625 15.765625 45.015625 23.390625 
Q 45.015625 31 40.078125 35.4375 
Q 35.15625 39.890625 26.703125 39.890625 
Q 22.75 39.890625 18.8125 39.015625 
Q 14.890625 38.140625 10.796875 36.28125 
z
" id="DejaVuSans-53"/>
      </defs>
      <g transform="translate(471.607261 388.097422)scale(0.165 -0.165)">
       <use xlink:href="#DejaVuSans-53"/>
      </g>
     </g>
    </g>
    <g id="xtick_8">
     <g id="line2d_8">
      <g>
       <use style="stroke:#000000;stroke-width:1.875;" x="536.514764" xlink:href="#m633e6429cc" y="363.06"/>
      </g>
     </g>
     <g id="text_8">
      <!-- 6 -->
      <defs>
       <path d="M 33.015625 40.375 
Q 26.375 40.375 22.484375 35.828125 
Q 18.609375 31.296875 18.609375 23.390625 
Q 18.609375 15.53125 22.484375 10.953125 
Q 26.375 6.390625 33.015625 6.390625 
Q 39.65625 6.390625 43.53125 10.953125 
Q 47.40625 15.53125 47.40625 23.390625 
Q 47.40625 31.296875 43.53125 35.828125 
Q 39.65625 40.375 33.015625 40.375 
z
M 52.59375 71.296875 
L 52.59375 62.3125 
Q 48.875 64.0625 45.09375 64.984375 
Q 41.3125 65.921875 37.59375 65.921875 
Q 27.828125 65.921875 22.671875 59.328125 
Q 17.53125 52.734375 16.796875 39.40625 
Q 19.671875 43.65625 24.015625 45.921875 
Q 28.375 48.1875 33.59375 48.1875 
Q 44.578125 48.1875 50.953125 41.515625 
Q 57.328125 34.859375 57.328125 23.390625 
Q 57.328125 12.15625 50.6875 5.359375 
Q 44.046875 -1.421875 33.015625 -1.421875 
Q 20.359375 -1.421875 13.671875 8.265625 
Q 6.984375 17.96875 6.984375 36.375 
Q 6.984375 53.65625 15.1875 63.9375 
Q 23.390625 74.21875 37.203125 74.21875 
Q 40.921875 74.21875 44.703125 73.484375 
Q 48.484375 72.75 52.59375 71.296875 
z
" id="DejaVuSans-54"/>
      </defs>
      <g transform="translate(531.265702 388.097422)scale(0.165 -0.165)">
       <use xlink:href="#DejaVuSans-54"/>
      </g>
     </g>
    </g>
    <g id="text_9">
     <!-- Time (s) -->
     <defs>
      <path d="M -0.296875 72.90625 
L 61.375 72.90625 
L 61.375 64.59375 
L 35.5 64.59375 
L 35.5 0 
L 25.59375 0 
L 25.59375 64.59375 
L -0.296875 64.59375 
z
" id="DejaVuSans-84"/>
      <path d="M 9.421875 54.6875 
L 18.40625 54.6875 
L 18.40625 0 
L 9.421875 0 
z
M 9.421875 75.984375 
L 18.40625 75.984375 
L 18.40625 64.59375 
L 9.421875 64.59375 
z
" id="DejaVuSans-105"/>
      <path d="M 52 44.1875 
Q 55.375 50.25 60.0625 53.125 
Q 64.75 56 71.09375 56 
Q 79.640625 56 84.28125 50.015625 
Q 88.921875 44.046875 88.921875 33.015625 
L 88.921875 0 
L 79.890625 0 
L 79.890625 32.71875 
Q 79.890625 40.578125 77.09375 44.375 
Q 74.3125 48.1875 68.609375 48.1875 
Q 61.625 48.1875 57.5625 43.546875 
Q 53.515625 38.921875 53.515625 30.90625 
L 53.515625 0 
L 44.484375 0 
L 44.484375 32.71875 
Q 44.484375 40.625 41.703125 44.40625 
Q 38.921875 48.1875 33.109375 48.1875 
Q 26.21875 48.1875 22.15625 43.53125 
Q 18.109375 38.875 18.109375 30.90625 
L 18.109375 0 
L 9.078125 0 
L 9.078125 54.6875 
L 18.109375 54.6875 
L 18.109375 46.1875 
Q 21.1875 51.21875 25.484375 53.609375 
Q 29.78125 56 35.6875 56 
Q 41.65625 56 45.828125 52.96875 
Q 50 49.953125 52 44.1875 
z
" id="DejaVuSans-109"/>
      <path d="M 56.203125 29.59375 
L 56.203125 25.203125 
L 14.890625 25.203125 
Q 15.484375 15.921875 20.484375 11.0625 
Q 25.484375 6.203125 34.421875 6.203125 
Q 39.59375 6.203125 44.453125 7.46875 
Q 49.3125 8.734375 54.109375 11.28125 
L 54.109375 2.78125 
Q 49.265625 0.734375 44.1875 -0.34375 
Q 39.109375 -1.421875 33.890625 -1.421875 
Q 20.796875 -1.421875 13.15625 6.1875 
Q 5.515625 13.8125 5.515625 26.8125 
Q 5.515625 40.234375 12.765625 48.109375 
Q 20.015625 56 32.328125 56 
Q 43.359375 56 49.78125 48.890625 
Q 56.203125 41.796875 56.203125 29.59375 
z
M 47.21875 32.234375 
Q 47.125 39.59375 43.09375 43.984375 
Q 39.0625 48.390625 32.421875 48.390625 
Q 24.90625 48.390625 20.390625 44.140625 
Q 15.875 39.890625 15.1875 32.171875 
z
" id="DejaVuSans-101"/>
      <path id="DejaVuSans-32"/>
      <path d="M 31 75.875 
Q 24.46875 64.65625 21.28125 53.65625 
Q 18.109375 42.671875 18.109375 31.390625 
Q 18.109375 20.125 21.3125 9.0625 
Q 24.515625 -2 31 -13.1875 
L 23.1875 -13.1875 
Q 15.875 -1.703125 12.234375 9.375 
Q 8.59375 20.453125 8.59375 31.390625 
Q 8.59375 42.28125 12.203125 53.3125 
Q 15.828125 64.359375 23.1875 75.875 
z
" id="DejaVuSans-40"/>
      <path d="M 44.28125 53.078125 
L 44.28125 44.578125 
Q 40.484375 46.53125 36.375 47.5 
Q 32.28125 48.484375 27.875 48.484375 
Q 21.1875 48.484375 17.84375 46.4375 
Q 14.5 44.390625 14.5 40.28125 
Q 14.5 37.15625 16.890625 35.375 
Q 19.28125 33.59375 26.515625 31.984375 
L 29.59375 31.296875 
Q 39.15625 29.25 43.1875 25.515625 
Q 47.21875 21.78125 47.21875 15.09375 
Q 47.21875 7.46875 41.1875 3.015625 
Q 35.15625 -1.421875 24.609375 -1.421875 
Q 20.21875 -1.421875 15.453125 -0.5625 
Q 10.6875 0.296875 5.421875 2 
L 5.421875 11.28125 
Q 10.40625 8.6875 15.234375 7.390625 
Q 20.0625 6.109375 24.8125 6.109375 
Q 31.15625 6.109375 34.5625 8.28125 
Q 37.984375 10.453125 37.984375 14.40625 
Q 37.984375 18.0625 35.515625 20.015625 
Q 33.0625 21.96875 24.703125 23.78125 
L 21.578125 24.515625 
Q 13.234375 26.265625 9.515625 29.90625 
Q 5.8125 33.546875 5.8125 39.890625 
Q 5.8125 47.609375 11.28125 51.796875 
Q 16.75 56 26.8125 56 
Q 31.78125 56 36.171875 55.265625 
Q 40.578125 54.546875 44.28125 53.078125 
z
" id="DejaVuSans-115"/>
      <path d="M 8.015625 75.875 
L 15.828125 75.875 
Q 23.140625 64.359375 26.78125 53.3125 
Q 30.421875 42.28125 30.421875 31.390625 
Q 30.421875 20.453125 26.78125 9.375 
Q 23.140625 -1.703125 15.828125 -13.1875 
L 8.015625 -13.1875 
Q 14.5 -2 17.703125 9.0625 
Q 20.90625 20.125 20.90625 31.390625 
Q 20.90625 42.671875 17.703125 53.65625 
Q 14.5 64.65625 8.015625 75.875 
z
" id="DejaVuSans-41"/>
     </defs>
     <g transform="translate(290.443438 409.206094)scale(0.18 -0.18)">
      <use xlink:href="#DejaVuSans-84"/>
      <use x="61.037109" xlink:href="#DejaVuSans-105"/>
      <use x="88.820312" xlink:href="#DejaVuSans-109"/>
      <use x="186.232422" xlink:href="#DejaVuSans-101"/>
      <use x="247.755859" xlink:href="#DejaVuSans-32"/>
      <use x="279.542969" xlink:href="#DejaVuSans-40"/>
      <use x="318.556641" xlink:href="#DejaVuSans-115"/>
      <use x="370.65625" xlink:href="#DejaVuSans-41"/>
     </g>
    </g>
   </g>
   <g id="matplotlib.axis_2">
    <g id="ytick_1">
     <g id="line2d_9">
      <defs>
       <path d="M 0 0 
L -9 0 
" id="m65db2767d7" style="stroke:#000000;stroke-width:1.875;"/>
      </defs>
      <g>
       <use style="stroke:#000000;stroke-width:1.875;" x="98.065" xlink:href="#m65db2767d7" y="348.172933"/>
      </g>
     </g>
     <g id="text_10">
      <!-- 0.2 -->
      <defs>
       <path d="M 10.6875 12.40625 
L 21 12.40625 
L 21 0 
L 10.6875 0 
z
" id="DejaVuSans-46"/>
      </defs>
      <g transform="translate(45.498359 354.441643)scale(0.165 -0.165)">
       <use xlink:href="#DejaVuSans-8722"/>
       <use x="83.789062" xlink:href="#DejaVuSans-48"/>
       <use x="147.412109" xlink:href="#DejaVuSans-46"/>
       <use x="179.199219" xlink:href="#DejaVuSans-50"/>
      </g>
     </g>
    </g>
    <g id="ytick_2">
     <g id="line2d_10">
      <g>
       <use style="stroke:#000000;stroke-width:1.875;" x="98.065" xlink:href="#m65db2767d7" y="289.980955"/>
      </g>
     </g>
     <g id="text_11">
      <!-- 0.0 -->
      <g transform="translate(59.324844 296.249666)scale(0.165 -0.165)">
       <use xlink:href="#DejaVuSans-48"/>
       <use x="63.623047" xlink:href="#DejaVuSans-46"/>
       <use x="95.410156" xlink:href="#DejaVuSans-48"/>
      </g>
     </g>
    </g>
    <g id="ytick_3">
     <g id="line2d_11">
      <g>
       <use style="stroke:#000000;stroke-width:1.875;" x="98.065" xlink:href="#m65db2767d7" y="231.788978"/>
      </g>
     </g>
     <g id="text_12">
      <!-- 0.2 -->
      <g transform="translate(59.324844 238.057689)scale(0.165 -0.165)">
       <use xlink:href="#DejaVuSans-48"/>
       <use x="63.623047" xlink:href="#DejaVuSans-46"/>
       <use x="95.410156" xlink:href="#DejaVuSans-50"/>
      </g>
     </g>
    </g>
    <g id="ytick_4">
     <g id="line2d_12">
      <g>
       <use style="stroke:#000000;stroke-width:1.875;" x="98.065" xlink:href="#m65db2767d7" y="173.597"/>
      </g>
     </g>
     <g id="text_13">
      <!-- 0.4 -->
      <g transform="translate(59.324844 179.865711)scale(0.165 -0.165)">
       <use xlink:href="#DejaVuSans-48"/>
       <use x="63.623047" xlink:href="#DejaVuSans-46"/>
       <use x="95.410156" xlink:href="#DejaVuSans-52"/>
      </g>
     </g>
    </g>
    <g id="ytick_5">
     <g id="line2d_13">
      <g>
       <use style="stroke:#000000;stroke-width:1.875;" x="98.065" xlink:href="#m65db2767d7" y="115.405023"/>
      </g>
     </g>
     <g id="text_14">
      <!-- 0.6 -->
      <g transform="translate(59.324844 121.673734)scale(0.165 -0.165)">
       <use xlink:href="#DejaVuSans-48"/>
       <use x="63.623047" xlink:href="#DejaVuSans-46"/>
       <use x="95.410156" xlink:href="#DejaVuSans-54"/>
      </g>
     </g>
    </g>
    <g id="ytick_6">
     <g id="line2d_14">
      <g>
       <use style="stroke:#000000;stroke-width:1.875;" x="98.065" xlink:href="#m65db2767d7" y="57.213046"/>
      </g>
     </g>
     <g id="text_15">
      <!-- 0.8 -->
      <defs>
       <path d="M 31.78125 34.625 
Q 24.75 34.625 20.71875 30.859375 
Q 16.703125 27.09375 16.703125 20.515625 
Q 16.703125 13.921875 20.71875 10.15625 
Q 24.75 6.390625 31.78125 6.390625 
Q 38.8125 6.390625 42.859375 10.171875 
Q 46.921875 13.96875 46.921875 20.515625 
Q 46.921875 27.09375 42.890625 30.859375 
Q 38.875 34.625 31.78125 34.625 
z
M 21.921875 38.8125 
Q 15.578125 40.375 12.03125 44.71875 
Q 8.5 49.078125 8.5 55.328125 
Q 8.5 64.0625 14.71875 69.140625 
Q 20.953125 74.21875 31.78125 74.21875 
Q 42.671875 74.21875 48.875 69.140625 
Q 55.078125 64.0625 55.078125 55.328125 
Q 55.078125 49.078125 51.53125 44.71875 
Q 48 40.375 41.703125 38.8125 
Q 48.828125 37.15625 52.796875 32.3125 
Q 56.78125 27.484375 56.78125 20.515625 
Q 56.78125 9.90625 50.3125 4.234375 
Q 43.84375 -1.421875 31.78125 -1.421875 
Q 19.734375 -1.421875 13.25 4.234375 
Q 6.78125 9.90625 6.78125 20.515625 
Q 6.78125 27.484375 10.78125 32.3125 
Q 14.796875 37.15625 21.921875 38.8125 
z
M 18.3125 54.390625 
Q 18.3125 48.734375 21.84375 45.5625 
Q 25.390625 42.390625 31.78125 42.390625 
Q 38.140625 42.390625 41.71875 45.5625 
Q 45.3125 48.734375 45.3125 54.390625 
Q 45.3125 60.0625 41.71875 63.234375 
Q 38.140625 66.40625 31.78125 66.40625 
Q 25.390625 66.40625 21.84375 63.234375 
Q 18.3125 60.0625 18.3125 54.390625 
z
" id="DejaVuSans-56"/>
      </defs>
      <g transform="translate(59.324844 63.481757)scale(0.165 -0.165)">
       <use xlink:href="#DejaVuSans-48"/>
       <use x="63.623047" xlink:href="#DejaVuSans-46"/>
       <use x="95.410156" xlink:href="#DejaVuSans-56"/>
      </g>
     </g>
    </g>
    <g id="text_16">
     <!-- Mean $\beta$ -->
     <defs>
      <path d="M 9.8125 72.90625 
L 24.515625 72.90625 
L 43.109375 23.296875 
L 61.8125 72.90625 
L 76.515625 72.90625 
L 76.515625 0 
L 66.890625 0 
L 66.890625 64.015625 
L 48.09375 14.015625 
L 38.1875 14.015625 
L 19.390625 64.015625 
L 19.390625 0 
L 9.8125 0 
z
" id="DejaVuSans-77"/>
      <path d="M 34.28125 27.484375 
Q 23.390625 27.484375 19.1875 25 
Q 14.984375 22.515625 14.984375 16.5 
Q 14.984375 11.71875 18.140625 8.90625 
Q 21.296875 6.109375 26.703125 6.109375 
Q 34.1875 6.109375 38.703125 11.40625 
Q 43.21875 16.703125 43.21875 25.484375 
L 43.21875 27.484375 
z
M 52.203125 31.203125 
L 52.203125 0 
L 43.21875 0 
L 43.21875 8.296875 
Q 40.140625 3.328125 35.546875 0.953125 
Q 30.953125 -1.421875 24.3125 -1.421875 
Q 15.921875 -1.421875 10.953125 3.296875 
Q 6 8.015625 6 15.921875 
Q 6 25.140625 12.171875 29.828125 
Q 18.359375 34.515625 30.609375 34.515625 
L 43.21875 34.515625 
L 43.21875 35.40625 
Q 43.21875 41.609375 39.140625 45 
Q 35.0625 48.390625 27.6875 48.390625 
Q 23 48.390625 18.546875 47.265625 
Q 14.109375 46.140625 10.015625 43.890625 
L 10.015625 52.203125 
Q 14.9375 54.109375 19.578125 55.046875 
Q 24.21875 56 28.609375 56 
Q 40.484375 56 46.34375 49.84375 
Q 52.203125 43.703125 52.203125 31.203125 
z
" id="DejaVuSans-97"/>
      <path d="M 54.890625 33.015625 
L 54.890625 0 
L 45.90625 0 
L 45.90625 32.71875 
Q 45.90625 40.484375 42.875 44.328125 
Q 39.84375 48.1875 33.796875 48.1875 
Q 26.515625 48.1875 22.3125 43.546875 
Q 18.109375 38.921875 18.109375 30.90625 
L 18.109375 0 
L 9.078125 0 
L 9.078125 54.6875 
L 18.109375 54.6875 
L 18.109375 46.1875 
Q 21.34375 51.125 25.703125 53.5625 
Q 30.078125 56 35.796875 56 
Q 45.21875 56 50.046875 50.171875 
Q 54.890625 44.34375 54.890625 33.015625 
z
" id="DejaVuSans-110"/>
      <path d="M 13.625 3.375 
L 8.9375 -20.796875 
L -0.09375 -20.796875 
L 14.5 54.34375 
Q 18.84375 76.609375 39.65625 76.609375 
Q 60.75 76.609375 57.171875 57.8125 
Q 54.734375 44.4375 45.21875 39.546875 
Q 58.015625 35.15625 55.515625 22.125 
Q 51.125 -1.078125 27.484375 -1.03125 
Q 17.140625 -0.984375 13.625 3.375 
z
M 15.921875 15.09375 
Q 19.671875 6.59375 29.296875 6.640625 
Q 43.359375 6.640625 46.34375 21.96875 
Q 49.03125 35.75 26.171875 34.671875 
L 27.78125 42.96875 
Q 45.453125 42.671875 48.53125 58.59375 
Q 50.640625 69.34375 39.203125 69.28125 
Q 26.421875 69.28125 23.484375 54.046875 
z
" id="DejaVuSans-Oblique-946"/>
     </defs>
     <g transform="translate(37.718359 224.46)rotate(-90)scale(0.18 -0.18)">
      <use transform="translate(0 0.390625)" xlink:href="#DejaVuSans-77"/>
      <use transform="translate(86.279297 0.390625)" xlink:href="#DejaVuSans-101"/>
      <use transform="translate(147.802734 0.390625)" xlink:href="#DejaVuSans-97"/>
      <use transform="translate(209.082031 0.390625)" xlink:href="#DejaVuSans-110"/>
      <use transform="translate(272.460938 0.390625)" xlink:href="#DejaVuSans-32"/>
      <use transform="translate(304.248047 0.390625)" xlink:href="#DejaVuSans-Oblique-946"/>
     </g>
    </g>
   </g>
   <g id="line2d_15">
    <path clip-path="url(#p9a06ddf9af)" d="M 118.905682 295.986698 
L 121.292019 294.714052 
L 123.678357 293.716759 
L 126.064695 293.011479 
L 128.451032 292.538752 
L 132.428262 292.045473 
L 138.791829 291.333525 
L 141.178166 290.823112 
L 143.564504 290.033169 
L 145.950841 288.968087 
L 149.928071 287.053448 
L 151.518963 286.478636 
L 153.109854 286.123391 
L 154.700746 286.019635 
L 156.291638 286.158214 
L 157.882529 286.494726 
L 161.064313 287.491964 
L 165.041542 288.715372 
L 167.42788 289.222805 
L 169.814218 289.509824 
L 172.200555 289.574043 
L 174.586893 289.439556 
L 178.564122 288.926356 
L 183.336797 288.285339 
L 186.518581 288.114846 
L 188.904918 288.191009 
L 191.291256 288.458689 
L 193.677594 288.943128 
L 196.063931 289.697662 
L 198.450269 290.780778 
L 200.836607 292.201786 
L 204.01839 294.463728 
L 207.995619 297.270635 
L 210.381957 298.602034 
L 211.972849 299.265306 
L 213.56374 299.740518 
L 215.950078 300.149854 
L 222.313645 300.811808 
L 224.699983 301.465931 
L 227.08632 302.425977 
L 234.245333 305.613251 
L 244.586129 309.521112 
L 248.563359 311.07742 
L 251.745142 312.093768 
L 254.926926 312.883937 
L 258.108709 313.438481 
L 261.290493 313.719119 
L 264.472276 313.728793 
L 268.449506 313.471572 
L 273.222181 312.922935 
L 275.608518 312.482076 
L 277.994856 311.819688 
L 280.381194 310.895933 
L 287.540206 307.801402 
L 289.131098 307.414894 
L 290.72199 307.224331 
L 292.312882 307.243077 
L 293.903773 307.476077 
L 295.494665 307.92266 
L 297.085557 308.576902 
L 298.676449 309.429332 
L 300.26734 310.468481 
L 302.653678 312.353798 
L 305.040016 314.59953 
L 307.426353 317.146634 
L 313.78992 324.223153 
L 315.380812 325.683359 
L 316.971704 326.887614 
L 318.562595 327.794283 
L 320.153487 328.379808 
L 321.744379 328.635868 
L 323.335271 328.564336 
L 324.926162 328.171007 
L 326.517054 327.460786 
L 328.107946 326.433449 
L 329.698838 325.082244 
L 331.289729 323.396121 
L 332.880621 321.365935 
L 334.471513 318.993745 
L 336.062405 316.301916 
L 338.448742 311.777752 
L 347.994093 292.7868 
L 351.175876 287.336807 
L 354.35766 282.367177 
L 361.516672 271.487034 
L 363.90301 267.338794 
L 366.289348 262.765024 
L 369.471131 256.061142 
L 373.448361 246.997757 
L 386.97094 215.102938 
L 395.720845 193.771301 
L 398.902628 186.85735 
L 403.675304 177.223758 
L 408.447979 167.433712 
L 413.220654 157.095551 
L 417.993329 146.243662 
L 427.53868 123.952735 
L 429.925017 119.098977 
L 432.311355 114.714674 
L 434.697693 110.758297 
L 437.08403 107.160722 
L 440.265814 102.771181 
L 445.038489 96.613918 
L 449.015718 91.773088 
L 451.402056 89.235575 
L 452.992948 87.826159 
L 454.583839 86.715724 
L 456.174731 85.95438 
L 457.765623 85.574618 
L 459.356515 85.588785 
L 460.947406 85.989474 
L 462.538298 86.750892 
L 464.12919 87.830646 
L 465.720082 89.171144 
L 468.106419 91.512014 
L 472.879094 96.359792 
L 475.265432 98.361193 
L 476.856324 99.419808 
L 478.447215 100.22779 
L 480.038107 100.777708 
L 481.628999 101.081075 
L 483.219891 101.171036 
L 485.606228 101.036202 
L 488.788012 100.794309 
L 490.378904 100.849838 
L 491.969795 101.120423 
L 493.560687 101.646284 
L 495.151579 102.435682 
L 496.742471 103.466286 
L 499.128808 105.357904 
L 504.696929 110.347209 
L 509.469604 114.413661 
L 513.446834 117.83606 
L 516.628617 120.896369 
L 519.014955 123.515747 
L 521.401293 126.490088 
L 523.78763 129.835154 
L 526.969414 134.755922 
L 533.332981 145.192782 
L 535.719318 149.218991 
L 535.719318 149.218991 
" style="fill:none;stroke:#808080;stroke-linecap:square;stroke-width:2.25;"/>
   </g>
   <g id="line2d_16">
    <path clip-path="url(#p9a06ddf9af)" d="M 118.905682 294.128477 
L 122.882911 292.053948 
L 125.269249 291.096066 
L 126.860141 290.658143 
L 128.451032 290.38942 
L 130.041924 290.281601 
L 132.428262 290.398663 
L 134.814599 290.834125 
L 137.200937 291.561384 
L 144.35995 294.103756 
L 145.950841 294.354112 
L 147.541733 294.399081 
L 149.132625 294.230317 
L 150.723517 293.849858 
L 152.314408 293.263397 
L 153.9053 292.478381 
L 155.496192 291.507756 
L 157.882529 289.763636 
L 163.450651 285.446771 
L 165.041542 284.542987 
L 166.632434 283.935161 
L 168.223326 283.665295 
L 169.814218 283.738029 
L 171.405109 284.121581 
L 172.996001 284.754904 
L 175.382339 286.005798 
L 183.336797 290.727506 
L 186.518581 292.798586 
L 189.700364 295.136471 
L 193.677594 298.046038 
L 195.268485 298.962806 
L 196.859377 299.601315 
L 198.450269 299.887216 
L 200.041161 299.775686 
L 201.632052 299.257357 
L 203.222944 298.360289 
L 204.813836 297.146693 
L 207.200173 294.938745 
L 210.381957 291.886479 
L 211.972849 290.576421 
L 213.56374 289.53002 
L 215.154632 288.79446 
L 216.745524 288.379479 
L 218.336416 288.264858 
L 219.927307 288.412028 
L 221.518199 288.776112 
L 223.904537 289.636721 
L 226.290874 290.767182 
L 233.449887 294.468545 
L 235.040779 295.032736 
L 236.631671 295.410381 
L 238.222562 295.600227 
L 240.6089 295.611395 
L 245.381575 295.493379 
L 247.767913 295.76679 
L 250.154251 296.314323 
L 258.904155 298.668375 
L 261.290493 299.338622 
L 263.67683 300.279392 
L 266.063168 301.564108 
L 272.426735 305.4374 
L 274.017627 306.063846 
L 275.608518 306.436506 
L 277.19941 306.556479 
L 278.790302 306.459634 
L 281.176639 306.046396 
L 285.153869 305.266064 
L 287.540206 305.091834 
L 289.926544 305.255491 
L 296.290111 306.210432 
L 297.881003 306.131688 
L 299.471895 305.81275 
L 301.062786 305.265928 
L 303.449124 304.146244 
L 307.426353 302.209543 
L 309.017245 301.638422 
L 310.608137 301.248753 
L 312.199028 301.043782 
L 314.585366 301.027697 
L 322.539825 301.435727 
L 324.926162 301.111712 
L 327.3125 300.462202 
L 328.903392 299.836694 
L 330.494283 299.041957 
L 332.085175 298.057789 
L 333.676067 296.861352 
L 335.266959 295.432982 
L 336.85785 293.762178 
L 338.448742 291.850219 
L 340.83508 288.555607 
L 343.221417 284.792908 
L 345.607755 280.589932 
L 347.994093 275.945614 
L 351.175876 269.116498 
L 357.539443 254.903668 
L 359.925781 250.24709 
L 362.312118 246.205803 
L 365.493902 241.490462 
L 368.675685 236.762456 
L 371.062023 232.680703 
L 372.652915 229.579843 
L 375.039252 224.339734 
L 377.42559 218.510901 
L 387.766386 192.338857 
L 390.94817 185.268258 
L 397.311737 171.311705 
L 399.698074 165.454537 
L 402.084412 158.956306 
L 404.470749 151.738011 
L 407.652533 141.123613 
L 413.220654 121.905393 
L 415.606992 114.590534 
L 417.197883 110.295622 
L 418.788775 106.501891 
L 420.379667 103.175996 
L 421.970559 100.239472 
L 424.356896 96.343626 
L 427.53868 91.64188 
L 431.515909 86.113074 
L 435.493138 80.934412 
L 438.674922 77.114593 
L 441.06126 74.566919 
L 442.652151 73.097605 
L 444.243043 71.853323 
L 445.833935 70.848865 
L 447.424827 70.074469 
L 449.015718 69.499297 
L 451.402056 68.912566 
L 454.583839 68.406709 
L 461.742852 67.532146 
L 464.924636 67.336659 
L 468.106419 67.351095 
L 472.083649 67.596015 
L 475.265432 67.991833 
L 477.65177 68.481017 
L 480.038107 69.159671 
L 484.015337 70.561897 
L 491.174349 73.297841 
L 493.560687 74.45716 
L 495.151579 75.403165 
L 496.742471 76.538303 
L 498.333362 77.906956 
L 499.924254 79.550728 
L 501.515146 81.500287 
L 503.106037 83.767942 
L 504.696929 86.342965 
L 507.083267 90.703435 
L 510.26505 97.171373 
L 515.037726 107.525099 
L 522.196738 123.117142 
L 526.969414 132.91144 
L 531.742089 142.165343 
L 534.923872 147.911566 
L 535.719318 149.266051 
L 535.719318 149.266051 
" style="fill:none;stroke:#808080;stroke-dasharray:9,3.375;stroke-dashoffset:0;stroke-width:2.25;"/>
   </g>
   <g id="line2d_17"/>
   <g id="line2d_18"/>
   <g id="line2d_19"/>
   <g id="line2d_20">
    <path clip-path="url(#p9a06ddf9af)" d="M 98.065 289.980955 
L 556.56 289.980955 
" style="fill:none;stroke:#808080;stroke-dasharray:8.325,3.6;stroke-dashoffset:0;stroke-width:2.25;"/>
   </g>
   <g id="line2d_21">
    <path clip-path="url(#p9a06ddf9af)" d="M 178.564122 363.06 
L 178.564122 19.44 
" style="fill:none;stroke:#000000;stroke-dasharray:8.325,3.6;stroke-dashoffset:0;stroke-width:2.25;"/>
   </g>
   <g id="line2d_22">
    <path clip-path="url(#p9a06ddf9af)" d="M 98.065 289.980955 
L 556.56 289.980955 
" style="fill:none;stroke:#808080;stroke-dasharray:8.325,3.6;stroke-dashoffset:0;stroke-width:2.25;"/>
   </g>
   <g id="line2d_23">
    <path clip-path="url(#p9a06ddf9af)" d="M 178.564122 363.06 
L 178.564122 19.44 
" style="fill:none;stroke:#000000;stroke-dasharray:8.325,3.6;stroke-dashoffset:0;stroke-width:2.25;"/>
   </g>
   <g id="patch_3">
    <path d="M 98.065 363.06 
L 98.065 19.44 
" style="fill:none;stroke:#000000;stroke-linecap:square;stroke-linejoin:miter;stroke-width:1.875;"/>
   </g>
   <g id="patch_4">
    <path d="M 98.065 363.06 
L 556.56 363.06 
" style="fill:none;stroke:#000000;stroke-linecap:square;stroke-linejoin:miter;stroke-width:1.875;"/>
   </g>
   <g id="legend_1">
    <g id="patch_5">
     <path d="M 430.301484 230.053359 
L 545.01 230.053359 
Q 548.31 230.053359 548.31 226.753359 
L 548.31 155.746641 
Q 548.31 152.446641 545.01 152.446641 
L 430.301484 152.446641 
Q 427.001484 152.446641 427.001484 155.746641 
L 427.001484 226.753359 
Q 427.001484 230.053359 430.301484 230.053359 
z
" style="fill:#ffffff;opacity:0.8;stroke:#cccccc;stroke-linejoin:miter;stroke-width:1.5;"/>
    </g>
    <g id="line2d_24">
     <path d="M 433.601484 165.809063 
L 466.601484 165.809063 
" style="fill:none;"/>
    </g>
    <g id="line2d_25"/>
    <g id="text_17">
     <!-- Arousal -->
     <defs>
      <path d="M 34.1875 63.1875 
L 20.796875 26.90625 
L 47.609375 26.90625 
z
M 28.609375 72.90625 
L 39.796875 72.90625 
L 67.578125 0 
L 57.328125 0 
L 50.6875 18.703125 
L 17.828125 18.703125 
L 11.1875 0 
L 0.78125 0 
z
" id="DejaVuSans-65"/>
      <path d="M 41.109375 46.296875 
Q 39.59375 47.171875 37.8125 47.578125 
Q 36.03125 48 33.890625 48 
Q 26.265625 48 22.1875 43.046875 
Q 18.109375 38.09375 18.109375 28.8125 
L 18.109375 0 
L 9.078125 0 
L 9.078125 54.6875 
L 18.109375 54.6875 
L 18.109375 46.1875 
Q 20.953125 51.171875 25.484375 53.578125 
Q 30.03125 56 36.53125 56 
Q 37.453125 56 38.578125 55.875 
Q 39.703125 55.765625 41.0625 55.515625 
z
" id="DejaVuSans-114"/>
      <path d="M 30.609375 48.390625 
Q 23.390625 48.390625 19.1875 42.75 
Q 14.984375 37.109375 14.984375 27.296875 
Q 14.984375 17.484375 19.15625 11.84375 
Q 23.34375 6.203125 30.609375 6.203125 
Q 37.796875 6.203125 41.984375 11.859375 
Q 46.1875 17.53125 46.1875 27.296875 
Q 46.1875 37.015625 41.984375 42.703125 
Q 37.796875 48.390625 30.609375 48.390625 
z
M 30.609375 56 
Q 42.328125 56 49.015625 48.375 
Q 55.71875 40.765625 55.71875 27.296875 
Q 55.71875 13.875 49.015625 6.21875 
Q 42.328125 -1.421875 30.609375 -1.421875 
Q 18.84375 -1.421875 12.171875 6.21875 
Q 5.515625 13.875 5.515625 27.296875 
Q 5.515625 40.765625 12.171875 48.375 
Q 18.84375 56 30.609375 56 
z
" id="DejaVuSans-111"/>
      <path d="M 8.5 21.578125 
L 8.5 54.6875 
L 17.484375 54.6875 
L 17.484375 21.921875 
Q 17.484375 14.15625 20.5 10.265625 
Q 23.53125 6.390625 29.59375 6.390625 
Q 36.859375 6.390625 41.078125 11.03125 
Q 45.3125 15.671875 45.3125 23.6875 
L 45.3125 54.6875 
L 54.296875 54.6875 
L 54.296875 0 
L 45.3125 0 
L 45.3125 8.40625 
Q 42.046875 3.421875 37.71875 1 
Q 33.40625 -1.421875 27.6875 -1.421875 
Q 18.265625 -1.421875 13.375 4.4375 
Q 8.5 10.296875 8.5 21.578125 
z
M 31.109375 56 
z
" id="DejaVuSans-117"/>
      <path d="M 9.421875 75.984375 
L 18.40625 75.984375 
L 18.40625 0 
L 9.421875 0 
z
" id="DejaVuSans-108"/>
     </defs>
     <g transform="translate(479.801484 171.584063)scale(0.165 -0.165)">
      <use xlink:href="#DejaVuSans-65"/>
      <use x="68.408203" xlink:href="#DejaVuSans-114"/>
      <use x="109.490234" xlink:href="#DejaVuSans-111"/>
      <use x="170.671875" xlink:href="#DejaVuSans-117"/>
      <use x="234.050781" xlink:href="#DejaVuSans-115"/>
      <use x="286.150391" xlink:href="#DejaVuSans-97"/>
      <use x="347.429688" xlink:href="#DejaVuSans-108"/>
     </g>
    </g>
    <g id="line2d_26">
     <path d="M 433.601484 190.027969 
L 466.601484 190.027969 
" style="fill:none;stroke:#808080;stroke-linecap:square;stroke-width:2.25;"/>
    </g>
    <g id="line2d_27"/>
    <g id="text_18">
     <!-- High -->
     <defs>
      <path d="M 9.8125 72.90625 
L 19.671875 72.90625 
L 19.671875 43.015625 
L 55.515625 43.015625 
L 55.515625 72.90625 
L 65.375 72.90625 
L 65.375 0 
L 55.515625 0 
L 55.515625 34.71875 
L 19.671875 34.71875 
L 19.671875 0 
L 9.8125 0 
z
" id="DejaVuSans-72"/>
      <path d="M 45.40625 27.984375 
Q 45.40625 37.75 41.375 43.109375 
Q 37.359375 48.484375 30.078125 48.484375 
Q 22.859375 48.484375 18.828125 43.109375 
Q 14.796875 37.75 14.796875 27.984375 
Q 14.796875 18.265625 18.828125 12.890625 
Q 22.859375 7.515625 30.078125 7.515625 
Q 37.359375 7.515625 41.375 12.890625 
Q 45.40625 18.265625 45.40625 27.984375 
z
M 54.390625 6.78125 
Q 54.390625 -7.171875 48.1875 -13.984375 
Q 42 -20.796875 29.203125 -20.796875 
Q 24.46875 -20.796875 20.265625 -20.09375 
Q 16.0625 -19.390625 12.109375 -17.921875 
L 12.109375 -9.1875 
Q 16.0625 -11.328125 19.921875 -12.34375 
Q 23.78125 -13.375 27.78125 -13.375 
Q 36.625 -13.375 41.015625 -8.765625 
Q 45.40625 -4.15625 45.40625 5.171875 
L 45.40625 9.625 
Q 42.625 4.78125 38.28125 2.390625 
Q 33.9375 0 27.875 0 
Q 17.828125 0 11.671875 7.65625 
Q 5.515625 15.328125 5.515625 27.984375 
Q 5.515625 40.671875 11.671875 48.328125 
Q 17.828125 56 27.875 56 
Q 33.9375 56 38.28125 53.609375 
Q 42.625 51.21875 45.40625 46.390625 
L 45.40625 54.6875 
L 54.390625 54.6875 
z
" id="DejaVuSans-103"/>
      <path d="M 54.890625 33.015625 
L 54.890625 0 
L 45.90625 0 
L 45.90625 32.71875 
Q 45.90625 40.484375 42.875 44.328125 
Q 39.84375 48.1875 33.796875 48.1875 
Q 26.515625 48.1875 22.3125 43.546875 
Q 18.109375 38.921875 18.109375 30.90625 
L 18.109375 0 
L 9.078125 0 
L 9.078125 75.984375 
L 18.109375 75.984375 
L 18.109375 46.1875 
Q 21.34375 51.125 25.703125 53.5625 
Q 30.078125 56 35.796875 56 
Q 45.21875 56 50.046875 50.171875 
Q 54.890625 44.34375 54.890625 33.015625 
z
" id="DejaVuSans-104"/>
     </defs>
     <g transform="translate(479.801484 195.802969)scale(0.165 -0.165)">
      <use xlink:href="#DejaVuSans-72"/>
      <use x="75.195312" xlink:href="#DejaVuSans-105"/>
      <use x="102.978516" xlink:href="#DejaVuSans-103"/>
      <use x="166.455078" xlink:href="#DejaVuSans-104"/>
     </g>
    </g>
    <g id="line2d_28">
     <path d="M 433.601484 214.246875 
L 466.601484 214.246875 
" style="fill:none;stroke:#808080;stroke-dasharray:9,3.375;stroke-dashoffset:0;stroke-width:2.25;"/>
    </g>
    <g id="line2d_29"/>
    <g id="text_19">
     <!-- Low -->
     <defs>
      <path d="M 9.8125 72.90625 
L 19.671875 72.90625 
L 19.671875 8.296875 
L 55.171875 8.296875 
L 55.171875 0 
L 9.8125 0 
z
" id="DejaVuSans-76"/>
      <path d="M 4.203125 54.6875 
L 13.1875 54.6875 
L 24.421875 12.015625 
L 35.59375 54.6875 
L 46.1875 54.6875 
L 57.421875 12.015625 
L 68.609375 54.6875 
L 77.59375 54.6875 
L 63.28125 0 
L 52.6875 0 
L 40.921875 44.828125 
L 29.109375 0 
L 18.5 0 
z
" id="DejaVuSans-119"/>
     </defs>
     <g transform="translate(479.801484 220.021875)scale(0.165 -0.165)">
      <use xlink:href="#DejaVuSans-76"/>
      <use x="55.697266" xlink:href="#DejaVuSans-111"/>
      <use x="116.878906" xlink:href="#DejaVuSans-119"/>
     </g>
    </g>
   </g>
  </g>
 </g>
 <defs>
  <clipPath id="p9a06ddf9af">
   <rect height="343.62" width="458.495" x="98.065" y="19.44"/>
  </clipPath>
 </defs>
</svg>
