<?xml version="1.0" encoding="utf-8" standalone="no"?>
<!DOCTYPE svg PUBLIC "-//W3C//DTD SVG 1.1//EN"
  "http://www.w3.org/Graphics/SVG/1.1/DTD/svg11.dtd">
<!-- Created with matplotlib (https://matplotlib.org/) -->
<svg height="288pt" version="1.1" viewBox="0 0 288 288" width="288pt" xmlns="http://www.w3.org/2000/svg" xmlns:xlink="http://www.w3.org/1999/xlink">
 <defs>
  <style type="text/css">
*{stroke-linecap:butt;stroke-linejoin:round;}
  </style>
 </defs>
 <g id="figure_1">
  <g id="patch_1">
   <path d="M 0 288 
L 288 288 
L 288 0 
L 0 0 
z
" style="fill:#ffffff;"/>
  </g>
  <g id="axes_1">
   <g id="patch_2">
    <path d="M 44.793 247.332 
L 277.632 247.332 
L 277.632 23.368 
L 44.793 23.368 
z
" style="fill:#ffffff;"/>
   </g>
   <g id="matplotlib.axis_1">
    <g id="xtick_1">
     <g id="line2d_1">
      <defs>
       <path d="M 0 0 
L 0 4.8 
" id="m21f396c57f" style="stroke:#262626;"/>
      </defs>
      <g>
       <use style="fill:#262626;stroke:#262626;" x="55.376591" xlink:href="#m21f396c57f" y="247.332"/>
      </g>
     </g>
     <g id="text_1">
      <!-- −1 -->
      <defs>
       <path d="M 52.828125 31.203125 
L 5.5625 31.203125 
L 5.5625 39.40625 
L 52.828125 39.40625 
z
" id="ArialMT-8722"/>
       <path d="M 37.25 0 
L 28.46875 0 
L 28.46875 56 
Q 25.296875 52.984375 20.140625 49.953125 
Q 14.984375 46.921875 10.890625 45.40625 
L 10.890625 53.90625 
Q 18.265625 57.375 23.78125 62.296875 
Q 29.296875 67.234375 31.59375 71.875 
L 37.25 71.875 
z
" id="ArialMT-49"/>
      </defs>
      <g style="fill:#262626;" transform="translate(50.359903 261.930875)scale(0.088 -0.088)">
       <use xlink:href="#ArialMT-8722"/>
       <use x="58.398438" xlink:href="#ArialMT-49"/>
      </g>
     </g>
    </g>
    <g id="xtick_2">
     <g id="line2d_2">
      <g>
       <use style="fill:#262626;stroke:#262626;" x="86.504799" xlink:href="#m21f396c57f" y="247.332"/>
      </g>
     </g>
     <g id="text_2">
      <!-- 0 -->
      <defs>
       <path d="M 4.15625 35.296875 
Q 4.15625 48 6.765625 55.734375 
Q 9.375 63.484375 14.515625 67.671875 
Q 19.671875 71.875 27.484375 71.875 
Q 33.25 71.875 37.59375 69.546875 
Q 41.9375 67.234375 44.765625 62.859375 
Q 47.609375 58.5 49.21875 52.21875 
Q 50.828125 45.953125 50.828125 35.296875 
Q 50.828125 22.703125 48.234375 14.96875 
Q 45.65625 7.234375 40.5 3 
Q 35.359375 -1.21875 27.484375 -1.21875 
Q 17.140625 -1.21875 11.234375 6.203125 
Q 4.15625 15.140625 4.15625 35.296875 
z
M 13.1875 35.296875 
Q 13.1875 17.671875 17.3125 11.828125 
Q 21.4375 6 27.484375 6 
Q 33.546875 6 37.671875 11.859375 
Q 41.796875 17.71875 41.796875 35.296875 
Q 41.796875 52.984375 37.671875 58.78125 
Q 33.546875 64.59375 27.390625 64.59375 
Q 21.34375 64.59375 17.71875 59.46875 
Q 13.1875 52.9375 13.1875 35.296875 
z
" id="ArialMT-48"/>
      </defs>
      <g style="fill:#262626;" transform="translate(84.057987 261.930875)scale(0.088 -0.088)">
       <use xlink:href="#ArialMT-48"/>
      </g>
     </g>
    </g>
    <g id="xtick_3">
     <g id="line2d_3">
      <g>
       <use style="fill:#262626;stroke:#262626;" x="117.633008" xlink:href="#m21f396c57f" y="247.332"/>
      </g>
     </g>
     <g id="text_3">
      <!-- 1 -->
      <g style="fill:#262626;" transform="translate(115.186196 261.930875)scale(0.088 -0.088)">
       <use xlink:href="#ArialMT-49"/>
      </g>
     </g>
    </g>
    <g id="xtick_4">
     <g id="line2d_4">
      <g>
       <use style="fill:#262626;stroke:#262626;" x="148.761217" xlink:href="#m21f396c57f" y="247.332"/>
      </g>
     </g>
     <g id="text_4">
      <!-- 2 -->
      <defs>
       <path d="M 50.34375 8.453125 
L 50.34375 0 
L 3.03125 0 
Q 2.9375 3.171875 4.046875 6.109375 
Q 5.859375 10.9375 9.828125 15.625 
Q 13.8125 20.3125 21.34375 26.46875 
Q 33.015625 36.03125 37.109375 41.625 
Q 41.21875 47.21875 41.21875 52.203125 
Q 41.21875 57.421875 37.46875 61 
Q 33.734375 64.59375 27.734375 64.59375 
Q 21.390625 64.59375 17.578125 60.78125 
Q 13.765625 56.984375 13.71875 50.25 
L 4.6875 51.171875 
Q 5.609375 61.28125 11.65625 66.578125 
Q 17.71875 71.875 27.9375 71.875 
Q 38.234375 71.875 44.234375 66.15625 
Q 50.25 60.453125 50.25 52 
Q 50.25 47.703125 48.484375 43.546875 
Q 46.734375 39.40625 42.65625 34.8125 
Q 38.578125 30.21875 29.109375 22.21875 
Q 21.1875 15.578125 18.9375 13.203125 
Q 16.703125 10.84375 15.234375 8.453125 
z
" id="ArialMT-50"/>
      </defs>
      <g style="fill:#262626;" transform="translate(146.314404 261.930875)scale(0.088 -0.088)">
       <use xlink:href="#ArialMT-50"/>
      </g>
     </g>
    </g>
    <g id="xtick_5">
     <g id="line2d_5">
      <g>
       <use style="fill:#262626;stroke:#262626;" x="179.889425" xlink:href="#m21f396c57f" y="247.332"/>
      </g>
     </g>
     <g id="text_5">
      <!-- 3 -->
      <defs>
       <path d="M 4.203125 18.890625 
L 12.984375 20.0625 
Q 14.5 12.59375 18.140625 9.296875 
Q 21.78125 6 27 6 
Q 33.203125 6 37.46875 10.296875 
Q 41.75 14.59375 41.75 20.953125 
Q 41.75 27 37.796875 30.921875 
Q 33.84375 34.859375 27.734375 34.859375 
Q 25.25 34.859375 21.53125 33.890625 
L 22.515625 41.609375 
Q 23.390625 41.5 23.921875 41.5 
Q 29.546875 41.5 34.03125 44.421875 
Q 38.53125 47.359375 38.53125 53.46875 
Q 38.53125 58.296875 35.25 61.46875 
Q 31.984375 64.65625 26.8125 64.65625 
Q 21.6875 64.65625 18.265625 61.421875 
Q 14.84375 58.203125 13.875 51.765625 
L 5.078125 53.328125 
Q 6.6875 62.15625 12.390625 67.015625 
Q 18.109375 71.875 26.609375 71.875 
Q 32.46875 71.875 37.390625 69.359375 
Q 42.328125 66.84375 44.9375 62.5 
Q 47.5625 58.15625 47.5625 53.265625 
Q 47.5625 48.640625 45.0625 44.828125 
Q 42.578125 41.015625 37.703125 38.765625 
Q 44.046875 37.3125 47.5625 32.6875 
Q 51.078125 28.078125 51.078125 21.140625 
Q 51.078125 11.765625 44.234375 5.25 
Q 37.40625 -1.265625 26.953125 -1.265625 
Q 17.53125 -1.265625 11.296875 4.34375 
Q 5.078125 9.96875 4.203125 18.890625 
z
" id="ArialMT-51"/>
      </defs>
      <g style="fill:#262626;" transform="translate(177.442613 261.930875)scale(0.088 -0.088)">
       <use xlink:href="#ArialMT-51"/>
      </g>
     </g>
    </g>
    <g id="xtick_6">
     <g id="line2d_6">
      <g>
       <use style="fill:#262626;stroke:#262626;" x="211.017634" xlink:href="#m21f396c57f" y="247.332"/>
      </g>
     </g>
     <g id="text_6">
      <!-- 4 -->
      <defs>
       <path d="M 32.328125 0 
L 32.328125 17.140625 
L 1.265625 17.140625 
L 1.265625 25.203125 
L 33.9375 71.578125 
L 41.109375 71.578125 
L 41.109375 25.203125 
L 50.78125 25.203125 
L 50.78125 17.140625 
L 41.109375 17.140625 
L 41.109375 0 
z
M 32.328125 25.203125 
L 32.328125 57.46875 
L 9.90625 25.203125 
z
" id="ArialMT-52"/>
      </defs>
      <g style="fill:#262626;" transform="translate(208.570821 261.930875)scale(0.088 -0.088)">
       <use xlink:href="#ArialMT-52"/>
      </g>
     </g>
    </g>
    <g id="xtick_7">
     <g id="line2d_7">
      <g>
       <use style="fill:#262626;stroke:#262626;" x="242.145842" xlink:href="#m21f396c57f" y="247.332"/>
      </g>
     </g>
     <g id="text_7">
      <!-- 5 -->
      <defs>
       <path d="M 4.15625 18.75 
L 13.375 19.53125 
Q 14.40625 12.796875 18.140625 9.390625 
Q 21.875 6 27.15625 6 
Q 33.5 6 37.890625 10.78125 
Q 42.28125 15.578125 42.28125 23.484375 
Q 42.28125 31 38.0625 35.34375 
Q 33.84375 39.703125 27 39.703125 
Q 22.75 39.703125 19.328125 37.765625 
Q 15.921875 35.84375 13.96875 32.765625 
L 5.71875 33.84375 
L 12.640625 70.609375 
L 48.25 70.609375 
L 48.25 62.203125 
L 19.671875 62.203125 
L 15.828125 42.96875 
Q 22.265625 47.46875 29.34375 47.46875 
Q 38.71875 47.46875 45.15625 40.96875 
Q 51.609375 34.46875 51.609375 24.265625 
Q 51.609375 14.546875 45.953125 7.46875 
Q 39.0625 -1.21875 27.15625 -1.21875 
Q 17.390625 -1.21875 11.203125 4.25 
Q 5.03125 9.71875 4.15625 18.75 
z
" id="ArialMT-53"/>
      </defs>
      <g style="fill:#262626;" transform="translate(239.69903 261.930875)scale(0.088 -0.088)">
       <use xlink:href="#ArialMT-53"/>
      </g>
     </g>
    </g>
    <g id="xtick_8">
     <g id="line2d_8">
      <g>
       <use style="fill:#262626;stroke:#262626;" x="273.274051" xlink:href="#m21f396c57f" y="247.332"/>
      </g>
     </g>
     <g id="text_8">
      <!-- 6 -->
      <defs>
       <path d="M 49.75 54.046875 
L 41.015625 53.375 
Q 39.84375 58.546875 37.703125 60.890625 
Q 34.125 64.65625 28.90625 64.65625 
Q 24.703125 64.65625 21.53125 62.3125 
Q 17.390625 59.28125 14.984375 53.46875 
Q 12.59375 47.65625 12.5 36.921875 
Q 15.671875 41.75 20.265625 44.09375 
Q 24.859375 46.4375 29.890625 46.4375 
Q 38.671875 46.4375 44.84375 39.96875 
Q 51.03125 33.5 51.03125 23.25 
Q 51.03125 16.5 48.125 10.71875 
Q 45.21875 4.9375 40.140625 1.859375 
Q 35.0625 -1.21875 28.609375 -1.21875 
Q 17.625 -1.21875 10.6875 6.859375 
Q 3.765625 14.9375 3.765625 33.5 
Q 3.765625 54.25 11.421875 63.671875 
Q 18.109375 71.875 29.4375 71.875 
Q 37.890625 71.875 43.28125 67.140625 
Q 48.6875 62.40625 49.75 54.046875 
z
M 13.875 23.1875 
Q 13.875 18.65625 15.796875 14.5 
Q 17.71875 10.359375 21.1875 8.171875 
Q 24.65625 6 28.46875 6 
Q 34.03125 6 38.03125 10.484375 
Q 42.046875 14.984375 42.046875 22.703125 
Q 42.046875 30.125 38.078125 34.390625 
Q 34.125 38.671875 28.125 38.671875 
Q 22.171875 38.671875 18.015625 34.390625 
Q 13.875 30.125 13.875 23.1875 
z
" id="ArialMT-54"/>
      </defs>
      <g style="fill:#262626;" transform="translate(270.827238 261.930875)scale(0.088 -0.088)">
       <use xlink:href="#ArialMT-54"/>
      </g>
     </g>
    </g>
    <g id="text_9">
     <!-- Time (s) -->
     <defs>
      <path d="M 25.921875 0 
L 25.921875 63.140625 
L 2.34375 63.140625 
L 2.34375 71.578125 
L 59.078125 71.578125 
L 59.078125 63.140625 
L 35.40625 63.140625 
L 35.40625 0 
z
" id="ArialMT-84"/>
      <path d="M 6.640625 61.46875 
L 6.640625 71.578125 
L 15.4375 71.578125 
L 15.4375 61.46875 
z
M 6.640625 0 
L 6.640625 51.859375 
L 15.4375 51.859375 
L 15.4375 0 
z
" id="ArialMT-105"/>
      <path d="M 6.59375 0 
L 6.59375 51.859375 
L 14.453125 51.859375 
L 14.453125 44.578125 
Q 16.890625 48.390625 20.9375 50.703125 
Q 25 53.03125 30.171875 53.03125 
Q 35.9375 53.03125 39.625 50.640625 
Q 43.3125 48.25 44.828125 43.953125 
Q 50.984375 53.03125 60.84375 53.03125 
Q 68.5625 53.03125 72.703125 48.75 
Q 76.859375 44.484375 76.859375 35.59375 
L 76.859375 0 
L 68.109375 0 
L 68.109375 32.671875 
Q 68.109375 37.9375 67.25 40.25 
Q 66.40625 42.578125 64.15625 43.984375 
Q 61.921875 45.40625 58.890625 45.40625 
Q 53.421875 45.40625 49.796875 41.765625 
Q 46.1875 38.140625 46.1875 30.125 
L 46.1875 0 
L 37.40625 0 
L 37.40625 33.6875 
Q 37.40625 39.546875 35.25 42.46875 
Q 33.109375 45.40625 28.21875 45.40625 
Q 24.515625 45.40625 21.359375 43.453125 
Q 18.21875 41.5 16.796875 37.734375 
Q 15.375 33.984375 15.375 26.90625 
L 15.375 0 
z
" id="ArialMT-109"/>
      <path d="M 42.09375 16.703125 
L 51.171875 15.578125 
Q 49.03125 7.625 43.21875 3.21875 
Q 37.40625 -1.171875 28.375 -1.171875 
Q 17 -1.171875 10.328125 5.828125 
Q 3.65625 12.84375 3.65625 25.484375 
Q 3.65625 38.578125 10.390625 45.796875 
Q 17.140625 53.03125 27.875 53.03125 
Q 38.28125 53.03125 44.875 45.953125 
Q 51.46875 38.875 51.46875 26.03125 
Q 51.46875 25.25 51.421875 23.6875 
L 12.75 23.6875 
Q 13.234375 15.140625 17.578125 10.59375 
Q 21.921875 6.0625 28.421875 6.0625 
Q 33.25 6.0625 36.671875 8.59375 
Q 40.09375 11.140625 42.09375 16.703125 
z
M 13.234375 30.90625 
L 42.1875 30.90625 
Q 41.609375 37.453125 38.875 40.71875 
Q 34.671875 45.796875 27.984375 45.796875 
Q 21.921875 45.796875 17.796875 41.75 
Q 13.671875 37.703125 13.234375 30.90625 
z
" id="ArialMT-101"/>
      <path id="ArialMT-32"/>
      <path d="M 23.390625 -21.046875 
Q 16.109375 -11.859375 11.078125 0.4375 
Q 6.0625 12.75 6.0625 25.921875 
Q 6.0625 37.546875 9.8125 48.1875 
Q 14.203125 60.546875 23.390625 72.796875 
L 29.6875 72.796875 
Q 23.78125 62.640625 21.875 58.296875 
Q 18.890625 51.5625 17.1875 44.234375 
Q 15.09375 35.109375 15.09375 25.875 
Q 15.09375 2.390625 29.6875 -21.046875 
z
" id="ArialMT-40"/>
      <path d="M 3.078125 15.484375 
L 11.765625 16.84375 
Q 12.5 11.625 15.84375 8.84375 
Q 19.1875 6.0625 25.203125 6.0625 
Q 31.25 6.0625 34.171875 8.515625 
Q 37.109375 10.984375 37.109375 14.3125 
Q 37.109375 17.28125 34.515625 19 
Q 32.71875 20.171875 25.53125 21.96875 
Q 15.875 24.421875 12.140625 26.203125 
Q 8.40625 27.984375 6.46875 31.125 
Q 4.546875 34.28125 4.546875 38.09375 
Q 4.546875 41.546875 6.125 44.5 
Q 7.71875 47.46875 10.453125 49.421875 
Q 12.5 50.921875 16.03125 51.96875 
Q 19.578125 53.03125 23.640625 53.03125 
Q 29.734375 53.03125 34.34375 51.265625 
Q 38.96875 49.515625 41.15625 46.5 
Q 43.359375 43.5 44.1875 38.484375 
L 35.59375 37.3125 
Q 35.015625 41.3125 32.203125 43.546875 
Q 29.390625 45.796875 24.265625 45.796875 
Q 18.21875 45.796875 15.625 43.796875 
Q 13.03125 41.796875 13.03125 39.109375 
Q 13.03125 37.40625 14.109375 36.03125 
Q 15.1875 34.625 17.484375 33.6875 
Q 18.796875 33.203125 25.25 31.453125 
Q 34.578125 28.953125 38.25 27.359375 
Q 41.9375 25.78125 44.03125 22.75 
Q 46.140625 19.734375 46.140625 15.234375 
Q 46.140625 10.84375 43.578125 6.953125 
Q 41.015625 3.078125 36.171875 0.953125 
Q 31.34375 -1.171875 25.25 -1.171875 
Q 15.140625 -1.171875 9.84375 3.03125 
Q 4.546875 7.234375 3.078125 15.484375 
z
" id="ArialMT-115"/>
      <path d="M 12.359375 -21.046875 
L 6.0625 -21.046875 
Q 20.65625 2.390625 20.65625 25.875 
Q 20.65625 35.0625 18.5625 44.09375 
Q 16.890625 51.421875 13.921875 58.15625 
Q 12.015625 62.546875 6.0625 72.796875 
L 12.359375 72.796875 
Q 21.53125 60.546875 25.921875 48.1875 
Q 29.6875 37.546875 29.6875 25.921875 
Q 29.6875 12.75 24.625 0.4375 
Q 19.578125 -11.859375 12.359375 -21.046875 
z
" id="ArialMT-41"/>
     </defs>
     <g style="fill:#262626;" transform="translate(143.619 274.668375)scale(0.096 -0.096)">
      <use xlink:href="#ArialMT-84"/>
      <use x="61.037109" xlink:href="#ArialMT-105"/>
      <use x="83.253906" xlink:href="#ArialMT-109"/>
      <use x="166.554688" xlink:href="#ArialMT-101"/>
      <use x="222.169922" xlink:href="#ArialMT-32"/>
      <use x="249.953125" xlink:href="#ArialMT-40"/>
      <use x="283.253906" xlink:href="#ArialMT-115"/>
      <use x="333.253906" xlink:href="#ArialMT-41"/>
     </g>
    </g>
   </g>
   <g id="matplotlib.axis_2">
    <g id="ytick_1">
     <g id="line2d_9">
      <defs>
       <path d="M 0 0 
L -4.8 0 
" id="mcda1424331" style="stroke:#262626;"/>
      </defs>
      <g>
       <use style="fill:#262626;stroke:#262626;" x="44.793" xlink:href="#mcda1424331" y="247.332"/>
      </g>
     </g>
     <g id="text_10">
      <!-- −4 -->
      <g style="fill:#262626;" transform="translate(26.459625 250.481437)scale(0.088 -0.088)">
       <use xlink:href="#ArialMT-8722"/>
       <use x="58.398438" xlink:href="#ArialMT-52"/>
      </g>
     </g>
    </g>
    <g id="ytick_2">
     <g id="line2d_10">
      <g>
       <use style="fill:#262626;stroke:#262626;" x="44.793" xlink:href="#mcda1424331" y="219.3365"/>
      </g>
     </g>
     <g id="text_11">
      <!-- −3 -->
      <g style="fill:#262626;" transform="translate(26.459625 222.485938)scale(0.088 -0.088)">
       <use xlink:href="#ArialMT-8722"/>
       <use x="58.398438" xlink:href="#ArialMT-51"/>
      </g>
     </g>
    </g>
    <g id="ytick_3">
     <g id="line2d_11">
      <g>
       <use style="fill:#262626;stroke:#262626;" x="44.793" xlink:href="#mcda1424331" y="191.341"/>
      </g>
     </g>
     <g id="text_12">
      <!-- −2 -->
      <g style="fill:#262626;" transform="translate(26.459625 194.490437)scale(0.088 -0.088)">
       <use xlink:href="#ArialMT-8722"/>
       <use x="58.398438" xlink:href="#ArialMT-50"/>
      </g>
     </g>
    </g>
    <g id="ytick_4">
     <g id="line2d_12">
      <g>
       <use style="fill:#262626;stroke:#262626;" x="44.793" xlink:href="#mcda1424331" y="163.3455"/>
      </g>
     </g>
     <g id="text_13">
      <!-- −1 -->
      <g style="fill:#262626;" transform="translate(26.459625 166.494937)scale(0.088 -0.088)">
       <use xlink:href="#ArialMT-8722"/>
       <use x="58.398438" xlink:href="#ArialMT-49"/>
      </g>
     </g>
    </g>
    <g id="ytick_5">
     <g id="line2d_13">
      <g>
       <use style="fill:#262626;stroke:#262626;" x="44.793" xlink:href="#mcda1424331" y="135.35"/>
      </g>
     </g>
     <g id="text_14">
      <!-- 0 -->
      <g style="fill:#262626;" transform="translate(31.599375 138.499437)scale(0.088 -0.088)">
       <use xlink:href="#ArialMT-48"/>
      </g>
     </g>
    </g>
    <g id="ytick_6">
     <g id="line2d_14">
      <g>
       <use style="fill:#262626;stroke:#262626;" x="44.793" xlink:href="#mcda1424331" y="107.3545"/>
      </g>
     </g>
     <g id="text_15">
      <!-- 1 -->
      <g style="fill:#262626;" transform="translate(31.599375 110.503938)scale(0.088 -0.088)">
       <use xlink:href="#ArialMT-49"/>
      </g>
     </g>
    </g>
    <g id="ytick_7">
     <g id="line2d_15">
      <g>
       <use style="fill:#262626;stroke:#262626;" x="44.793" xlink:href="#mcda1424331" y="79.359"/>
      </g>
     </g>
     <g id="text_16">
      <!-- 2 -->
      <g style="fill:#262626;" transform="translate(31.599375 82.508437)scale(0.088 -0.088)">
       <use xlink:href="#ArialMT-50"/>
      </g>
     </g>
    </g>
    <g id="ytick_8">
     <g id="line2d_16">
      <g>
       <use style="fill:#262626;stroke:#262626;" x="44.793" xlink:href="#mcda1424331" y="51.3635"/>
      </g>
     </g>
     <g id="text_17">
      <!-- 3 -->
      <g style="fill:#262626;" transform="translate(31.599375 54.512937)scale(0.088 -0.088)">
       <use xlink:href="#ArialMT-51"/>
      </g>
     </g>
    </g>
    <g id="ytick_9">
     <g id="line2d_17">
      <g>
       <use style="fill:#262626;stroke:#262626;" x="44.793" xlink:href="#mcda1424331" y="23.368"/>
      </g>
     </g>
     <g id="text_18">
      <!-- 4 -->
      <g style="fill:#262626;" transform="translate(31.599375 26.517437)scale(0.088 -0.088)">
       <use xlink:href="#ArialMT-52"/>
      </g>
     </g>
    </g>
    <g id="text_19">
     <!-- $\Delta$ BPM -->
     <defs>
      <path d="M 34.1875 63.1875 
L 14.15625 8.203125 
L 54.25 8.203125 
z
M 0.78125 0 
L 28.609375 72.90625 
L 39.796875 72.90625 
L 67.578125 0 
z
" id="DejaVuSans-916"/>
      <path d="M 7.328125 0 
L 7.328125 71.578125 
L 34.1875 71.578125 
Q 42.390625 71.578125 47.34375 69.40625 
Q 52.296875 67.234375 55.09375 62.71875 
Q 57.90625 58.203125 57.90625 53.265625 
Q 57.90625 48.6875 55.421875 44.625 
Q 52.9375 40.578125 47.90625 38.09375 
Q 54.390625 36.1875 57.875 31.59375 
Q 61.375 27 61.375 20.75 
Q 61.375 15.71875 59.25 11.390625 
Q 57.125 7.078125 54 4.734375 
Q 50.875 2.390625 46.15625 1.1875 
Q 41.453125 0 34.625 0 
z
M 16.796875 41.5 
L 32.28125 41.5 
Q 38.578125 41.5 41.3125 42.328125 
Q 44.921875 43.40625 46.75 45.890625 
Q 48.578125 48.390625 48.578125 52.15625 
Q 48.578125 55.71875 46.875 58.421875 
Q 45.171875 61.140625 41.984375 62.140625 
Q 38.8125 63.140625 31.109375 63.140625 
L 16.796875 63.140625 
z
M 16.796875 8.453125 
L 34.625 8.453125 
Q 39.203125 8.453125 41.0625 8.796875 
Q 44.34375 9.375 46.53125 10.734375 
Q 48.734375 12.109375 50.140625 14.71875 
Q 51.5625 17.328125 51.5625 20.75 
Q 51.5625 24.75 49.515625 27.703125 
Q 47.46875 30.671875 43.828125 31.859375 
Q 40.1875 33.0625 33.34375 33.0625 
L 16.796875 33.0625 
z
" id="ArialMT-66"/>
      <path d="M 7.71875 0 
L 7.71875 71.578125 
L 34.71875 71.578125 
Q 41.84375 71.578125 45.609375 70.90625 
Q 50.875 70.015625 54.4375 67.546875 
Q 58.015625 65.09375 60.1875 60.640625 
Q 62.359375 56.203125 62.359375 50.875 
Q 62.359375 41.75 56.546875 35.421875 
Q 50.734375 29.109375 35.546875 29.109375 
L 17.1875 29.109375 
L 17.1875 0 
z
M 17.1875 37.546875 
L 35.6875 37.546875 
Q 44.875 37.546875 48.734375 40.96875 
Q 52.59375 44.390625 52.59375 50.59375 
Q 52.59375 55.078125 50.3125 58.265625 
Q 48.046875 61.46875 44.34375 62.5 
Q 41.9375 63.140625 35.5 63.140625 
L 17.1875 63.140625 
z
" id="ArialMT-80"/>
      <path d="M 7.421875 0 
L 7.421875 71.578125 
L 21.6875 71.578125 
L 38.625 20.90625 
Q 40.96875 13.8125 42.046875 10.296875 
Q 43.265625 14.203125 45.84375 21.78125 
L 62.984375 71.578125 
L 75.734375 71.578125 
L 75.734375 0 
L 66.609375 0 
L 66.609375 59.90625 
L 45.796875 0 
L 37.25 0 
L 16.546875 60.9375 
L 16.546875 0 
z
" id="ArialMT-77"/>
     </defs>
     <g style="fill:#262626;" transform="translate(20.551625 150.374)rotate(-90)scale(0.096 -0.096)">
      <use transform="translate(0 0.09375)" xlink:href="#DejaVuSans-916"/>
      <use transform="translate(68.408203 0.09375)" xlink:href="#ArialMT-32"/>
      <use transform="translate(96.191406 0.09375)" xlink:href="#ArialMT-66"/>
      <use transform="translate(162.890625 0.09375)" xlink:href="#ArialMT-80"/>
      <use transform="translate(229.589844 0.09375)" xlink:href="#ArialMT-77"/>
     </g>
    </g>
   </g>
   <g id="PolyCollection_1">
    <defs>
     <path d="M 55.376591 -114.865096 
L 55.376591 -101.701217 
L 61.602233 -110.137211 
L 67.827874 -119.180129 
L 74.053516 -129.754596 
L 80.279158 -141.175974 
L 86.504799 -152.65 
L 92.730441 -161.339106 
L 98.956083 -167.856431 
L 105.181725 -171.249984 
L 111.407366 -173.111247 
L 117.633008 -173.994633 
L 123.85865 -174.756807 
L 130.084291 -172.012435 
L 136.309933 -167.655311 
L 142.535575 -160.730549 
L 148.761217 -152.80557 
L 154.986858 -145.463439 
L 161.2125 -135.849492 
L 167.438142 -124.297211 
L 173.663783 -114.28891 
L 179.889425 -105.636191 
L 186.115067 -98.906173 
L 192.340709 -94.682586 
L 198.56635 -90.384175 
L 204.791992 -89.086561 
L 211.017634 -89.071099 
L 217.243275 -90.705045 
L 223.468917 -94.946819 
L 229.694559 -99.787585 
L 235.920201 -107.711069 
L 242.145842 -116.687436 
L 248.371484 -126.093539 
L 254.597126 -136.636698 
L 260.822767 -146.839254 
L 267.048409 -155.464264 
L 267.048409 -160.271347 
L 267.048409 -160.271347 
L 260.822767 -150.7142 
L 254.597126 -140.977329 
L 248.371484 -131.412659 
L 242.145842 -122.6464 
L 235.920201 -114.981444 
L 229.694559 -108.262009 
L 223.468917 -103.614463 
L 217.243275 -100.441993 
L 211.017634 -98.966699 
L 204.791992 -100.038363 
L 198.56635 -102.038472 
L 192.340709 -107.129844 
L 186.115067 -111.564658 
L 179.889425 -119.70765 
L 173.663783 -128.669 
L 167.438142 -139.012405 
L 161.2125 -150.460075 
L 154.986858 -160.284176 
L 148.761217 -168.077664 
L 142.535575 -176.486076 
L 136.309933 -181.921999 
L 130.084291 -184.632893 
L 123.85865 -186.670115 
L 117.633008 -185.12417 
L 111.407366 -182.059578 
L 105.181725 -178.652515 
L 98.956083 -172.667271 
L 92.730441 -163.904797 
L 86.504799 -152.65 
L 80.279158 -143.893006 
L 74.053516 -135.666246 
L 67.827874 -129.916713 
L 61.602233 -123.139599 
L 55.376591 -114.865096 
z
" id="m372eb91371" style="stroke:#b22222;stroke-opacity:0.2;stroke-width:0.8;"/>
    </defs>
    <g clip-path="url(#p1abc9ab242)">
     <use style="fill:#b22222;fill-opacity:0.2;stroke:#b22222;stroke-opacity:0.2;stroke-width:0.8;" x="0" xlink:href="#m372eb91371" y="288"/>
    </g>
   </g>
   <g id="PolyCollection_2">
    <defs>
     <path d="M 55.376591 -115.632668 
L 55.376591 -105.04127 
L 61.602233 -112.711963 
L 67.827874 -120.591265 
L 74.053516 -130.566479 
L 80.279158 -141.818397 
L 86.504799 -152.65 
L 92.730441 -159.869185 
L 98.956083 -166.010275 
L 105.181725 -170.64955 
L 111.407366 -173.538114 
L 117.633008 -175.866748 
L 123.85865 -175.757918 
L 130.084291 -173.550327 
L 136.309933 -169.563096 
L 142.535575 -164.82288 
L 148.761217 -157.061149 
L 154.986858 -147.027158 
L 161.2125 -134.938041 
L 167.438142 -123.646585 
L 173.663783 -112.860706 
L 179.889425 -104.747726 
L 186.115067 -97.809288 
L 192.340709 -91.489999 
L 198.56635 -87.906534 
L 204.791992 -86.402762 
L 211.017634 -89.119236 
L 217.243275 -92.27497 
L 223.468917 -95.906062 
L 229.694559 -101.794971 
L 235.920201 -109.940426 
L 242.145842 -119.446229 
L 248.371484 -129.926295 
L 254.597126 -139.093767 
L 260.822767 -148.845756 
L 267.048409 -157.388085 
L 267.048409 -163.197395 
L 267.048409 -163.197395 
L 260.822767 -155.076143 
L 254.597126 -146.492944 
L 248.371484 -137.125515 
L 242.145842 -127.74672 
L 235.920201 -120.087164 
L 229.694559 -112.536661 
L 223.468917 -105.630463 
L 217.243275 -101.640392 
L 211.017634 -98.474895 
L 204.791992 -96.193865 
L 198.56635 -98.953817 
L 192.340709 -103.317419 
L 186.115067 -108.830208 
L 179.889425 -116.096527 
L 173.663783 -125.617899 
L 167.438142 -136.50492 
L 161.2125 -147.628719 
L 154.986858 -159.031211 
L 148.761217 -169.435684 
L 142.535575 -176.810562 
L 136.309933 -180.936672 
L 130.084291 -184.284387 
L 123.85865 -185.866145 
L 117.633008 -184.890462 
L 111.407366 -180.876344 
L 105.181725 -176.406638 
L 98.956083 -170.302083 
L 92.730441 -162.03034 
L 86.504799 -152.65 
L 80.279158 -144.945985 
L 74.053516 -137.547971 
L 67.827874 -130.420261 
L 61.602233 -122.909061 
L 55.376591 -115.632668 
z
" id="mb73247ea1b" style="stroke:#b22222;stroke-opacity:0.2;stroke-width:0.8;"/>
    </defs>
    <g clip-path="url(#p1abc9ab242)">
     <use style="fill:#b22222;fill-opacity:0.2;stroke:#b22222;stroke-opacity:0.2;stroke-width:0.8;" x="0" xlink:href="#mb73247ea1b" y="288"/>
    </g>
   </g>
   <g id="PolyCollection_3">
    <defs>
     <path d="M 55.376591 -106.09487 
L 55.376591 -96.284339 
L 61.602233 -106.554032 
L 67.827874 -118.214629 
L 74.053516 -129.456104 
L 80.279158 -140.753476 
L 86.504799 -152.65 
L 92.730441 -161.329001 
L 98.956083 -168.006152 
L 105.181725 -174.281584 
L 111.407366 -178.594009 
L 117.633008 -180.582207 
L 123.85865 -179.048572 
L 130.084291 -177.198155 
L 136.309933 -174.12134 
L 142.535575 -168.134245 
L 148.761217 -161.194817 
L 154.986858 -152.116559 
L 161.2125 -140.171027 
L 167.438142 -128.162029 
L 173.663783 -115.755575 
L 179.889425 -105.826464 
L 186.115067 -98.34734 
L 192.340709 -92.201703 
L 198.56635 -88.202552 
L 204.791992 -85.524429 
L 211.017634 -85.692177 
L 217.243275 -87.1212 
L 223.468917 -90.5532 
L 229.694559 -98.197958 
L 235.920201 -108.271006 
L 242.145842 -117.515222 
L 248.371484 -125.877952 
L 254.597126 -134.955569 
L 260.822767 -145.044733 
L 267.048409 -154.42846 
L 267.048409 -161.046613 
L 267.048409 -161.046613 
L 260.822767 -151.31841 
L 254.597126 -141.667608 
L 248.371484 -132.873922 
L 242.145842 -125.208016 
L 235.920201 -116.748878 
L 229.694559 -108.011357 
L 223.468917 -100.401028 
L 217.243275 -97.267716 
L 211.017634 -97.168708 
L 204.791992 -98.550593 
L 198.56635 -102.164263 
L 192.340709 -107.979812 
L 186.115067 -114.368451 
L 179.889425 -122.370274 
L 173.663783 -133.072993 
L 167.438142 -145.192896 
L 161.2125 -157.206699 
L 154.986858 -168.944576 
L 148.761217 -176.796398 
L 142.535575 -182.784819 
L 136.309933 -187.060963 
L 130.084291 -189.574469 
L 123.85865 -190.75449 
L 117.633008 -189.968495 
L 111.407366 -186.804732 
L 105.181725 -180.421015 
L 98.956083 -172.180848 
L 92.730441 -163.796332 
L 86.504799 -152.65 
L 80.279158 -143.549721 
L 74.053516 -135.214125 
L 67.827874 -125.677368 
L 61.602233 -115.216832 
L 55.376591 -106.09487 
z
" id="m1c915e616a" style="stroke:#4682b4;stroke-opacity:0.2;stroke-width:0.8;"/>
    </defs>
    <g clip-path="url(#p1abc9ab242)">
     <use style="fill:#4682b4;fill-opacity:0.2;stroke:#4682b4;stroke-opacity:0.2;stroke-width:0.8;" x="0" xlink:href="#m1c915e616a" y="288"/>
    </g>
   </g>
   <g id="PolyCollection_4">
    <defs>
     <path d="M 55.376591 -111.506906 
L 55.376591 -100.733786 
L 61.602233 -109.559339 
L 67.827874 -118.80052 
L 74.053516 -130.555868 
L 80.279158 -141.505939 
L 86.504799 -152.65 
L 92.730441 -160.692321 
L 98.956083 -167.058817 
L 105.181725 -170.854154 
L 111.407366 -173.275049 
L 117.633008 -177.523441 
L 123.85865 -178.299719 
L 130.084291 -179.600915 
L 136.309933 -176.570079 
L 142.535575 -171.076785 
L 148.761217 -162.519527 
L 154.986858 -150.5611 
L 161.2125 -139.435601 
L 167.438142 -128.687398 
L 173.663783 -118.186346 
L 179.889425 -106.888666 
L 186.115067 -98.08723 
L 192.340709 -91.038054 
L 198.56635 -85.370519 
L 204.791992 -83.794016 
L 211.017634 -84.47138 
L 217.243275 -86.548264 
L 223.468917 -91.063279 
L 229.694559 -96.57728 
L 235.920201 -104.353043 
L 242.145842 -113.645166 
L 248.371484 -124.169248 
L 254.597126 -134.988847 
L 260.822767 -145.077159 
L 267.048409 -153.63737 
L 267.048409 -158.836451 
L 267.048409 -158.836451 
L 260.822767 -151.347808 
L 254.597126 -143.813617 
L 248.371484 -133.555946 
L 242.145842 -123.346058 
L 235.920201 -113.95204 
L 229.694559 -106.636301 
L 223.468917 -101.99664 
L 217.243275 -98.699332 
L 211.017634 -96.327225 
L 204.791992 -95.84697 
L 198.56635 -98.8914 
L 192.340709 -104.241414 
L 186.115067 -112.192032 
L 179.889425 -122.742532 
L 173.663783 -133.539173 
L 167.438142 -144.660314 
L 161.2125 -156.759305 
L 154.986858 -166.807302 
L 148.761217 -176.899574 
L 142.535575 -184.587113 
L 136.309933 -189.158711 
L 130.084291 -190.497499 
L 123.85865 -189.701918 
L 117.633008 -186.730038 
L 111.407366 -182.232846 
L 105.181725 -177.435723 
L 98.956083 -171.259523 
L 92.730441 -162.92791 
L 86.504799 -152.65 
L 80.279158 -143.648801 
L 74.053516 -135.986501 
L 67.827874 -126.839713 
L 61.602233 -120.084765 
L 55.376591 -111.506906 
z
" id="mcceb0cdcfc" style="stroke:#4682b4;stroke-opacity:0.2;stroke-width:0.8;"/>
    </defs>
    <g clip-path="url(#p1abc9ab242)">
     <use style="fill:#4682b4;fill-opacity:0.2;stroke:#4682b4;stroke-opacity:0.2;stroke-width:0.8;" x="0" xlink:href="#mcceb0cdcfc" y="288"/>
    </g>
   </g>
   <g id="line2d_18">
    <path clip-path="url(#p1abc9ab242)" d="M 55.376591 179.982376 
L 61.602233 171.649761 
L 67.827874 163.301156 
L 74.053516 155.204003 
L 80.279158 145.660093 
L 86.504799 135.35 
L 92.730441 125.4 
L 98.956083 117.807448 
L 105.181725 112.987774 
L 111.407366 110.351726 
L 117.633008 108.529216 
L 123.85865 107.6332 
L 130.084291 109.135337 
L 136.309933 113.187578 
L 142.535575 119.252554 
L 148.761217 127.538928 
L 154.986858 135.357977 
L 161.2125 144.656885 
L 167.438142 156.195595 
L 173.663783 166.431228 
L 179.889425 175.331196 
L 186.115067 182.623543 
L 192.340709 187.617504 
L 198.56635 191.644001 
L 204.791992 193.634257 
L 211.017634 194.087171 
L 217.243275 192.184238 
L 223.468917 188.478927 
L 229.694559 183.666837 
L 235.920201 176.629895 
L 242.145842 168.502605 
L 248.371484 159.096358 
L 254.597126 149.124293 
L 260.822767 139.24719 
L 267.048409 130.185862 
" style="fill:none;stroke:#b22222;stroke-linecap:round;stroke-width:1.2;"/>
   </g>
   <g id="line2d_19">
    <path clip-path="url(#p1abc9ab242)" d="M 55.376591 177.730134 
L 61.602233 170.240597 
L 67.827874 162.5984 
L 74.053516 153.81619 
L 80.279158 144.643461 
L 86.504799 135.35 
L 92.730441 127.050343 
L 98.956083 119.906685 
L 105.181725 114.449167 
L 111.407366 110.913475 
L 117.633008 107.71384 
L 123.85865 107.390272 
L 130.084291 109.019258 
L 136.309933 112.731007 
L 142.535575 117.193843 
L 148.761217 124.63324 
L 154.986858 134.942601 
L 161.2125 146.56994 
L 167.438142 157.843276 
L 173.663783 168.787429 
L 179.889425 177.490327 
L 186.115067 184.791331 
L 192.340709 190.707795 
L 198.56635 194.612832 
L 204.791992 196.427753 
L 211.017634 194.501647 
L 217.243275 191.342324 
L 223.468917 187.058239 
L 229.694559 180.722255 
L 235.920201 173.001027 
L 242.145842 164.272077 
L 248.371484 154.716681 
L 254.597126 145.221595 
L 260.822767 135.871552 
L 267.048409 127.665561 
" style="fill:none;stroke:#b22222;stroke-dasharray:4.8,1.8;stroke-dashoffset:0;stroke-width:1.2;"/>
   </g>
   <g id="line2d_20">
    <path clip-path="url(#p1abc9ab242)" d="M 55.376591 186.590181 
L 61.602233 177.070089 
L 67.827874 166.160869 
L 74.053516 155.593826 
L 80.279158 145.866304 
L 86.504799 135.35 
L 92.730441 125.464834 
L 98.956083 117.809799 
L 105.181725 110.585463 
L 111.407366 105.248782 
L 117.633008 102.975264 
L 123.85865 103.015247 
L 130.084291 104.740596 
L 136.309933 107.370408 
L 142.535575 112.514185 
L 148.761217 119.066243 
L 154.986858 127.607345 
L 161.2125 139.296679 
L 167.438142 151.561337 
L 173.663783 163.480524 
L 179.889425 173.584811 
L 186.115067 181.443239 
L 192.340709 188.069532 
L 198.56635 192.80959 
L 204.791992 196.207147 
L 211.017634 196.937586 
L 217.243275 195.827068 
L 223.468917 192.235263 
L 229.694559 185.169224 
L 235.920201 175.751332 
L 242.145842 166.854379 
L 248.371484 158.575531 
L 254.597126 149.673603 
L 260.822767 139.809607 
L 267.048409 129.997618 
" style="fill:none;stroke:#4682b4;stroke-linecap:round;stroke-width:1.2;"/>
   </g>
   <g id="line2d_21">
    <path clip-path="url(#p1abc9ab242)" d="M 55.376591 182.243382 
L 61.602233 173.315667 
L 67.827874 165.298499 
L 74.053516 154.903402 
L 80.279158 145.379588 
L 86.504799 135.35 
L 92.730441 126.191523 
L 98.956083 118.758547 
L 105.181725 113.962597 
L 111.407366 110.396718 
L 117.633008 106.24617 
L 123.85865 104.065996 
L 130.084291 103.171461 
L 136.309933 105.071358 
L 142.535575 110.051331 
L 148.761217 118.186653 
L 154.986858 129.459336 
L 161.2125 140.300305 
L 167.438142 151.281813 
L 173.663783 162.341175 
L 179.889425 173.333729 
L 186.115067 182.902621 
L 192.340709 190.376761 
L 198.56635 195.661256 
L 204.791992 198.214188 
L 211.017634 197.848877 
L 217.243275 195.269078 
L 223.468917 191.20931 
L 229.694559 186.172343 
L 235.920201 178.978753 
L 242.145842 169.620178 
L 248.371484 159.109082 
L 254.597126 148.391258 
L 260.822767 139.742858 
L 267.048409 131.641049 
" style="fill:none;stroke:#4682b4;stroke-dasharray:4.8,1.8;stroke-dashoffset:0;stroke-width:1.2;"/>
   </g>
   <g id="line2d_22"/>
   <g id="line2d_23"/>
   <g id="line2d_24"/>
   <g id="line2d_25"/>
   <g id="line2d_26"/>
   <g id="line2d_27"/>
   <g id="line2d_28">
    <path clip-path="url(#p1abc9ab242)" d="M 44.793 135.35 
L 277.632 135.35 
" style="fill:none;stroke:#808080;stroke-dasharray:4.44,1.92;stroke-dashoffset:0;stroke-width:1.2;"/>
   </g>
   <g id="line2d_29">
    <path clip-path="url(#p1abc9ab242)" d="M 86.504799 247.332 
L 86.504799 23.368 
" style="fill:none;stroke:#1a1a1a;stroke-dasharray:4.44,1.92;stroke-dashoffset:0;stroke-width:1.2;"/>
   </g>
   <g id="patch_3">
    <path d="M 44.793 247.332 
L 44.793 23.368 
" style="fill:none;stroke:#262626;stroke-linecap:square;stroke-linejoin:miter;"/>
   </g>
   <g id="patch_4">
    <path d="M 44.793 247.332 
L 277.632 247.332 
" style="fill:none;stroke:#262626;stroke-linecap:square;stroke-linejoin:miter;"/>
   </g>
   <g id="text_20">
    <!-- Heart rate evoked response -->
    <defs>
     <path d="M 8.015625 0 
L 8.015625 71.578125 
L 17.484375 71.578125 
L 17.484375 42.1875 
L 54.6875 42.1875 
L 54.6875 71.578125 
L 64.15625 71.578125 
L 64.15625 0 
L 54.6875 0 
L 54.6875 33.734375 
L 17.484375 33.734375 
L 17.484375 0 
z
" id="ArialMT-72"/>
     <path d="M 40.4375 6.390625 
Q 35.546875 2.25 31.03125 0.53125 
Q 26.515625 -1.171875 21.34375 -1.171875 
Q 12.796875 -1.171875 8.203125 3 
Q 3.609375 7.171875 3.609375 13.671875 
Q 3.609375 17.484375 5.34375 20.625 
Q 7.078125 23.78125 9.890625 25.6875 
Q 12.703125 27.59375 16.21875 28.5625 
Q 18.796875 29.25 24.03125 29.890625 
Q 34.671875 31.15625 39.703125 32.90625 
Q 39.75 34.71875 39.75 35.203125 
Q 39.75 40.578125 37.25 42.78125 
Q 33.890625 45.75 27.25 45.75 
Q 21.046875 45.75 18.09375 43.578125 
Q 15.140625 41.40625 13.71875 35.890625 
L 5.125 37.0625 
Q 6.296875 42.578125 8.984375 45.96875 
Q 11.671875 49.359375 16.75 51.1875 
Q 21.828125 53.03125 28.515625 53.03125 
Q 35.15625 53.03125 39.296875 51.46875 
Q 43.453125 49.90625 45.40625 47.53125 
Q 47.359375 45.171875 48.140625 41.546875 
Q 48.578125 39.3125 48.578125 33.453125 
L 48.578125 21.734375 
Q 48.578125 9.46875 49.140625 6.21875 
Q 49.703125 2.984375 51.375 0 
L 42.1875 0 
Q 40.828125 2.734375 40.4375 6.390625 
z
M 39.703125 26.03125 
Q 34.90625 24.078125 25.34375 22.703125 
Q 19.921875 21.921875 17.671875 20.9375 
Q 15.4375 19.96875 14.203125 18.09375 
Q 12.984375 16.21875 12.984375 13.921875 
Q 12.984375 10.40625 15.640625 8.0625 
Q 18.3125 5.71875 23.4375 5.71875 
Q 28.515625 5.71875 32.46875 7.9375 
Q 36.421875 10.15625 38.28125 14.015625 
Q 39.703125 17 39.703125 22.796875 
z
" id="ArialMT-97"/>
     <path d="M 6.5 0 
L 6.5 51.859375 
L 14.40625 51.859375 
L 14.40625 44 
Q 17.4375 49.515625 20 51.265625 
Q 22.5625 53.03125 25.640625 53.03125 
Q 30.078125 53.03125 34.671875 50.203125 
L 31.640625 42.046875 
Q 28.421875 43.953125 25.203125 43.953125 
Q 22.3125 43.953125 20.015625 42.21875 
Q 17.71875 40.484375 16.75 37.40625 
Q 15.28125 32.71875 15.28125 27.15625 
L 15.28125 0 
z
" id="ArialMT-114"/>
     <path d="M 25.78125 7.859375 
L 27.046875 0.09375 
Q 23.34375 -0.6875 20.40625 -0.6875 
Q 15.625 -0.6875 12.984375 0.828125 
Q 10.359375 2.34375 9.28125 4.8125 
Q 8.203125 7.28125 8.203125 15.1875 
L 8.203125 45.015625 
L 1.765625 45.015625 
L 1.765625 51.859375 
L 8.203125 51.859375 
L 8.203125 64.703125 
L 16.9375 69.96875 
L 16.9375 51.859375 
L 25.78125 51.859375 
L 25.78125 45.015625 
L 16.9375 45.015625 
L 16.9375 14.703125 
Q 16.9375 10.9375 17.40625 9.859375 
Q 17.875 8.796875 18.921875 8.15625 
Q 19.96875 7.515625 21.921875 7.515625 
Q 23.390625 7.515625 25.78125 7.859375 
z
" id="ArialMT-116"/>
     <path d="M 21 0 
L 1.265625 51.859375 
L 10.546875 51.859375 
L 21.6875 20.796875 
Q 23.484375 15.765625 25 10.359375 
Q 26.171875 14.453125 28.265625 20.21875 
L 39.796875 51.859375 
L 48.828125 51.859375 
L 29.203125 0 
z
" id="ArialMT-118"/>
     <path d="M 3.328125 25.921875 
Q 3.328125 40.328125 11.328125 47.265625 
Q 18.015625 53.03125 27.640625 53.03125 
Q 38.328125 53.03125 45.109375 46.015625 
Q 51.90625 39.015625 51.90625 26.65625 
Q 51.90625 16.65625 48.90625 10.90625 
Q 45.90625 5.171875 40.15625 2 
Q 34.421875 -1.171875 27.640625 -1.171875 
Q 16.75 -1.171875 10.03125 5.8125 
Q 3.328125 12.796875 3.328125 25.921875 
z
M 12.359375 25.921875 
Q 12.359375 15.96875 16.703125 11.015625 
Q 21.046875 6.0625 27.640625 6.0625 
Q 34.1875 6.0625 38.53125 11.03125 
Q 42.875 16.015625 42.875 26.21875 
Q 42.875 35.84375 38.5 40.796875 
Q 34.125 45.75 27.640625 45.75 
Q 21.046875 45.75 16.703125 40.8125 
Q 12.359375 35.890625 12.359375 25.921875 
z
" id="ArialMT-111"/>
     <path d="M 6.640625 0 
L 6.640625 71.578125 
L 15.4375 71.578125 
L 15.4375 30.765625 
L 36.234375 51.859375 
L 47.609375 51.859375 
L 27.78125 32.625 
L 49.609375 0 
L 38.765625 0 
L 21.625 26.515625 
L 15.4375 20.5625 
L 15.4375 0 
z
" id="ArialMT-107"/>
     <path d="M 40.234375 0 
L 40.234375 6.546875 
Q 35.296875 -1.171875 25.734375 -1.171875 
Q 19.53125 -1.171875 14.328125 2.25 
Q 9.125 5.671875 6.265625 11.796875 
Q 3.421875 17.921875 3.421875 25.875 
Q 3.421875 33.640625 6 39.96875 
Q 8.59375 46.296875 13.765625 49.65625 
Q 18.953125 53.03125 25.34375 53.03125 
Q 30.03125 53.03125 33.6875 51.046875 
Q 37.359375 49.078125 39.65625 45.90625 
L 39.65625 71.578125 
L 48.390625 71.578125 
L 48.390625 0 
z
M 12.453125 25.875 
Q 12.453125 15.921875 16.640625 10.984375 
Q 20.84375 6.0625 26.5625 6.0625 
Q 32.328125 6.0625 36.34375 10.765625 
Q 40.375 15.484375 40.375 25.140625 
Q 40.375 35.796875 36.265625 40.765625 
Q 32.171875 45.75 26.171875 45.75 
Q 20.3125 45.75 16.375 40.96875 
Q 12.453125 36.1875 12.453125 25.875 
z
" id="ArialMT-100"/>
     <path d="M 6.59375 -19.875 
L 6.59375 51.859375 
L 14.59375 51.859375 
L 14.59375 45.125 
Q 17.4375 49.078125 21 51.046875 
Q 24.5625 53.03125 29.640625 53.03125 
Q 36.28125 53.03125 41.359375 49.609375 
Q 46.4375 46.1875 49.015625 39.953125 
Q 51.609375 33.734375 51.609375 26.3125 
Q 51.609375 18.359375 48.75 11.984375 
Q 45.90625 5.609375 40.453125 2.21875 
Q 35.015625 -1.171875 29 -1.171875 
Q 24.609375 -1.171875 21.109375 0.6875 
Q 17.625 2.546875 15.375 5.375 
L 15.375 -19.875 
z
M 14.546875 25.640625 
Q 14.546875 15.625 18.59375 10.84375 
Q 22.65625 6.0625 28.421875 6.0625 
Q 34.28125 6.0625 38.453125 11.015625 
Q 42.625 15.96875 42.625 26.375 
Q 42.625 36.28125 38.546875 41.203125 
Q 34.46875 46.140625 28.8125 46.140625 
Q 23.1875 46.140625 18.859375 40.890625 
Q 14.546875 35.640625 14.546875 25.640625 
z
" id="ArialMT-112"/>
     <path d="M 6.59375 0 
L 6.59375 51.859375 
L 14.5 51.859375 
L 14.5 44.484375 
Q 20.21875 53.03125 31 53.03125 
Q 35.6875 53.03125 39.625 51.34375 
Q 43.5625 49.65625 45.515625 46.921875 
Q 47.46875 44.1875 48.25 40.4375 
Q 48.734375 37.984375 48.734375 31.890625 
L 48.734375 0 
L 39.9375 0 
L 39.9375 31.546875 
Q 39.9375 36.921875 38.90625 39.578125 
Q 37.890625 42.234375 35.28125 43.8125 
Q 32.671875 45.40625 29.15625 45.40625 
Q 23.53125 45.40625 19.453125 41.84375 
Q 15.375 38.28125 15.375 28.328125 
L 15.375 0 
z
" id="ArialMT-110"/>
    </defs>
    <g style="fill:#262626;" transform="translate(101.9835 17.368)scale(0.096 -0.096)">
     <use xlink:href="#ArialMT-72"/>
     <use x="72.216797" xlink:href="#ArialMT-101"/>
     <use x="127.832031" xlink:href="#ArialMT-97"/>
     <use x="183.447266" xlink:href="#ArialMT-114"/>
     <use x="216.748047" xlink:href="#ArialMT-116"/>
     <use x="244.53125" xlink:href="#ArialMT-32"/>
     <use x="272.314453" xlink:href="#ArialMT-114"/>
     <use x="305.615234" xlink:href="#ArialMT-97"/>
     <use x="361.230469" xlink:href="#ArialMT-116"/>
     <use x="389.013672" xlink:href="#ArialMT-101"/>
     <use x="444.628906" xlink:href="#ArialMT-32"/>
     <use x="472.412109" xlink:href="#ArialMT-101"/>
     <use x="528.027344" xlink:href="#ArialMT-118"/>
     <use x="578.027344" xlink:href="#ArialMT-111"/>
     <use x="633.642578" xlink:href="#ArialMT-107"/>
     <use x="683.642578" xlink:href="#ArialMT-101"/>
     <use x="739.257812" xlink:href="#ArialMT-100"/>
     <use x="794.873047" xlink:href="#ArialMT-32"/>
     <use x="822.65625" xlink:href="#ArialMT-114"/>
     <use x="855.957031" xlink:href="#ArialMT-101"/>
     <use x="911.572266" xlink:href="#ArialMT-115"/>
     <use x="961.572266" xlink:href="#ArialMT-112"/>
     <use x="1017.1875" xlink:href="#ArialMT-111"/>
     <use x="1072.802734" xlink:href="#ArialMT-110"/>
     <use x="1128.417969" xlink:href="#ArialMT-115"/>
     <use x="1178.417969" xlink:href="#ArialMT-101"/>
    </g>
   </g>
   <g id="legend_1">
    <g id="patch_5">
     <path d="M 208.58225 105.3015 
L 271.472 105.3015 
Q 273.232 105.3015 273.232 103.5415 
L 273.232 29.528 
Q 273.232 27.768 271.472 27.768 
L 208.58225 27.768 
Q 206.82225 27.768 206.82225 29.528 
L 206.82225 103.5415 
Q 206.82225 105.3015 208.58225 105.3015 
z
" style="fill:#ffffff;opacity:0.8;stroke:#cccccc;stroke-linejoin:miter;stroke-width:0.8;"/>
    </g>
    <g id="line2d_30">
     <path d="M 210.34225 34.506875 
L 227.94225 34.506875 
" style="fill:none;"/>
    </g>
    <g id="line2d_31"/>
    <g id="text_21">
     <!-- Valence -->
     <defs>
      <path d="M 28.171875 0 
L 0.4375 71.578125 
L 10.6875 71.578125 
L 29.296875 19.578125 
Q 31.546875 13.328125 33.0625 7.859375 
Q 34.71875 13.71875 36.921875 19.578125 
L 56.25 71.578125 
L 65.921875 71.578125 
L 37.890625 0 
z
" id="ArialMT-86"/>
      <path d="M 6.390625 0 
L 6.390625 71.578125 
L 15.1875 71.578125 
L 15.1875 0 
z
" id="ArialMT-108"/>
      <path d="M 40.4375 19 
L 49.078125 17.875 
Q 47.65625 8.9375 41.8125 3.875 
Q 35.984375 -1.171875 27.484375 -1.171875 
Q 16.84375 -1.171875 10.375 5.78125 
Q 3.90625 12.75 3.90625 25.734375 
Q 3.90625 34.125 6.6875 40.421875 
Q 9.46875 46.734375 15.15625 49.875 
Q 20.84375 53.03125 27.546875 53.03125 
Q 35.984375 53.03125 41.359375 48.75 
Q 46.734375 44.484375 48.25 36.625 
L 39.703125 35.296875 
Q 38.484375 40.53125 35.375 43.15625 
Q 32.28125 45.796875 27.875 45.796875 
Q 21.234375 45.796875 17.078125 41.03125 
Q 12.9375 36.28125 12.9375 25.984375 
Q 12.9375 15.53125 16.9375 10.796875 
Q 20.953125 6.0625 27.390625 6.0625 
Q 32.5625 6.0625 36.03125 9.234375 
Q 39.5 12.40625 40.4375 19 
z
" id="ArialMT-99"/>
     </defs>
     <g style="fill:#262626;" transform="translate(234.98225 37.586875)scale(0.088 -0.088)">
      <use xlink:href="#ArialMT-86"/>
      <use x="66.589844" xlink:href="#ArialMT-97"/>
      <use x="122.205078" xlink:href="#ArialMT-108"/>
      <use x="144.421875" xlink:href="#ArialMT-101"/>
      <use x="200.037109" xlink:href="#ArialMT-110"/>
      <use x="255.652344" xlink:href="#ArialMT-99"/>
      <use x="305.652344" xlink:href="#ArialMT-101"/>
     </g>
    </g>
    <g id="line2d_32">
     <path d="M 210.34225 46.95475 
L 227.94225 46.95475 
" style="fill:none;stroke:#b22222;stroke-linecap:round;stroke-width:1.2;"/>
    </g>
    <g id="line2d_33"/>
    <g id="text_22">
     <!-- Positive -->
     <g style="fill:#262626;" transform="translate(234.98225 50.03475)scale(0.088 -0.088)">
      <use xlink:href="#ArialMT-80"/>
      <use x="66.699219" xlink:href="#ArialMT-111"/>
      <use x="122.314453" xlink:href="#ArialMT-115"/>
      <use x="172.314453" xlink:href="#ArialMT-105"/>
      <use x="194.53125" xlink:href="#ArialMT-116"/>
      <use x="222.314453" xlink:href="#ArialMT-105"/>
      <use x="244.53125" xlink:href="#ArialMT-118"/>
      <use x="294.53125" xlink:href="#ArialMT-101"/>
     </g>
    </g>
    <g id="line2d_34">
     <path d="M 210.34225 59.402625 
L 227.94225 59.402625 
" style="fill:none;stroke:#4682b4;stroke-linecap:round;stroke-width:1.2;"/>
    </g>
    <g id="line2d_35"/>
    <g id="text_23">
     <!-- Negative -->
     <defs>
      <path d="M 7.625 0 
L 7.625 71.578125 
L 17.328125 71.578125 
L 54.9375 15.375 
L 54.9375 71.578125 
L 64.015625 71.578125 
L 64.015625 0 
L 54.296875 0 
L 16.703125 56.25 
L 16.703125 0 
z
" id="ArialMT-78"/>
      <path d="M 4.984375 -4.296875 
L 13.53125 -5.5625 
Q 14.0625 -9.515625 16.5 -11.328125 
Q 19.78125 -13.765625 25.4375 -13.765625 
Q 31.546875 -13.765625 34.859375 -11.328125 
Q 38.1875 -8.890625 39.359375 -4.5 
Q 40.046875 -1.8125 39.984375 6.78125 
Q 34.234375 0 25.640625 0 
Q 14.9375 0 9.078125 7.71875 
Q 3.21875 15.4375 3.21875 26.21875 
Q 3.21875 33.640625 5.90625 39.90625 
Q 8.59375 46.1875 13.6875 49.609375 
Q 18.796875 53.03125 25.6875 53.03125 
Q 34.859375 53.03125 40.828125 45.609375 
L 40.828125 51.859375 
L 48.921875 51.859375 
L 48.921875 7.03125 
Q 48.921875 -5.078125 46.453125 -10.125 
Q 44 -15.1875 38.640625 -18.109375 
Q 33.296875 -21.046875 25.484375 -21.046875 
Q 16.21875 -21.046875 10.5 -16.875 
Q 4.78125 -12.703125 4.984375 -4.296875 
z
M 12.25 26.859375 
Q 12.25 16.65625 16.296875 11.96875 
Q 20.359375 7.28125 26.46875 7.28125 
Q 32.515625 7.28125 36.609375 11.9375 
Q 40.71875 16.609375 40.71875 26.5625 
Q 40.71875 36.078125 36.5 40.90625 
Q 32.28125 45.75 26.3125 45.75 
Q 20.453125 45.75 16.34375 40.984375 
Q 12.25 36.234375 12.25 26.859375 
z
" id="ArialMT-103"/>
     </defs>
     <g style="fill:#262626;" transform="translate(234.98225 62.482625)scale(0.088 -0.088)">
      <use xlink:href="#ArialMT-78"/>
      <use x="72.216797" xlink:href="#ArialMT-101"/>
      <use x="127.832031" xlink:href="#ArialMT-103"/>
      <use x="183.447266" xlink:href="#ArialMT-97"/>
      <use x="239.0625" xlink:href="#ArialMT-116"/>
      <use x="266.845703" xlink:href="#ArialMT-105"/>
      <use x="289.0625" xlink:href="#ArialMT-118"/>
      <use x="339.0625" xlink:href="#ArialMT-101"/>
     </g>
    </g>
    <g id="line2d_36">
     <path d="M 210.34225 71.953625 
L 227.94225 71.953625 
" style="fill:none;"/>
    </g>
    <g id="line2d_37"/>
    <g id="text_24">
     <!-- Arousal -->
     <defs>
      <path d="M -0.140625 0 
L 27.34375 71.578125 
L 37.546875 71.578125 
L 66.84375 0 
L 56.0625 0 
L 47.703125 21.6875 
L 17.78125 21.6875 
L 9.90625 0 
z
M 20.515625 29.390625 
L 44.78125 29.390625 
L 37.3125 49.21875 
Q 33.890625 58.25 32.234375 64.0625 
Q 30.859375 57.171875 28.375 50.390625 
z
" id="ArialMT-65"/>
      <path d="M 40.578125 0 
L 40.578125 7.625 
Q 34.515625 -1.171875 24.125 -1.171875 
Q 19.53125 -1.171875 15.546875 0.578125 
Q 11.578125 2.34375 9.640625 5 
Q 7.71875 7.671875 6.9375 11.53125 
Q 6.390625 14.109375 6.390625 19.734375 
L 6.390625 51.859375 
L 15.1875 51.859375 
L 15.1875 23.09375 
Q 15.1875 16.21875 15.71875 13.8125 
Q 16.546875 10.359375 19.234375 8.375 
Q 21.921875 6.390625 25.875 6.390625 
Q 29.828125 6.390625 33.296875 8.421875 
Q 36.765625 10.453125 38.203125 13.9375 
Q 39.65625 17.4375 39.65625 24.078125 
L 39.65625 51.859375 
L 48.4375 51.859375 
L 48.4375 0 
z
" id="ArialMT-117"/>
     </defs>
     <g style="fill:#262626;" transform="translate(234.98225 75.033625)scale(0.088 -0.088)">
      <use xlink:href="#ArialMT-65"/>
      <use x="66.699219" xlink:href="#ArialMT-114"/>
      <use x="100" xlink:href="#ArialMT-111"/>
      <use x="155.615234" xlink:href="#ArialMT-117"/>
      <use x="211.230469" xlink:href="#ArialMT-115"/>
      <use x="261.230469" xlink:href="#ArialMT-97"/>
      <use x="316.845703" xlink:href="#ArialMT-108"/>
     </g>
    </g>
    <g id="line2d_38">
     <path d="M 210.34225 84.4015 
L 227.94225 84.4015 
" style="fill:none;stroke:#333333;stroke-linecap:round;stroke-width:1.2;"/>
    </g>
    <g id="line2d_39"/>
    <g id="text_25">
     <!-- High -->
     <defs>
      <path d="M 6.59375 0 
L 6.59375 71.578125 
L 15.375 71.578125 
L 15.375 45.90625 
Q 21.53125 53.03125 30.90625 53.03125 
Q 36.671875 53.03125 40.921875 50.75 
Q 45.171875 48.484375 47 44.484375 
Q 48.828125 40.484375 48.828125 32.859375 
L 48.828125 0 
L 40.046875 0 
L 40.046875 32.859375 
Q 40.046875 39.453125 37.1875 42.453125 
Q 34.328125 45.453125 29.109375 45.453125 
Q 25.203125 45.453125 21.75 43.421875 
Q 18.3125 41.40625 16.84375 37.9375 
Q 15.375 34.46875 15.375 28.375 
L 15.375 0 
z
" id="ArialMT-104"/>
     </defs>
     <g style="fill:#262626;" transform="translate(234.98225 87.4815)scale(0.088 -0.088)">
      <use xlink:href="#ArialMT-72"/>
      <use x="72.216797" xlink:href="#ArialMT-105"/>
      <use x="94.433594" xlink:href="#ArialMT-103"/>
      <use x="150.048828" xlink:href="#ArialMT-104"/>
     </g>
    </g>
    <g id="line2d_40">
     <path d="M 210.34225 96.9525 
L 227.94225 96.9525 
" style="fill:none;stroke:#333333;stroke-dasharray:4.8,1.8;stroke-dashoffset:0;stroke-width:1.2;"/>
    </g>
    <g id="line2d_41"/>
    <g id="text_26">
     <!-- Low -->
     <defs>
      <path d="M 7.328125 0 
L 7.328125 71.578125 
L 16.796875 71.578125 
L 16.796875 8.453125 
L 52.046875 8.453125 
L 52.046875 0 
z
" id="ArialMT-76"/>
      <path d="M 16.15625 0 
L 0.296875 51.859375 
L 9.375 51.859375 
L 17.625 21.921875 
L 20.703125 10.796875 
Q 20.90625 11.625 23.390625 21.484375 
L 31.640625 51.859375 
L 40.671875 51.859375 
L 48.4375 21.78125 
L 51.03125 11.859375 
L 54 21.875 
L 62.890625 51.859375 
L 71.4375 51.859375 
L 55.21875 0 
L 46.09375 0 
L 37.84375 31.0625 
L 35.84375 39.890625 
L 25.34375 0 
z
" id="ArialMT-119"/>
     </defs>
     <g style="fill:#262626;" transform="translate(234.98225 100.0325)scale(0.088 -0.088)">
      <use xlink:href="#ArialMT-76"/>
      <use x="55.615234" xlink:href="#ArialMT-111"/>
      <use x="111.230469" xlink:href="#ArialMT-119"/>
     </g>
    </g>
   </g>
  </g>
 </g>
 <defs>
  <clipPath id="p1abc9ab242">
   <rect height="223.964" width="232.839" x="44.793" y="23.368"/>
  </clipPath>
 </defs>
</svg>
