<?xml version="1.0" encoding="utf-8" standalone="no"?>
<!DOCTYPE svg PUBLIC "-//W3C//DTD SVG 1.1//EN"
  "http://www.w3.org/Graphics/SVG/1.1/DTD/svg11.dtd">
<!-- Created with matplotlib (https://matplotlib.org/) -->
<svg height="288pt" version="1.1" viewBox="0 0 144 288" width="144pt" xmlns="http://www.w3.org/2000/svg" xmlns:xlink="http://www.w3.org/1999/xlink">
 <defs>
  <style type="text/css">
*{stroke-linecap:butt;stroke-linejoin:round;}
  </style>
 </defs>
 <g id="figure_1">
  <g id="patch_1">
   <path d="M 0 288 
L 144 288 
L 144 0 
L 0 0 
z
" style="fill:#ffffff;"/>
  </g>
  <g id="axes_1">
   <g id="patch_2">
    <path d="M 46.793 247.332 
L 133.632 247.332 
L 133.632 23.368 
L 46.793 23.368 
z
" style="fill:#ffffff;"/>
   </g>
   <g id="matplotlib.axis_1">
    <g id="xtick_1">
     <g id="line2d_1">
      <defs>
       <path d="M 0 0 
L 0 4.8 
" id="mc0b4d274e0" style="stroke:#262626;"/>
      </defs>
      <g>
       <use style="fill:#262626;stroke:#262626;" x="68.50275" xlink:href="#mc0b4d274e0" y="247.332"/>
      </g>
     </g>
     <g id="text_1">
      <!-- High -->
      <defs>
       <path d="M 8.015625 0 
L 8.015625 71.578125 
L 17.484375 71.578125 
L 17.484375 42.1875 
L 54.6875 42.1875 
L 54.6875 71.578125 
L 64.15625 71.578125 
L 64.15625 0 
L 54.6875 0 
L 54.6875 33.734375 
L 17.484375 33.734375 
L 17.484375 0 
z
" id="ArialMT-72"/>
       <path d="M 6.640625 61.46875 
L 6.640625 71.578125 
L 15.4375 71.578125 
L 15.4375 61.46875 
z
M 6.640625 0 
L 6.640625 51.859375 
L 15.4375 51.859375 
L 15.4375 0 
z
" id="ArialMT-105"/>
       <path d="M 4.984375 -4.296875 
L 13.53125 -5.5625 
Q 14.0625 -9.515625 16.5 -11.328125 
Q 19.78125 -13.765625 25.4375 -13.765625 
Q 31.546875 -13.765625 34.859375 -11.328125 
Q 38.1875 -8.890625 39.359375 -4.5 
Q 40.046875 -1.8125 39.984375 6.78125 
Q 34.234375 0 25.640625 0 
Q 14.9375 0 9.078125 7.71875 
Q 3.21875 15.4375 3.21875 26.21875 
Q 3.21875 33.640625 5.90625 39.90625 
Q 8.59375 46.1875 13.6875 49.609375 
Q 18.796875 53.03125 25.6875 53.03125 
Q 34.859375 53.03125 40.828125 45.609375 
L 40.828125 51.859375 
L 48.921875 51.859375 
L 48.921875 7.03125 
Q 48.921875 -5.078125 46.453125 -10.125 
Q 44 -15.1875 38.640625 -18.109375 
Q 33.296875 -21.046875 25.484375 -21.046875 
Q 16.21875 -21.046875 10.5 -16.875 
Q 4.78125 -12.703125 4.984375 -4.296875 
z
M 12.25 26.859375 
Q 12.25 16.65625 16.296875 11.96875 
Q 20.359375 7.28125 26.46875 7.28125 
Q 32.515625 7.28125 36.609375 11.9375 
Q 40.71875 16.609375 40.71875 26.5625 
Q 40.71875 36.078125 36.5 40.90625 
Q 32.28125 45.75 26.3125 45.75 
Q 20.453125 45.75 16.34375 40.984375 
Q 12.25 36.234375 12.25 26.859375 
z
" id="ArialMT-103"/>
       <path d="M 6.59375 0 
L 6.59375 71.578125 
L 15.375 71.578125 
L 15.375 45.90625 
Q 21.53125 53.03125 30.90625 53.03125 
Q 36.671875 53.03125 40.921875 50.75 
Q 45.171875 48.484375 47 44.484375 
Q 48.828125 40.484375 48.828125 32.859375 
L 48.828125 0 
L 40.046875 0 
L 40.046875 32.859375 
Q 40.046875 39.453125 37.1875 42.453125 
Q 34.328125 45.453125 29.109375 45.453125 
Q 25.203125 45.453125 21.75 43.421875 
Q 18.3125 41.40625 16.84375 37.9375 
Q 15.375 34.46875 15.375 28.375 
L 15.375 0 
z
" id="ArialMT-104"/>
      </defs>
      <g style="fill:#262626;" transform="translate(59.453875 261.930875)scale(0.088 -0.088)">
       <use xlink:href="#ArialMT-72"/>
       <use x="72.216797" xlink:href="#ArialMT-105"/>
       <use x="94.433594" xlink:href="#ArialMT-103"/>
       <use x="150.048828" xlink:href="#ArialMT-104"/>
      </g>
     </g>
    </g>
    <g id="xtick_2">
     <g id="line2d_2">
      <g>
       <use style="fill:#262626;stroke:#262626;" x="111.92225" xlink:href="#mc0b4d274e0" y="247.332"/>
      </g>
     </g>
     <g id="text_2">
      <!-- Low -->
      <defs>
       <path d="M 7.328125 0 
L 7.328125 71.578125 
L 16.796875 71.578125 
L 16.796875 8.453125 
L 52.046875 8.453125 
L 52.046875 0 
z
" id="ArialMT-76"/>
       <path d="M 3.328125 25.921875 
Q 3.328125 40.328125 11.328125 47.265625 
Q 18.015625 53.03125 27.640625 53.03125 
Q 38.328125 53.03125 45.109375 46.015625 
Q 51.90625 39.015625 51.90625 26.65625 
Q 51.90625 16.65625 48.90625 10.90625 
Q 45.90625 5.171875 40.15625 2 
Q 34.421875 -1.171875 27.640625 -1.171875 
Q 16.75 -1.171875 10.03125 5.8125 
Q 3.328125 12.796875 3.328125 25.921875 
z
M 12.359375 25.921875 
Q 12.359375 15.96875 16.703125 11.015625 
Q 21.046875 6.0625 27.640625 6.0625 
Q 34.1875 6.0625 38.53125 11.03125 
Q 42.875 16.015625 42.875 26.21875 
Q 42.875 35.84375 38.5 40.796875 
Q 34.125 45.75 27.640625 45.75 
Q 21.046875 45.75 16.703125 40.8125 
Q 12.359375 35.890625 12.359375 25.921875 
z
" id="ArialMT-111"/>
       <path d="M 16.15625 0 
L 0.296875 51.859375 
L 9.375 51.859375 
L 17.625 21.921875 
L 20.703125 10.796875 
Q 20.90625 11.625 23.390625 21.484375 
L 31.640625 51.859375 
L 40.671875 51.859375 
L 48.4375 21.78125 
L 51.03125 11.859375 
L 54 21.875 
L 62.890625 51.859375 
L 71.4375 51.859375 
L 55.21875 0 
L 46.09375 0 
L 37.84375 31.0625 
L 35.84375 39.890625 
L 25.34375 0 
z
" id="ArialMT-119"/>
      </defs>
      <g style="fill:#262626;" transform="translate(103.851 261.930875)scale(0.088 -0.088)">
       <use xlink:href="#ArialMT-76"/>
       <use x="55.615234" xlink:href="#ArialMT-111"/>
       <use x="111.230469" xlink:href="#ArialMT-119"/>
      </g>
     </g>
    </g>
    <g id="text_3">
     <!-- Arousal -->
     <defs>
      <path d="M -0.140625 0 
L 27.34375 71.578125 
L 37.546875 71.578125 
L 66.84375 0 
L 56.0625 0 
L 47.703125 21.6875 
L 17.78125 21.6875 
L 9.90625 0 
z
M 20.515625 29.390625 
L 44.78125 29.390625 
L 37.3125 49.21875 
Q 33.890625 58.25 32.234375 64.0625 
Q 30.859375 57.171875 28.375 50.390625 
z
" id="ArialMT-65"/>
      <path d="M 6.5 0 
L 6.5 51.859375 
L 14.40625 51.859375 
L 14.40625 44 
Q 17.4375 49.515625 20 51.265625 
Q 22.5625 53.03125 25.640625 53.03125 
Q 30.078125 53.03125 34.671875 50.203125 
L 31.640625 42.046875 
Q 28.421875 43.953125 25.203125 43.953125 
Q 22.3125 43.953125 20.015625 42.21875 
Q 17.71875 40.484375 16.75 37.40625 
Q 15.28125 32.71875 15.28125 27.15625 
L 15.28125 0 
z
" id="ArialMT-114"/>
      <path d="M 40.578125 0 
L 40.578125 7.625 
Q 34.515625 -1.171875 24.125 -1.171875 
Q 19.53125 -1.171875 15.546875 0.578125 
Q 11.578125 2.34375 9.640625 5 
Q 7.71875 7.671875 6.9375 11.53125 
Q 6.390625 14.109375 6.390625 19.734375 
L 6.390625 51.859375 
L 15.1875 51.859375 
L 15.1875 23.09375 
Q 15.1875 16.21875 15.71875 13.8125 
Q 16.546875 10.359375 19.234375 8.375 
Q 21.921875 6.390625 25.875 6.390625 
Q 29.828125 6.390625 33.296875 8.421875 
Q 36.765625 10.453125 38.203125 13.9375 
Q 39.65625 17.4375 39.65625 24.078125 
L 39.65625 51.859375 
L 48.4375 51.859375 
L 48.4375 0 
z
" id="ArialMT-117"/>
      <path d="M 3.078125 15.484375 
L 11.765625 16.84375 
Q 12.5 11.625 15.84375 8.84375 
Q 19.1875 6.0625 25.203125 6.0625 
Q 31.25 6.0625 34.171875 8.515625 
Q 37.109375 10.984375 37.109375 14.3125 
Q 37.109375 17.28125 34.515625 19 
Q 32.71875 20.171875 25.53125 21.96875 
Q 15.875 24.421875 12.140625 26.203125 
Q 8.40625 27.984375 6.46875 31.125 
Q 4.546875 34.28125 4.546875 38.09375 
Q 4.546875 41.546875 6.125 44.5 
Q 7.71875 47.46875 10.453125 49.421875 
Q 12.5 50.921875 16.03125 51.96875 
Q 19.578125 53.03125 23.640625 53.03125 
Q 29.734375 53.03125 34.34375 51.265625 
Q 38.96875 49.515625 41.15625 46.5 
Q 43.359375 43.5 44.1875 38.484375 
L 35.59375 37.3125 
Q 35.015625 41.3125 32.203125 43.546875 
Q 29.390625 45.796875 24.265625 45.796875 
Q 18.21875 45.796875 15.625 43.796875 
Q 13.03125 41.796875 13.03125 39.109375 
Q 13.03125 37.40625 14.109375 36.03125 
Q 15.1875 34.625 17.484375 33.6875 
Q 18.796875 33.203125 25.25 31.453125 
Q 34.578125 28.953125 38.25 27.359375 
Q 41.9375 25.78125 44.03125 22.75 
Q 46.140625 19.734375 46.140625 15.234375 
Q 46.140625 10.84375 43.578125 6.953125 
Q 41.015625 3.078125 36.171875 0.953125 
Q 31.34375 -1.171875 25.25 -1.171875 
Q 15.140625 -1.171875 9.84375 3.03125 
Q 4.546875 7.234375 3.078125 15.484375 
z
" id="ArialMT-115"/>
      <path d="M 40.4375 6.390625 
Q 35.546875 2.25 31.03125 0.53125 
Q 26.515625 -1.171875 21.34375 -1.171875 
Q 12.796875 -1.171875 8.203125 3 
Q 3.609375 7.171875 3.609375 13.671875 
Q 3.609375 17.484375 5.34375 20.625 
Q 7.078125 23.78125 9.890625 25.6875 
Q 12.703125 27.59375 16.21875 28.5625 
Q 18.796875 29.25 24.03125 29.890625 
Q 34.671875 31.15625 39.703125 32.90625 
Q 39.75 34.71875 39.75 35.203125 
Q 39.75 40.578125 37.25 42.78125 
Q 33.890625 45.75 27.25 45.75 
Q 21.046875 45.75 18.09375 43.578125 
Q 15.140625 41.40625 13.71875 35.890625 
L 5.125 37.0625 
Q 6.296875 42.578125 8.984375 45.96875 
Q 11.671875 49.359375 16.75 51.1875 
Q 21.828125 53.03125 28.515625 53.03125 
Q 35.15625 53.03125 39.296875 51.46875 
Q 43.453125 49.90625 45.40625 47.53125 
Q 47.359375 45.171875 48.140625 41.546875 
Q 48.578125 39.3125 48.578125 33.453125 
L 48.578125 21.734375 
Q 48.578125 9.46875 49.140625 6.21875 
Q 49.703125 2.984375 51.375 0 
L 42.1875 0 
Q 40.828125 2.734375 40.4375 6.390625 
z
M 39.703125 26.03125 
Q 34.90625 24.078125 25.34375 22.703125 
Q 19.921875 21.921875 17.671875 20.9375 
Q 15.4375 19.96875 14.203125 18.09375 
Q 12.984375 16.21875 12.984375 13.921875 
Q 12.984375 10.40625 15.640625 8.0625 
Q 18.3125 5.71875 23.4375 5.71875 
Q 28.515625 5.71875 32.46875 7.9375 
Q 36.421875 10.15625 38.28125 14.015625 
Q 39.703125 17 39.703125 22.796875 
z
" id="ArialMT-97"/>
      <path d="M 6.390625 0 
L 6.390625 71.578125 
L 15.1875 71.578125 
L 15.1875 0 
z
" id="ArialMT-108"/>
     </defs>
     <g style="fill:#262626;" transform="translate(73.93825 274.6545)scale(0.096 -0.096)">
      <use xlink:href="#ArialMT-65"/>
      <use x="66.699219" xlink:href="#ArialMT-114"/>
      <use x="100" xlink:href="#ArialMT-111"/>
      <use x="155.615234" xlink:href="#ArialMT-117"/>
      <use x="211.230469" xlink:href="#ArialMT-115"/>
      <use x="261.230469" xlink:href="#ArialMT-97"/>
      <use x="316.845703" xlink:href="#ArialMT-108"/>
     </g>
    </g>
   </g>
   <g id="matplotlib.axis_2">
    <g id="ytick_1">
     <g id="line2d_3">
      <defs>
       <path d="M 0 0 
L -4.8 0 
" id="m396b0761a7" style="stroke:#262626;"/>
      </defs>
      <g>
       <use style="fill:#262626;stroke:#262626;" x="46.793" xlink:href="#m396b0761a7" y="247.332"/>
      </g>
     </g>
     <g id="text_4">
      <!-- −4 -->
      <defs>
       <path d="M 52.828125 31.203125 
L 5.5625 31.203125 
L 5.5625 39.40625 
L 52.828125 39.40625 
z
" id="ArialMT-8722"/>
       <path d="M 32.328125 0 
L 32.328125 17.140625 
L 1.265625 17.140625 
L 1.265625 25.203125 
L 33.9375 71.578125 
L 41.109375 71.578125 
L 41.109375 25.203125 
L 50.78125 25.203125 
L 50.78125 17.140625 
L 41.109375 17.140625 
L 41.109375 0 
z
M 32.328125 25.203125 
L 32.328125 57.46875 
L 9.90625 25.203125 
z
" id="ArialMT-52"/>
      </defs>
      <g style="fill:#262626;" transform="translate(28.459625 250.481437)scale(0.088 -0.088)">
       <use xlink:href="#ArialMT-8722"/>
       <use x="58.398438" xlink:href="#ArialMT-52"/>
      </g>
     </g>
    </g>
    <g id="ytick_2">
     <g id="line2d_4">
      <g>
       <use style="fill:#262626;stroke:#262626;" x="46.793" xlink:href="#m396b0761a7" y="219.3365"/>
      </g>
     </g>
     <g id="text_5">
      <!-- −3 -->
      <defs>
       <path d="M 4.203125 18.890625 
L 12.984375 20.0625 
Q 14.5 12.59375 18.140625 9.296875 
Q 21.78125 6 27 6 
Q 33.203125 6 37.46875 10.296875 
Q 41.75 14.59375 41.75 20.953125 
Q 41.75 27 37.796875 30.921875 
Q 33.84375 34.859375 27.734375 34.859375 
Q 25.25 34.859375 21.53125 33.890625 
L 22.515625 41.609375 
Q 23.390625 41.5 23.921875 41.5 
Q 29.546875 41.5 34.03125 44.421875 
Q 38.53125 47.359375 38.53125 53.46875 
Q 38.53125 58.296875 35.25 61.46875 
Q 31.984375 64.65625 26.8125 64.65625 
Q 21.6875 64.65625 18.265625 61.421875 
Q 14.84375 58.203125 13.875 51.765625 
L 5.078125 53.328125 
Q 6.6875 62.15625 12.390625 67.015625 
Q 18.109375 71.875 26.609375 71.875 
Q 32.46875 71.875 37.390625 69.359375 
Q 42.328125 66.84375 44.9375 62.5 
Q 47.5625 58.15625 47.5625 53.265625 
Q 47.5625 48.640625 45.0625 44.828125 
Q 42.578125 41.015625 37.703125 38.765625 
Q 44.046875 37.3125 47.5625 32.6875 
Q 51.078125 28.078125 51.078125 21.140625 
Q 51.078125 11.765625 44.234375 5.25 
Q 37.40625 -1.265625 26.953125 -1.265625 
Q 17.53125 -1.265625 11.296875 4.34375 
Q 5.078125 9.96875 4.203125 18.890625 
z
" id="ArialMT-51"/>
      </defs>
      <g style="fill:#262626;" transform="translate(28.459625 222.485938)scale(0.088 -0.088)">
       <use xlink:href="#ArialMT-8722"/>
       <use x="58.398438" xlink:href="#ArialMT-51"/>
      </g>
     </g>
    </g>
    <g id="ytick_3">
     <g id="line2d_5">
      <g>
       <use style="fill:#262626;stroke:#262626;" x="46.793" xlink:href="#m396b0761a7" y="191.341"/>
      </g>
     </g>
     <g id="text_6">
      <!-- −2 -->
      <defs>
       <path d="M 50.34375 8.453125 
L 50.34375 0 
L 3.03125 0 
Q 2.9375 3.171875 4.046875 6.109375 
Q 5.859375 10.9375 9.828125 15.625 
Q 13.8125 20.3125 21.34375 26.46875 
Q 33.015625 36.03125 37.109375 41.625 
Q 41.21875 47.21875 41.21875 52.203125 
Q 41.21875 57.421875 37.46875 61 
Q 33.734375 64.59375 27.734375 64.59375 
Q 21.390625 64.59375 17.578125 60.78125 
Q 13.765625 56.984375 13.71875 50.25 
L 4.6875 51.171875 
Q 5.609375 61.28125 11.65625 66.578125 
Q 17.71875 71.875 27.9375 71.875 
Q 38.234375 71.875 44.234375 66.15625 
Q 50.25 60.453125 50.25 52 
Q 50.25 47.703125 48.484375 43.546875 
Q 46.734375 39.40625 42.65625 34.8125 
Q 38.578125 30.21875 29.109375 22.21875 
Q 21.1875 15.578125 18.9375 13.203125 
Q 16.703125 10.84375 15.234375 8.453125 
z
" id="ArialMT-50"/>
      </defs>
      <g style="fill:#262626;" transform="translate(28.459625 194.490437)scale(0.088 -0.088)">
       <use xlink:href="#ArialMT-8722"/>
       <use x="58.398438" xlink:href="#ArialMT-50"/>
      </g>
     </g>
    </g>
    <g id="ytick_4">
     <g id="line2d_6">
      <g>
       <use style="fill:#262626;stroke:#262626;" x="46.793" xlink:href="#m396b0761a7" y="163.3455"/>
      </g>
     </g>
     <g id="text_7">
      <!-- −1 -->
      <defs>
       <path d="M 37.25 0 
L 28.46875 0 
L 28.46875 56 
Q 25.296875 52.984375 20.140625 49.953125 
Q 14.984375 46.921875 10.890625 45.40625 
L 10.890625 53.90625 
Q 18.265625 57.375 23.78125 62.296875 
Q 29.296875 67.234375 31.59375 71.875 
L 37.25 71.875 
z
" id="ArialMT-49"/>
      </defs>
      <g style="fill:#262626;" transform="translate(28.459625 166.494937)scale(0.088 -0.088)">
       <use xlink:href="#ArialMT-8722"/>
       <use x="58.398438" xlink:href="#ArialMT-49"/>
      </g>
     </g>
    </g>
    <g id="ytick_5">
     <g id="line2d_7">
      <g>
       <use style="fill:#262626;stroke:#262626;" x="46.793" xlink:href="#m396b0761a7" y="135.35"/>
      </g>
     </g>
     <g id="text_8">
      <!-- 0 -->
      <defs>
       <path d="M 4.15625 35.296875 
Q 4.15625 48 6.765625 55.734375 
Q 9.375 63.484375 14.515625 67.671875 
Q 19.671875 71.875 27.484375 71.875 
Q 33.25 71.875 37.59375 69.546875 
Q 41.9375 67.234375 44.765625 62.859375 
Q 47.609375 58.5 49.21875 52.21875 
Q 50.828125 45.953125 50.828125 35.296875 
Q 50.828125 22.703125 48.234375 14.96875 
Q 45.65625 7.234375 40.5 3 
Q 35.359375 -1.21875 27.484375 -1.21875 
Q 17.140625 -1.21875 11.234375 6.203125 
Q 4.15625 15.140625 4.15625 35.296875 
z
M 13.1875 35.296875 
Q 13.1875 17.671875 17.3125 11.828125 
Q 21.4375 6 27.484375 6 
Q 33.546875 6 37.671875 11.859375 
Q 41.796875 17.71875 41.796875 35.296875 
Q 41.796875 52.984375 37.671875 58.78125 
Q 33.546875 64.59375 27.390625 64.59375 
Q 21.34375 64.59375 17.71875 59.46875 
Q 13.1875 52.9375 13.1875 35.296875 
z
" id="ArialMT-48"/>
      </defs>
      <g style="fill:#262626;" transform="translate(33.599375 138.499437)scale(0.088 -0.088)">
       <use xlink:href="#ArialMT-48"/>
      </g>
     </g>
    </g>
    <g id="ytick_6">
     <g id="line2d_8">
      <g>
       <use style="fill:#262626;stroke:#262626;" x="46.793" xlink:href="#m396b0761a7" y="107.3545"/>
      </g>
     </g>
     <g id="text_9">
      <!-- 1 -->
      <g style="fill:#262626;" transform="translate(33.599375 110.503938)scale(0.088 -0.088)">
       <use xlink:href="#ArialMT-49"/>
      </g>
     </g>
    </g>
    <g id="ytick_7">
     <g id="line2d_9">
      <g>
       <use style="fill:#262626;stroke:#262626;" x="46.793" xlink:href="#m396b0761a7" y="79.359"/>
      </g>
     </g>
     <g id="text_10">
      <!-- 2 -->
      <g style="fill:#262626;" transform="translate(33.599375 82.508437)scale(0.088 -0.088)">
       <use xlink:href="#ArialMT-50"/>
      </g>
     </g>
    </g>
    <g id="ytick_8">
     <g id="line2d_10">
      <g>
       <use style="fill:#262626;stroke:#262626;" x="46.793" xlink:href="#m396b0761a7" y="51.3635"/>
      </g>
     </g>
     <g id="text_11">
      <!-- 3 -->
      <g style="fill:#262626;" transform="translate(33.599375 54.512937)scale(0.088 -0.088)">
       <use xlink:href="#ArialMT-51"/>
      </g>
     </g>
    </g>
    <g id="ytick_9">
     <g id="line2d_11">
      <g>
       <use style="fill:#262626;stroke:#262626;" x="46.793" xlink:href="#m396b0761a7" y="23.368"/>
      </g>
     </g>
     <g id="text_12">
      <!-- 4 -->
      <g style="fill:#262626;" transform="translate(33.599375 26.517437)scale(0.088 -0.088)">
       <use xlink:href="#ArialMT-52"/>
      </g>
     </g>
    </g>
    <g id="text_13">
     <!-- Average $\Delta$ BPM -->
     <defs>
      <path d="M 21 0 
L 1.265625 51.859375 
L 10.546875 51.859375 
L 21.6875 20.796875 
Q 23.484375 15.765625 25 10.359375 
Q 26.171875 14.453125 28.265625 20.21875 
L 39.796875 51.859375 
L 48.828125 51.859375 
L 29.203125 0 
z
" id="ArialMT-118"/>
      <path d="M 42.09375 16.703125 
L 51.171875 15.578125 
Q 49.03125 7.625 43.21875 3.21875 
Q 37.40625 -1.171875 28.375 -1.171875 
Q 17 -1.171875 10.328125 5.828125 
Q 3.65625 12.84375 3.65625 25.484375 
Q 3.65625 38.578125 10.390625 45.796875 
Q 17.140625 53.03125 27.875 53.03125 
Q 38.28125 53.03125 44.875 45.953125 
Q 51.46875 38.875 51.46875 26.03125 
Q 51.46875 25.25 51.421875 23.6875 
L 12.75 23.6875 
Q 13.234375 15.140625 17.578125 10.59375 
Q 21.921875 6.0625 28.421875 6.0625 
Q 33.25 6.0625 36.671875 8.59375 
Q 40.09375 11.140625 42.09375 16.703125 
z
M 13.234375 30.90625 
L 42.1875 30.90625 
Q 41.609375 37.453125 38.875 40.71875 
Q 34.671875 45.796875 27.984375 45.796875 
Q 21.921875 45.796875 17.796875 41.75 
Q 13.671875 37.703125 13.234375 30.90625 
z
" id="ArialMT-101"/>
      <path id="ArialMT-32"/>
      <path d="M 34.1875 63.1875 
L 14.15625 8.203125 
L 54.25 8.203125 
z
M 0.78125 0 
L 28.609375 72.90625 
L 39.796875 72.90625 
L 67.578125 0 
z
" id="DejaVuSans-916"/>
      <path d="M 7.328125 0 
L 7.328125 71.578125 
L 34.1875 71.578125 
Q 42.390625 71.578125 47.34375 69.40625 
Q 52.296875 67.234375 55.09375 62.71875 
Q 57.90625 58.203125 57.90625 53.265625 
Q 57.90625 48.6875 55.421875 44.625 
Q 52.9375 40.578125 47.90625 38.09375 
Q 54.390625 36.1875 57.875 31.59375 
Q 61.375 27 61.375 20.75 
Q 61.375 15.71875 59.25 11.390625 
Q 57.125 7.078125 54 4.734375 
Q 50.875 2.390625 46.15625 1.1875 
Q 41.453125 0 34.625 0 
z
M 16.796875 41.5 
L 32.28125 41.5 
Q 38.578125 41.5 41.3125 42.328125 
Q 44.921875 43.40625 46.75 45.890625 
Q 48.578125 48.390625 48.578125 52.15625 
Q 48.578125 55.71875 46.875 58.421875 
Q 45.171875 61.140625 41.984375 62.140625 
Q 38.8125 63.140625 31.109375 63.140625 
L 16.796875 63.140625 
z
M 16.796875 8.453125 
L 34.625 8.453125 
Q 39.203125 8.453125 41.0625 8.796875 
Q 44.34375 9.375 46.53125 10.734375 
Q 48.734375 12.109375 50.140625 14.71875 
Q 51.5625 17.328125 51.5625 20.75 
Q 51.5625 24.75 49.515625 27.703125 
Q 47.46875 30.671875 43.828125 31.859375 
Q 40.1875 33.0625 33.34375 33.0625 
L 16.796875 33.0625 
z
" id="ArialMT-66"/>
      <path d="M 7.71875 0 
L 7.71875 71.578125 
L 34.71875 71.578125 
Q 41.84375 71.578125 45.609375 70.90625 
Q 50.875 70.015625 54.4375 67.546875 
Q 58.015625 65.09375 60.1875 60.640625 
Q 62.359375 56.203125 62.359375 50.875 
Q 62.359375 41.75 56.546875 35.421875 
Q 50.734375 29.109375 35.546875 29.109375 
L 17.1875 29.109375 
L 17.1875 0 
z
M 17.1875 37.546875 
L 35.6875 37.546875 
Q 44.875 37.546875 48.734375 40.96875 
Q 52.59375 44.390625 52.59375 50.59375 
Q 52.59375 55.078125 50.3125 58.265625 
Q 48.046875 61.46875 44.34375 62.5 
Q 41.9375 63.140625 35.5 63.140625 
L 17.1875 63.140625 
z
" id="ArialMT-80"/>
      <path d="M 7.421875 0 
L 7.421875 71.578125 
L 21.6875 71.578125 
L 38.625 20.90625 
Q 40.96875 13.8125 42.046875 10.296875 
Q 43.265625 14.203125 45.84375 21.78125 
L 62.984375 71.578125 
L 75.734375 71.578125 
L 75.734375 0 
L 66.609375 0 
L 66.609375 59.90625 
L 45.796875 0 
L 37.25 0 
L 16.546875 60.9375 
L 16.546875 0 
z
" id="ArialMT-77"/>
     </defs>
     <g style="fill:#262626;" transform="translate(22.347625 169.622)rotate(-90)scale(0.096 -0.096)">
      <use transform="translate(0 0.09375)" xlink:href="#ArialMT-65"/>
      <use transform="translate(66.699219 0.09375)" xlink:href="#ArialMT-118"/>
      <use transform="translate(116.699219 0.09375)" xlink:href="#ArialMT-101"/>
      <use transform="translate(172.314453 0.09375)" xlink:href="#ArialMT-114"/>
      <use transform="translate(205.615234 0.09375)" xlink:href="#ArialMT-97"/>
      <use transform="translate(261.230469 0.09375)" xlink:href="#ArialMT-103"/>
      <use transform="translate(316.845703 0.09375)" xlink:href="#ArialMT-101"/>
      <use transform="translate(372.460938 0.09375)" xlink:href="#ArialMT-32"/>
      <use transform="translate(400.244141 0.09375)" xlink:href="#DejaVuSans-916"/>
      <use transform="translate(468.652344 0.09375)" xlink:href="#ArialMT-32"/>
      <use transform="translate(496.435547 0.09375)" xlink:href="#ArialMT-66"/>
      <use transform="translate(563.134766 0.09375)" xlink:href="#ArialMT-80"/>
      <use transform="translate(629.833984 0.09375)" xlink:href="#ArialMT-77"/>
     </g>
    </g>
   </g>
   <g id="PathCollection_1"/>
   <g id="PathCollection_2"/>
   <g id="PathCollection_3">
    <defs>
     <path d="M 0 2.165727 
C 0.574357 2.165727 1.125268 1.937532 1.5314 1.5314 
C 1.937532 1.125268 2.165727 0.574357 2.165727 0 
C 2.165727 -0.574357 1.937532 -1.125268 1.5314 -1.5314 
C 1.125268 -1.937532 0.574357 -2.165727 0 -2.165727 
C -0.574357 -2.165727 -1.125268 -1.937532 -1.5314 -1.5314 
C -1.937532 -1.125268 -2.165727 -0.574357 -2.165727 0 
C -2.165727 0.574357 -1.937532 1.125268 -1.5314 1.5314 
C -1.125268 1.937532 -0.574357 2.165727 0 2.165727 
z
" id="m3c44dd9f6c" style="stroke:#4682b4;stroke-width:1.296;"/>
    </defs>
    <g clip-path="url(#p1ebd93a571)">
     <use style="fill:#4682b4;stroke:#4682b4;stroke-width:1.296;" x="67.417263" xlink:href="#m3c44dd9f6c" y="150.569632"/>
     <use style="fill:#4682b4;stroke:#4682b4;stroke-width:1.296;" x="110.836763" xlink:href="#m3c44dd9f6c" y="150.260254"/>
    </g>
   </g>
   <g id="line2d_12">
    <path clip-path="url(#p1ebd93a571)" d="M 67.417263 150.569632 
L 110.836763 150.260254 
" style="fill:none;stroke:#4682b4;stroke-linecap:round;stroke-width:1.728;"/>
   </g>
   <g id="line2d_13">
    <path clip-path="url(#p1ebd93a571)" d="M 67.417263 157.708631 
L 67.417263 144.012703 
" style="fill:none;stroke:#4682b4;stroke-linecap:round;stroke-width:2.16;"/>
   </g>
   <g id="line2d_14">
    <path clip-path="url(#p1ebd93a571)" d="M 110.836763 154.946273 
L 110.836763 145.470079 
" style="fill:none;stroke:#4682b4;stroke-linecap:round;stroke-width:2.16;"/>
   </g>
   <g id="PathCollection_4">
    <defs>
     <path d="M 0 2.165727 
C 0.574357 2.165727 1.125268 1.937532 1.5314 1.5314 
C 1.937532 1.125268 2.165727 0.574357 2.165727 0 
C 2.165727 -0.574357 1.937532 -1.125268 1.5314 -1.5314 
C 1.125268 -1.937532 0.574357 -2.165727 0 -2.165727 
C -0.574357 -2.165727 -1.125268 -1.937532 -1.5314 -1.5314 
C -1.937532 -1.125268 -2.165727 -0.574357 -2.165727 0 
C -2.165727 0.574357 -1.937532 1.125268 -1.5314 1.5314 
C -1.125268 1.937532 -0.574357 2.165727 0 2.165727 
z
" id="m7bc1aadc8c" style="stroke:#b22222;stroke-width:1.296;"/>
    </defs>
    <g clip-path="url(#p1ebd93a571)">
     <use style="fill:#b22222;stroke:#b22222;stroke-width:1.296;" x="69.588238" xlink:href="#m7bc1aadc8c" y="148.747663"/>
     <use style="fill:#b22222;stroke:#b22222;stroke-width:1.296;" x="113.007738" xlink:href="#m7bc1aadc8c" y="149.584701"/>
    </g>
   </g>
   <g id="line2d_15">
    <path clip-path="url(#p1ebd93a571)" d="M 46.793 135.35 
L 133.632 135.35 
" style="fill:none;stroke:#808080;stroke-dasharray:4.44,1.92;stroke-dashoffset:0;stroke-width:1.2;"/>
   </g>
   <g id="line2d_16">
    <path clip-path="url(#p1ebd93a571)" d="M 69.588238 148.747663 
L 113.007738 149.584701 
" style="fill:none;stroke:#b22222;stroke-linecap:round;stroke-width:1.728;"/>
   </g>
   <g id="line2d_17">
    <path clip-path="url(#p1ebd93a571)" d="M 69.588238 156.343525 
L 69.588238 142.004592 
" style="fill:none;stroke:#b22222;stroke-linecap:round;stroke-width:2.16;"/>
   </g>
   <g id="line2d_18">
    <path clip-path="url(#p1ebd93a571)" d="M 113.007738 155.892571 
L 113.007738 142.889065 
" style="fill:none;stroke:#b22222;stroke-linecap:round;stroke-width:2.16;"/>
   </g>
   <g id="patch_3">
    <path d="M 46.793 247.332 
L 46.793 23.368 
" style="fill:none;stroke:#262626;stroke-linecap:square;stroke-linejoin:miter;"/>
   </g>
   <g id="patch_4">
    <path d="M 46.793 247.332 
L 133.632 247.332 
" style="fill:none;stroke:#262626;stroke-linecap:square;stroke-linejoin:miter;"/>
   </g>
   <g id="PathCollection_5">
    <defs>
     <path d="M 0 2.5 
C 0.663008 2.5 1.29895 2.236584 1.767767 1.767767 
C 2.236584 1.29895 2.5 0.663008 2.5 0 
C 2.5 -0.663008 2.236584 -1.29895 1.767767 -1.767767 
C 1.29895 -2.236584 0.663008 -2.5 0 -2.5 
C -0.663008 -2.5 -1.29895 -2.236584 -1.767767 -1.767767 
C -2.236584 -1.29895 -2.5 -0.663008 -2.5 0 
C -2.5 0.663008 -2.236584 1.29895 -1.767767 1.767767 
C -1.29895 2.236584 -0.663008 2.5 0 2.5 
z
" id="C0_0_be784d1b03"/>
    </defs>
    <g clip-path="url(#p1ebd93a571)">
     <use style="fill:#4682b4;fill-opacity:0.6;stroke:#404040;stroke-opacity:0.6;" x="58.682249" xlink:href="#C0_0_be784d1b03" y="149.467158"/>
    </g>
    <g clip-path="url(#p1ebd93a571)">
     <use style="fill:#4682b4;fill-opacity:0.6;stroke:#404040;stroke-opacity:0.6;" x="60.620814" xlink:href="#C0_0_be784d1b03" y="137.403986"/>
    </g>
    <g clip-path="url(#p1ebd93a571)">
     <use style="fill:#4682b4;fill-opacity:0.6;stroke:#404040;stroke-opacity:0.6;" x="57.960053" xlink:href="#C0_0_be784d1b03" y="187.311899"/>
    </g>
    <g clip-path="url(#p1ebd93a571)">
     <use style="fill:#4682b4;fill-opacity:0.6;stroke:#404040;stroke-opacity:0.6;" x="58.023357" xlink:href="#C0_0_be784d1b03" y="170.583165"/>
    </g>
    <g clip-path="url(#p1ebd93a571)">
     <use style="fill:#4682b4;fill-opacity:0.6;stroke:#404040;stroke-opacity:0.6;" x="61.198938" xlink:href="#C0_0_be784d1b03" y="147.01524"/>
    </g>
    <g clip-path="url(#p1ebd93a571)">
     <use style="fill:#4682b4;fill-opacity:0.6;stroke:#404040;stroke-opacity:0.6;" x="58.753669" xlink:href="#C0_0_be784d1b03" y="165.036893"/>
    </g>
    <g clip-path="url(#p1ebd93a571)">
     <use style="fill:#4682b4;fill-opacity:0.6;stroke:#404040;stroke-opacity:0.6;" x="58.219949" xlink:href="#C0_0_be784d1b03" y="163.145539"/>
    </g>
    <g clip-path="url(#p1ebd93a571)">
     <use style="fill:#4682b4;fill-opacity:0.6;stroke:#404040;stroke-opacity:0.6;" x="58.566886" xlink:href="#C0_0_be784d1b03" y="133.349158"/>
    </g>
    <g clip-path="url(#p1ebd93a571)">
     <use style="fill:#4682b4;fill-opacity:0.6;stroke:#404040;stroke-opacity:0.6;" x="61.822614" xlink:href="#C0_0_be784d1b03" y="134.971593"/>
    </g>
    <g clip-path="url(#p1ebd93a571)">
     <use style="fill:#4682b4;fill-opacity:0.6;stroke:#404040;stroke-opacity:0.6;" x="61.877086" xlink:href="#C0_0_be784d1b03" y="181.823401"/>
    </g>
    <g clip-path="url(#p1ebd93a571)">
     <use style="fill:#4682b4;fill-opacity:0.6;stroke:#404040;stroke-opacity:0.6;" x="61.656284" xlink:href="#C0_0_be784d1b03" y="137.963761"/>
    </g>
    <g clip-path="url(#p1ebd93a571)">
     <use style="fill:#4682b4;fill-opacity:0.6;stroke:#404040;stroke-opacity:0.6;" x="57.887169" xlink:href="#C0_0_be784d1b03" y="130.202728"/>
    </g>
    <g clip-path="url(#p1ebd93a571)">
     <use style="fill:#4682b4;fill-opacity:0.6;stroke:#404040;stroke-opacity:0.6;" x="61.552596" xlink:href="#C0_0_be784d1b03" y="144.944196"/>
    </g>
    <g clip-path="url(#p1ebd93a571)">
     <use style="fill:#4682b4;fill-opacity:0.6;stroke:#404040;stroke-opacity:0.6;" x="61.771752" xlink:href="#C0_0_be784d1b03" y="134.046161"/>
    </g>
    <g clip-path="url(#p1ebd93a571)">
     <use style="fill:#4682b4;fill-opacity:0.6;stroke:#404040;stroke-opacity:0.6;" x="61.243531" xlink:href="#C0_0_be784d1b03" y="144.641287"/>
    </g>
    <g clip-path="url(#p1ebd93a571)">
     <use style="fill:#4682b4;fill-opacity:0.6;stroke:#404040;stroke-opacity:0.6;" x="57.900187" xlink:href="#C0_0_be784d1b03" y="147.644791"/>
    </g>
    <g clip-path="url(#p1ebd93a571)">
     <use style="fill:#4682b4;fill-opacity:0.6;stroke:#404040;stroke-opacity:0.6;" x="60.727186" xlink:href="#C0_0_be784d1b03" y="164.292232"/>
    </g>
    <g clip-path="url(#p1ebd93a571)">
     <use style="fill:#4682b4;fill-opacity:0.6;stroke:#404040;stroke-opacity:0.6;" x="59.885264" xlink:href="#C0_0_be784d1b03" y="156.185559"/>
    </g>
    <g clip-path="url(#p1ebd93a571)">
     <use style="fill:#4682b4;fill-opacity:0.6;stroke:#404040;stroke-opacity:0.6;" x="59.511703" xlink:href="#C0_0_be784d1b03" y="164.951813"/>
    </g>
    <g clip-path="url(#p1ebd93a571)">
     <use style="fill:#4682b4;fill-opacity:0.6;stroke:#404040;stroke-opacity:0.6;" x="58.017937" xlink:href="#C0_0_be784d1b03" y="122.563236"/>
    </g>
    <g clip-path="url(#p1ebd93a571)">
     <use style="fill:#4682b4;fill-opacity:0.6;stroke:#404040;stroke-opacity:0.6;" x="61.937053" xlink:href="#C0_0_be784d1b03" y="174.109662"/>
    </g>
    <g clip-path="url(#p1ebd93a571)">
     <use style="fill:#4682b4;fill-opacity:0.6;stroke:#404040;stroke-opacity:0.6;" x="57.745364" xlink:href="#C0_0_be784d1b03" y="196.997048"/>
    </g>
    <g clip-path="url(#p1ebd93a571)">
     <use style="fill:#4682b4;fill-opacity:0.6;stroke:#404040;stroke-opacity:0.6;" x="59.09204" xlink:href="#C0_0_be784d1b03" y="128.447751"/>
    </g>
    <g clip-path="url(#p1ebd93a571)">
     <use style="fill:#4682b4;fill-opacity:0.6;stroke:#404040;stroke-opacity:0.6;" x="57.927648" xlink:href="#C0_0_be784d1b03" y="145.556914"/>
    </g>
    <g clip-path="url(#p1ebd93a571)">
     <use style="fill:#4682b4;fill-opacity:0.6;stroke:#404040;stroke-opacity:0.6;" x="59.398203" xlink:href="#C0_0_be784d1b03" y="133.042382"/>
    </g>
    <g clip-path="url(#p1ebd93a571)">
     <use style="fill:#4682b4;fill-opacity:0.6;stroke:#404040;stroke-opacity:0.6;" x="58.138463" xlink:href="#C0_0_be784d1b03" y="144.299812"/>
    </g>
    <g clip-path="url(#p1ebd93a571)">
     <use style="fill:#4682b4;fill-opacity:0.6;stroke:#404040;stroke-opacity:0.6;" x="60.520078" xlink:href="#C0_0_be784d1b03" y="145.904505"/>
    </g>
    <g clip-path="url(#p1ebd93a571)">
     <use style="fill:#4682b4;fill-opacity:0.6;stroke:#404040;stroke-opacity:0.6;" x="61.05216" xlink:href="#C0_0_be784d1b03" y="126.863061"/>
    </g>
    <g clip-path="url(#p1ebd93a571)">
     <use style="fill:#4682b4;fill-opacity:0.6;stroke:#404040;stroke-opacity:0.6;" x="59.040669" xlink:href="#C0_0_be784d1b03" y="153.754392"/>
    </g>
   </g>
   <g id="PathCollection_6">
    <defs>
     <path d="M 0 2.5 
C 0.663008 2.5 1.29895 2.236584 1.767767 1.767767 
C 2.236584 1.29895 2.5 0.663008 2.5 0 
C 2.5 -0.663008 2.236584 -1.29895 1.767767 -1.767767 
C 1.29895 -2.236584 0.663008 -2.5 0 -2.5 
C -0.663008 -2.5 -1.29895 -2.236584 -1.767767 -1.767767 
C -2.236584 -1.29895 -2.5 -0.663008 -2.5 0 
C -2.5 0.663008 -2.236584 1.29895 -1.767767 1.767767 
C -1.29895 2.236584 -0.663008 2.5 0 2.5 
z
" id="C1_0_dc09f434b6"/>
    </defs>
    <g clip-path="url(#p1ebd93a571)">
     <use style="fill:#b22222;fill-opacity:0.6;stroke:#404040;stroke-opacity:0.6;" x="78.115932" xlink:href="#C1_0_dc09f434b6" y="125.294229"/>
    </g>
    <g clip-path="url(#p1ebd93a571)">
     <use style="fill:#b22222;fill-opacity:0.6;stroke:#404040;stroke-opacity:0.6;" x="78.928055" xlink:href="#C1_0_dc09f434b6" y="133.122891"/>
    </g>
    <g clip-path="url(#p1ebd93a571)">
     <use style="fill:#b22222;fill-opacity:0.6;stroke:#404040;stroke-opacity:0.6;" x="77.265394" xlink:href="#C1_0_dc09f434b6" y="180.770845"/>
    </g>
    <g clip-path="url(#p1ebd93a571)">
     <use style="fill:#b22222;fill-opacity:0.6;stroke:#404040;stroke-opacity:0.6;" x="75.100964" xlink:href="#C1_0_dc09f434b6" y="173.078968"/>
    </g>
    <g clip-path="url(#p1ebd93a571)">
     <use style="fill:#b22222;fill-opacity:0.6;stroke:#404040;stroke-opacity:0.6;" x="77.451823" xlink:href="#C1_0_dc09f434b6" y="166.736405"/>
    </g>
    <g clip-path="url(#p1ebd93a571)">
     <use style="fill:#b22222;fill-opacity:0.6;stroke:#404040;stroke-opacity:0.6;" x="76.197705" xlink:href="#C1_0_dc09f434b6" y="156.341188"/>
    </g>
    <g clip-path="url(#p1ebd93a571)">
     <use style="fill:#b22222;fill-opacity:0.6;stroke:#404040;stroke-opacity:0.6;" x="78.182951" xlink:href="#C1_0_dc09f434b6" y="154.490294"/>
    </g>
    <g clip-path="url(#p1ebd93a571)">
     <use style="fill:#b22222;fill-opacity:0.6;stroke:#404040;stroke-opacity:0.6;" x="79.202364" xlink:href="#C1_0_dc09f434b6" y="128.942453"/>
    </g>
    <g clip-path="url(#p1ebd93a571)">
     <use style="fill:#b22222;fill-opacity:0.6;stroke:#404040;stroke-opacity:0.6;" x="77.201008" xlink:href="#C1_0_dc09f434b6" y="150.559798"/>
    </g>
    <g clip-path="url(#p1ebd93a571)">
     <use style="fill:#b22222;fill-opacity:0.6;stroke:#404040;stroke-opacity:0.6;" x="79.117267" xlink:href="#C1_0_dc09f434b6" y="195.607997"/>
    </g>
    <g clip-path="url(#p1ebd93a571)">
     <use style="fill:#b22222;fill-opacity:0.6;stroke:#404040;stroke-opacity:0.6;" x="77.606482" xlink:href="#C1_0_dc09f434b6" y="128.655878"/>
    </g>
    <g clip-path="url(#p1ebd93a571)">
     <use style="fill:#b22222;fill-opacity:0.6;stroke:#404040;stroke-opacity:0.6;" x="75.804448" xlink:href="#C1_0_dc09f434b6" y="133.658226"/>
    </g>
    <g clip-path="url(#p1ebd93a571)">
     <use style="fill:#b22222;fill-opacity:0.6;stroke:#404040;stroke-opacity:0.6;" x="76.905277" xlink:href="#C1_0_dc09f434b6" y="113.700083"/>
    </g>
    <g clip-path="url(#p1ebd93a571)">
     <use style="fill:#b22222;fill-opacity:0.6;stroke:#404040;stroke-opacity:0.6;" x="75.309673" xlink:href="#C1_0_dc09f434b6" y="161.31296"/>
    </g>
    <g clip-path="url(#p1ebd93a571)">
     <use style="fill:#b22222;fill-opacity:0.6;stroke:#404040;stroke-opacity:0.6;" x="75.107437" xlink:href="#C1_0_dc09f434b6" y="137.74039"/>
    </g>
    <g clip-path="url(#p1ebd93a571)">
     <use style="fill:#b22222;fill-opacity:0.6;stroke:#404040;stroke-opacity:0.6;" x="78.770477" xlink:href="#C1_0_dc09f434b6" y="139.608676"/>
    </g>
    <g clip-path="url(#p1ebd93a571)">
     <use style="fill:#b22222;fill-opacity:0.6;stroke:#404040;stroke-opacity:0.6;" x="76.984625" xlink:href="#C1_0_dc09f434b6" y="160.208495"/>
    </g>
    <g clip-path="url(#p1ebd93a571)">
     <use style="fill:#b22222;fill-opacity:0.6;stroke:#404040;stroke-opacity:0.6;" x="75.151712" xlink:href="#C1_0_dc09f434b6" y="162.50609"/>
    </g>
    <g clip-path="url(#p1ebd93a571)">
     <use style="fill:#b22222;fill-opacity:0.6;stroke:#404040;stroke-opacity:0.6;" x="75.541375" xlink:href="#C1_0_dc09f434b6" y="166.957365"/>
    </g>
    <g clip-path="url(#p1ebd93a571)">
     <use style="fill:#b22222;fill-opacity:0.6;stroke:#404040;stroke-opacity:0.6;" x="77.781534" xlink:href="#C1_0_dc09f434b6" y="114.026346"/>
    </g>
    <g clip-path="url(#p1ebd93a571)">
     <use style="fill:#b22222;fill-opacity:0.6;stroke:#404040;stroke-opacity:0.6;" x="77.669691" xlink:href="#C1_0_dc09f434b6" y="171.745117"/>
    </g>
    <g clip-path="url(#p1ebd93a571)">
     <use style="fill:#b22222;fill-opacity:0.6;stroke:#404040;stroke-opacity:0.6;" x="78.731217" xlink:href="#C1_0_dc09f434b6" y="158.351312"/>
    </g>
    <g clip-path="url(#p1ebd93a571)">
     <use style="fill:#b22222;fill-opacity:0.6;stroke:#404040;stroke-opacity:0.6;" x="75.974978" xlink:href="#C1_0_dc09f434b6" y="138.944365"/>
    </g>
    <g clip-path="url(#p1ebd93a571)">
     <use style="fill:#b22222;fill-opacity:0.6;stroke:#404040;stroke-opacity:0.6;" x="76.363107" xlink:href="#C1_0_dc09f434b6" y="140.178408"/>
    </g>
    <g clip-path="url(#p1ebd93a571)">
     <use style="fill:#b22222;fill-opacity:0.6;stroke:#404040;stroke-opacity:0.6;" x="78.020531" xlink:href="#C1_0_dc09f434b6" y="130.119928"/>
    </g>
    <g clip-path="url(#p1ebd93a571)">
     <use style="fill:#b22222;fill-opacity:0.6;stroke:#404040;stroke-opacity:0.6;" x="76.492113" xlink:href="#C1_0_dc09f434b6" y="140.654643"/>
    </g>
    <g clip-path="url(#p1ebd93a571)">
     <use style="fill:#b22222;fill-opacity:0.6;stroke:#404040;stroke-opacity:0.6;" x="76.245708" xlink:href="#C1_0_dc09f434b6" y="158.814286"/>
    </g>
    <g clip-path="url(#p1ebd93a571)">
     <use style="fill:#b22222;fill-opacity:0.6;stroke:#404040;stroke-opacity:0.6;" x="78.429682" xlink:href="#C1_0_dc09f434b6" y="132.962881"/>
    </g>
    <g clip-path="url(#p1ebd93a571)">
     <use style="fill:#b22222;fill-opacity:0.6;stroke:#404040;stroke-opacity:0.6;" x="76.055798" xlink:href="#C1_0_dc09f434b6" y="158.591717"/>
    </g>
   </g>
   <g id="PathCollection_7">
    <defs>
     <path d="M 0 2.5 
C 0.663008 2.5 1.29895 2.236584 1.767767 1.767767 
C 2.236584 1.29895 2.5 0.663008 2.5 0 
C 2.5 -0.663008 2.236584 -1.29895 1.767767 -1.767767 
C 1.29895 -2.236584 0.663008 -2.5 0 -2.5 
C -0.663008 -2.5 -1.29895 -2.236584 -1.767767 -1.767767 
C -2.236584 -1.29895 -2.5 -0.663008 -2.5 0 
C -2.5 0.663008 -2.236584 1.29895 -1.767767 1.767767 
C -1.29895 2.236584 -0.663008 2.5 0 2.5 
z
" id="C2_0_965ed0ab6a"/>
    </defs>
    <g clip-path="url(#p1ebd93a571)">
     <use style="fill:#4682b4;fill-opacity:0.6;stroke:#404040;stroke-opacity:0.6;" x="103.761611" xlink:href="#C2_0_965ed0ab6a" y="152.079846"/>
    </g>
    <g clip-path="url(#p1ebd93a571)">
     <use style="fill:#4682b4;fill-opacity:0.6;stroke:#404040;stroke-opacity:0.6;" x="104.115359" xlink:href="#C2_0_965ed0ab6a" y="138.402736"/>
    </g>
    <g clip-path="url(#p1ebd93a571)">
     <use style="fill:#4682b4;fill-opacity:0.6;stroke:#404040;stroke-opacity:0.6;" x="102.830399" xlink:href="#C2_0_965ed0ab6a" y="172.457687"/>
    </g>
    <g clip-path="url(#p1ebd93a571)">
     <use style="fill:#4682b4;fill-opacity:0.6;stroke:#404040;stroke-opacity:0.6;" x="103.223256" xlink:href="#C2_0_965ed0ab6a" y="174.90263"/>
    </g>
    <g clip-path="url(#p1ebd93a571)">
     <use style="fill:#4682b4;fill-opacity:0.6;stroke:#404040;stroke-opacity:0.6;" x="102.191231" xlink:href="#C2_0_965ed0ab6a" y="155.445257"/>
    </g>
    <g clip-path="url(#p1ebd93a571)">
     <use style="fill:#4682b4;fill-opacity:0.6;stroke:#404040;stroke-opacity:0.6;" x="105.311503" xlink:href="#C2_0_965ed0ab6a" y="157.89326"/>
    </g>
    <g clip-path="url(#p1ebd93a571)">
     <use style="fill:#4682b4;fill-opacity:0.6;stroke:#404040;stroke-opacity:0.6;" x="105.024206" xlink:href="#C2_0_965ed0ab6a" y="166.296007"/>
    </g>
    <g clip-path="url(#p1ebd93a571)">
     <use style="fill:#4682b4;fill-opacity:0.6;stroke:#404040;stroke-opacity:0.6;" x="103.226906" xlink:href="#C2_0_965ed0ab6a" y="136.035381"/>
    </g>
    <g clip-path="url(#p1ebd93a571)">
     <use style="fill:#4682b4;fill-opacity:0.6;stroke:#404040;stroke-opacity:0.6;" x="103.275123" xlink:href="#C2_0_965ed0ab6a" y="150.952369"/>
    </g>
    <g clip-path="url(#p1ebd93a571)">
     <use style="fill:#4682b4;fill-opacity:0.6;stroke:#404040;stroke-opacity:0.6;" x="101.335698" xlink:href="#C2_0_965ed0ab6a" y="163.592662"/>
    </g>
    <g clip-path="url(#p1ebd93a571)">
     <use style="fill:#4682b4;fill-opacity:0.6;stroke:#404040;stroke-opacity:0.6;" x="102.9319" xlink:href="#C2_0_965ed0ab6a" y="148.33569"/>
    </g>
    <g clip-path="url(#p1ebd93a571)">
     <use style="fill:#4682b4;fill-opacity:0.6;stroke:#404040;stroke-opacity:0.6;" x="101.147154" xlink:href="#C2_0_965ed0ab6a" y="132.042198"/>
    </g>
    <g clip-path="url(#p1ebd93a571)">
     <use style="fill:#4682b4;fill-opacity:0.6;stroke:#404040;stroke-opacity:0.6;" x="101.498159" xlink:href="#C2_0_965ed0ab6a" y="134.829953"/>
    </g>
    <g clip-path="url(#p1ebd93a571)">
     <use style="fill:#4682b4;fill-opacity:0.6;stroke:#404040;stroke-opacity:0.6;" x="103.250248" xlink:href="#C2_0_965ed0ab6a" y="135.928607"/>
    </g>
    <g clip-path="url(#p1ebd93a571)">
     <use style="fill:#4682b4;fill-opacity:0.6;stroke:#404040;stroke-opacity:0.6;" x="104.485631" xlink:href="#C2_0_965ed0ab6a" y="142.326363"/>
    </g>
    <g clip-path="url(#p1ebd93a571)">
     <use style="fill:#4682b4;fill-opacity:0.6;stroke:#404040;stroke-opacity:0.6;" x="102.899535" xlink:href="#C2_0_965ed0ab6a" y="157.630244"/>
    </g>
    <g clip-path="url(#p1ebd93a571)">
     <use style="fill:#4682b4;fill-opacity:0.6;stroke:#404040;stroke-opacity:0.6;" x="102.850203" xlink:href="#C2_0_965ed0ab6a" y="166.229471"/>
    </g>
    <g clip-path="url(#p1ebd93a571)">
     <use style="fill:#4682b4;fill-opacity:0.6;stroke:#404040;stroke-opacity:0.6;" x="101.614493" xlink:href="#C2_0_965ed0ab6a" y="158.214504"/>
    </g>
    <g clip-path="url(#p1ebd93a571)">
     <use style="fill:#4682b4;fill-opacity:0.6;stroke:#404040;stroke-opacity:0.6;" x="101.551125" xlink:href="#C2_0_965ed0ab6a" y="159.655828"/>
    </g>
    <g clip-path="url(#p1ebd93a571)">
     <use style="fill:#4682b4;fill-opacity:0.6;stroke:#404040;stroke-opacity:0.6;" x="102.116737" xlink:href="#C2_0_965ed0ab6a" y="146.356247"/>
    </g>
    <g clip-path="url(#p1ebd93a571)">
     <use style="fill:#4682b4;fill-opacity:0.6;stroke:#404040;stroke-opacity:0.6;" x="104.002633" xlink:href="#C2_0_965ed0ab6a" y="158.65604"/>
    </g>
    <g clip-path="url(#p1ebd93a571)">
     <use style="fill:#4682b4;fill-opacity:0.6;stroke:#404040;stroke-opacity:0.6;" x="104.30309" xlink:href="#C2_0_965ed0ab6a" y="139.446481"/>
    </g>
    <g clip-path="url(#p1ebd93a571)">
     <use style="fill:#4682b4;fill-opacity:0.6;stroke:#404040;stroke-opacity:0.6;" x="103.110607" xlink:href="#C2_0_965ed0ab6a" y="145.771703"/>
    </g>
    <g clip-path="url(#p1ebd93a571)">
     <use style="fill:#4682b4;fill-opacity:0.6;stroke:#404040;stroke-opacity:0.6;" x="104.835116" xlink:href="#C2_0_965ed0ab6a" y="143.092668"/>
    </g>
    <g clip-path="url(#p1ebd93a571)">
     <use style="fill:#4682b4;fill-opacity:0.6;stroke:#404040;stroke-opacity:0.6;" x="101.385724" xlink:href="#C2_0_965ed0ab6a" y="142.516468"/>
    </g>
    <g clip-path="url(#p1ebd93a571)">
     <use style="fill:#4682b4;fill-opacity:0.6;stroke:#404040;stroke-opacity:0.6;" x="103.709125" xlink:href="#C2_0_965ed0ab6a" y="145.380427"/>
    </g>
    <g clip-path="url(#p1ebd93a571)">
     <use style="fill:#4682b4;fill-opacity:0.6;stroke:#404040;stroke-opacity:0.6;" x="102.445003" xlink:href="#C2_0_965ed0ab6a" y="155.268561"/>
    </g>
    <g clip-path="url(#p1ebd93a571)">
     <use style="fill:#4682b4;fill-opacity:0.6;stroke:#404040;stroke-opacity:0.6;" x="101.738215" xlink:href="#C2_0_965ed0ab6a" y="116.21527"/>
    </g>
    <g clip-path="url(#p1ebd93a571)">
     <use style="fill:#4682b4;fill-opacity:0.6;stroke:#404040;stroke-opacity:0.6;" x="102.20587" xlink:href="#C2_0_965ed0ab6a" y="161.592813"/>
    </g>
   </g>
   <g id="PathCollection_8">
    <defs>
     <path d="M 0 2.5 
C 0.663008 2.5 1.29895 2.236584 1.767767 1.767767 
C 2.236584 1.29895 2.5 0.663008 2.5 0 
C 2.5 -0.663008 2.236584 -1.29895 1.767767 -1.767767 
C 1.29895 -2.236584 0.663008 -2.5 0 -2.5 
C -0.663008 -2.5 -1.29895 -2.236584 -1.767767 -1.767767 
C -2.236584 -1.29895 -2.5 -0.663008 -2.5 0 
C -2.5 0.663008 -2.236584 1.29895 -1.767767 1.767767 
C -1.29895 2.236584 -0.663008 2.5 0 2.5 
z
" id="C3_0_dd78b6dc55"/>
    </defs>
    <g clip-path="url(#p1ebd93a571)">
     <use style="fill:#b22222;fill-opacity:0.6;stroke:#404040;stroke-opacity:0.6;" x="121.75398" xlink:href="#C3_0_dd78b6dc55" y="142.850372"/>
    </g>
    <g clip-path="url(#p1ebd93a571)">
     <use style="fill:#b22222;fill-opacity:0.6;stroke:#404040;stroke-opacity:0.6;" x="122.146938" xlink:href="#C3_0_dd78b6dc55" y="119.135495"/>
    </g>
    <g clip-path="url(#p1ebd93a571)">
     <use style="fill:#b22222;fill-opacity:0.6;stroke:#404040;stroke-opacity:0.6;" x="121.670574" xlink:href="#C3_0_dd78b6dc55" y="174.005916"/>
    </g>
    <g clip-path="url(#p1ebd93a571)">
     <use style="fill:#b22222;fill-opacity:0.6;stroke:#404040;stroke-opacity:0.6;" x="119.241768" xlink:href="#C3_0_dd78b6dc55" y="165.181794"/>
    </g>
    <g clip-path="url(#p1ebd93a571)">
     <use style="fill:#b22222;fill-opacity:0.6;stroke:#404040;stroke-opacity:0.6;" x="121.707758" xlink:href="#C3_0_dd78b6dc55" y="133.632964"/>
    </g>
    <g clip-path="url(#p1ebd93a571)">
     <use style="fill:#b22222;fill-opacity:0.6;stroke:#404040;stroke-opacity:0.6;" x="122.022665" xlink:href="#C3_0_dd78b6dc55" y="157.197985"/>
    </g>
    <g clip-path="url(#p1ebd93a571)">
     <use style="fill:#b22222;fill-opacity:0.6;stroke:#404040;stroke-opacity:0.6;" x="122.72328" xlink:href="#C3_0_dd78b6dc55" y="170.891296"/>
    </g>
    <g clip-path="url(#p1ebd93a571)">
     <use style="fill:#b22222;fill-opacity:0.6;stroke:#404040;stroke-opacity:0.6;" x="118.511988" xlink:href="#C3_0_dd78b6dc55" y="133.888631"/>
    </g>
    <g clip-path="url(#p1ebd93a571)">
     <use style="fill:#b22222;fill-opacity:0.6;stroke:#404040;stroke-opacity:0.6;" x="118.795336" xlink:href="#C3_0_dd78b6dc55" y="164.168574"/>
    </g>
    <g clip-path="url(#p1ebd93a571)">
     <use style="fill:#b22222;fill-opacity:0.6;stroke:#404040;stroke-opacity:0.6;" x="122.756261" xlink:href="#C3_0_dd78b6dc55" y="197.711664"/>
    </g>
    <g clip-path="url(#p1ebd93a571)">
     <use style="fill:#b22222;fill-opacity:0.6;stroke:#404040;stroke-opacity:0.6;" x="122.534846" xlink:href="#C3_0_dd78b6dc55" y="129.891566"/>
    </g>
    <g clip-path="url(#p1ebd93a571)">
     <use style="fill:#b22222;fill-opacity:0.6;stroke:#404040;stroke-opacity:0.6;" x="121.553576" xlink:href="#C3_0_dd78b6dc55" y="110.257286"/>
    </g>
    <g clip-path="url(#p1ebd93a571)">
     <use style="fill:#b22222;fill-opacity:0.6;stroke:#404040;stroke-opacity:0.6;" x="119.479945" xlink:href="#C3_0_dd78b6dc55" y="153.305065"/>
    </g>
    <g clip-path="url(#p1ebd93a571)">
     <use style="fill:#b22222;fill-opacity:0.6;stroke:#404040;stroke-opacity:0.6;" x="120.964577" xlink:href="#C3_0_dd78b6dc55" y="152.11144"/>
    </g>
    <g clip-path="url(#p1ebd93a571)">
     <use style="fill:#b22222;fill-opacity:0.6;stroke:#404040;stroke-opacity:0.6;" x="121.127504" xlink:href="#C3_0_dd78b6dc55" y="141.264806"/>
    </g>
    <g clip-path="url(#p1ebd93a571)">
     <use style="fill:#b22222;fill-opacity:0.6;stroke:#404040;stroke-opacity:0.6;" x="121.316742" xlink:href="#C3_0_dd78b6dc55" y="159.005547"/>
    </g>
    <g clip-path="url(#p1ebd93a571)">
     <use style="fill:#b22222;fill-opacity:0.6;stroke:#404040;stroke-opacity:0.6;" x="119.105663" xlink:href="#C3_0_dd78b6dc55" y="156.250794"/>
    </g>
    <g clip-path="url(#p1ebd93a571)">
     <use style="fill:#b22222;fill-opacity:0.6;stroke:#404040;stroke-opacity:0.6;" x="119.725237" xlink:href="#C3_0_dd78b6dc55" y="149.694162"/>
    </g>
    <g clip-path="url(#p1ebd93a571)">
     <use style="fill:#b22222;fill-opacity:0.6;stroke:#404040;stroke-opacity:0.6;" x="119.710878" xlink:href="#C3_0_dd78b6dc55" y="160.866793"/>
    </g>
    <g clip-path="url(#p1ebd93a571)">
     <use style="fill:#b22222;fill-opacity:0.6;stroke:#404040;stroke-opacity:0.6;" x="119.559496" xlink:href="#C3_0_dd78b6dc55" y="125.018396"/>
    </g>
    <g clip-path="url(#p1ebd93a571)">
     <use style="fill:#b22222;fill-opacity:0.6;stroke:#404040;stroke-opacity:0.6;" x="120.198477" xlink:href="#C3_0_dd78b6dc55" y="177.187035"/>
    </g>
    <g clip-path="url(#p1ebd93a571)">
     <use style="fill:#b22222;fill-opacity:0.6;stroke:#404040;stroke-opacity:0.6;" x="120.919344" xlink:href="#C3_0_dd78b6dc55" y="161.440733"/>
    </g>
    <g clip-path="url(#p1ebd93a571)">
     <use style="fill:#b22222;fill-opacity:0.6;stroke:#404040;stroke-opacity:0.6;" x="118.838558" xlink:href="#C3_0_dd78b6dc55" y="131.371713"/>
    </g>
    <g clip-path="url(#p1ebd93a571)">
     <use style="fill:#b22222;fill-opacity:0.6;stroke:#404040;stroke-opacity:0.6;" x="120.823035" xlink:href="#C3_0_dd78b6dc55" y="144.558459"/>
    </g>
    <g clip-path="url(#p1ebd93a571)">
     <use style="fill:#b22222;fill-opacity:0.6;stroke:#404040;stroke-opacity:0.6;" x="121.220108" xlink:href="#C3_0_dd78b6dc55" y="132.788681"/>
    </g>
    <g clip-path="url(#p1ebd93a571)">
     <use style="fill:#b22222;fill-opacity:0.6;stroke:#404040;stroke-opacity:0.6;" x="122.656599" xlink:href="#C3_0_dd78b6dc55" y="138.152869"/>
    </g>
    <g clip-path="url(#p1ebd93a571)">
     <use style="fill:#b22222;fill-opacity:0.6;stroke:#404040;stroke-opacity:0.6;" x="118.720462" xlink:href="#C3_0_dd78b6dc55" y="153.6919"/>
    </g>
    <g clip-path="url(#p1ebd93a571)">
     <use style="fill:#b22222;fill-opacity:0.6;stroke:#404040;stroke-opacity:0.6;" x="120.694267" xlink:href="#C3_0_dd78b6dc55" y="158.809639"/>
    </g>
    <g clip-path="url(#p1ebd93a571)">
     <use style="fill:#b22222;fill-opacity:0.6;stroke:#404040;stroke-opacity:0.6;" x="118.527825" xlink:href="#C3_0_dd78b6dc55" y="143.624751"/>
    </g>
   </g>
   <g id="text_14">
    <!-- Average BPM -->
    <g style="fill:#262626;" transform="translate(60.601 17.368)scale(0.096 -0.096)">
     <use xlink:href="#ArialMT-65"/>
     <use x="66.683594" xlink:href="#ArialMT-118"/>
     <use x="116.683594" xlink:href="#ArialMT-101"/>
     <use x="172.298828" xlink:href="#ArialMT-114"/>
     <use x="205.599609" xlink:href="#ArialMT-97"/>
     <use x="261.214844" xlink:href="#ArialMT-103"/>
     <use x="316.830078" xlink:href="#ArialMT-101"/>
     <use x="372.445312" xlink:href="#ArialMT-32"/>
     <use x="400.228516" xlink:href="#ArialMT-66"/>
     <use x="466.927734" xlink:href="#ArialMT-80"/>
     <use x="533.626953" xlink:href="#ArialMT-77"/>
    </g>
   </g>
  </g>
 </g>
 <defs>
  <clipPath id="p1ebd93a571">
   <rect height="223.964" width="86.839" x="46.793" y="23.368"/>
  </clipPath>
 </defs>
</svg>
