<?xml version="1.0" encoding="utf-8" standalone="no"?>
<!DOCTYPE svg PUBLIC "-//W3C//DTD SVG 1.1//EN"
  "http://www.w3.org/Graphics/SVG/1.1/DTD/svg11.dtd">
<!-- Created with matplotlib (https://matplotlib.org/) -->
<svg height="432pt" version="1.1" viewBox="0 0 576 432" width="576pt" xmlns="http://www.w3.org/2000/svg" xmlns:xlink="http://www.w3.org/1999/xlink">
 <defs>
  <style type="text/css">
*{stroke-linecap:butt;stroke-linejoin:round;}
  </style>
 </defs>
 <g id="figure_1">
  <g id="patch_1">
   <path d="M 0 432 
L 576 432 
L 576 0 
L 0 0 
z
" style="fill:#ffffff;"/>
  </g>
  <g id="axes_1">
   <g id="patch_2">
    <path d="M 98.065 363.06 
L 556.56 363.06 
L 556.56 22.814277 
L 98.065 22.814277 
z
" style="fill:#ffffff;"/>
   </g>
   <g id="PolyCollection_1">
    <defs>
     <path d="M 118.905682 -163.629062 
L 118.905682 -145.525927 
L 119.701128 -146.401549 
L 120.496574 -147.368905 
L 121.292019 -148.673203 
L 122.087465 -149.650697 
L 122.882911 -150.523146 
L 123.678357 -151.506973 
L 124.473803 -152.037119 
L 125.269249 -152.666863 
L 126.064695 -153.120851 
L 126.860141 -153.646965 
L 127.655586 -153.829025 
L 128.451032 -154.164813 
L 129.246478 -154.498243 
L 130.041924 -154.773465 
L 130.83737 -154.846248 
L 131.632816 -154.885479 
L 132.428262 -155.183278 
L 133.223707 -155.214486 
L 134.019153 -155.250289 
L 134.814599 -155.326627 
L 135.610045 -155.21629 
L 136.405491 -155.245505 
L 137.200937 -155.090359 
L 137.996383 -155.056832 
L 138.791829 -154.975605 
L 139.587274 -154.829451 
L 140.38272 -154.599211 
L 141.178166 -154.597113 
L 141.973612 -154.449565 
L 142.769058 -154.397289 
L 143.564504 -154.3482 
L 144.35995 -154.337469 
L 145.155396 -154.472766 
L 145.950841 -154.572667 
L 146.746287 -154.68744 
L 147.541733 -154.947303 
L 148.337179 -155.139313 
L 149.132625 -155.466172 
L 149.928071 -155.851562 
L 150.723517 -155.907305 
L 151.518963 -156.196375 
L 152.314408 -156.481616 
L 153.109854 -156.617707 
L 153.9053 -156.726207 
L 154.700746 -156.750172 
L 155.496192 -156.634425 
L 156.291638 -156.557768 
L 157.087084 -156.46143 
L 157.882529 -156.172112 
L 158.677975 -155.669682 
L 159.473421 -155.261182 
L 160.268867 -154.776145 
L 161.064313 -154.141603 
L 161.859759 -153.416661 
L 162.655205 -152.514212 
L 163.450651 -151.787365 
L 164.246096 -151.038343 
L 165.041542 -149.975663 
L 165.836988 -149.179643 
L 166.632434 -148.218136 
L 167.42788 -147.370553 
L 168.223326 -146.36104 
L 169.018772 -145.423259 
L 169.814218 -144.458885 
L 170.609663 -143.524921 
L 171.405109 -142.610116 
L 172.200555 -141.817348 
L 172.996001 -141.174452 
L 173.791447 -140.134146 
L 174.586893 -139.309739 
L 175.382339 -138.486519 
L 176.177785 -137.934036 
L 176.97323 -137.30274 
L 177.768676 -136.277949 
L 178.564122 -135.978019 
L 179.359568 -135.11507 
L 180.155014 -133.98767 
L 180.95046 -133.601937 
L 181.745906 -132.644633 
L 182.541351 -132.521529 
L 183.336797 -131.41745 
L 184.132243 -130.844576 
L 184.927689 -130.399301 
L 185.723135 -129.377405 
L 186.518581 -128.889446 
L 187.314027 -128.530116 
L 188.109473 -127.564822 
L 188.904918 -127.816861 
L 189.700364 -126.87521 
L 190.49581 -126.458585 
L 191.291256 -126.476823 
L 192.086702 -126.114087 
L 192.882148 -126.223274 
L 193.677594 -125.772649 
L 194.47304 -125.831956 
L 195.268485 -125.430345 
L 196.063931 -125.344445 
L 196.859377 -125.809949 
L 197.654823 -125.842685 
L 198.450269 -125.504152 
L 199.245715 -126.099875 
L 200.041161 -125.923201 
L 200.836607 -126.552112 
L 201.632052 -126.429352 
L 202.427498 -126.747173 
L 203.222944 -127.188089 
L 204.01839 -127.369508 
L 204.813836 -127.315641 
L 205.609282 -127.550872 
L 206.404728 -127.672202 
L 207.200173 -127.765659 
L 207.995619 -127.798683 
L 208.791065 -127.942999 
L 209.586511 -127.840176 
L 210.381957 -128.215537 
L 211.177403 -127.907286 
L 211.972849 -128.116243 
L 212.768295 -128.19779 
L 213.56374 -128.07868 
L 214.359186 -127.865283 
L 215.154632 -128.113338 
L 215.950078 -127.744323 
L 216.745524 -127.500476 
L 217.54097 -127.067677 
L 218.336416 -126.969911 
L 219.131862 -126.772442 
L 219.927307 -126.37576 
L 220.722753 -125.858919 
L 221.518199 -125.7246 
L 222.313645 -125.284905 
L 223.109091 -124.409231 
L 223.904537 -123.760214 
L 224.699983 -122.942266 
L 225.495429 -122.544711 
L 226.290874 -121.407517 
L 227.08632 -120.91051 
L 227.881766 -120.270785 
L 228.677212 -119.572842 
L 229.472658 -118.74832 
L 230.268104 -118.185567 
L 231.06355 -117.65861 
L 231.858995 -116.828237 
L 232.654441 -115.945761 
L 233.449887 -115.722978 
L 234.245333 -115.329276 
L 235.040779 -114.651018 
L 235.836225 -114.443914 
L 236.631671 -114.08061 
L 237.427117 -113.357578 
L 238.222562 -113.19137 
L 239.018008 -112.717113 
L 239.813454 -112.633622 
L 240.6089 -112.132575 
L 241.404346 -111.731689 
L 242.199792 -111.461072 
L 242.995238 -110.656507 
L 243.790684 -110.727029 
L 244.586129 -109.887902 
L 245.381575 -109.223034 
L 246.177021 -108.251074 
L 246.972467 -107.830994 
L 247.767913 -107.118733 
L 248.563359 -106.417069 
L 249.358805 -105.537753 
L 250.154251 -104.688021 
L 250.949696 -103.837859 
L 251.745142 -103.434073 
L 252.540588 -102.503334 
L 253.336034 -101.457653 
L 254.13148 -100.840758 
L 254.926926 -99.743039 
L 255.722372 -98.754013 
L 256.517817 -98.613453 
L 257.313263 -97.850469 
L 258.108709 -97.336788 
L 258.904155 -96.846901 
L 259.699601 -96.157853 
L 260.495047 -95.307034 
L 261.290493 -95.171215 
L 262.085939 -94.354858 
L 262.881384 -94.024517 
L 263.67683 -93.516134 
L 264.472276 -92.9595 
L 265.267722 -92.516615 
L 266.063168 -91.983717 
L 266.858614 -91.345072 
L 267.65406 -91.189882 
L 268.449506 -90.100534 
L 269.244951 -90.242623 
L 270.040397 -89.910875 
L 270.835843 -89.12141 
L 271.631289 -88.895192 
L 272.426735 -88.110913 
L 273.222181 -88.76396 
L 274.017627 -88.642872 
L 274.813073 -88.288718 
L 275.608518 -88.003121 
L 276.403964 -88.447789 
L 277.19941 -87.967591 
L 277.994856 -88.907289 
L 278.790302 -88.597407 
L 279.585748 -88.628977 
L 280.381194 -89.370249 
L 281.176639 -89.917733 
L 281.972085 -89.58565 
L 282.767531 -90.841497 
L 283.562977 -90.439933 
L 284.358423 -90.272046 
L 285.153869 -90.924423 
L 285.949315 -90.79024 
L 286.744761 -91.100778 
L 287.540206 -91.566934 
L 288.335652 -91.852223 
L 289.131098 -91.764979 
L 289.926544 -91.906002 
L 290.72199 -91.554838 
L 291.517436 -91.061971 
L 292.312882 -90.747346 
L 293.108328 -90.271742 
L 293.903773 -90.59259 
L 294.699219 -90.608407 
L 295.494665 -89.745665 
L 296.290111 -89.989285 
L 297.085557 -89.514956 
L 297.881003 -89.409893 
L 298.676449 -89.422051 
L 299.471895 -89.051291 
L 300.26734 -89.052272 
L 301.062786 -89.104448 
L 301.858232 -89.101751 
L 302.653678 -90.070633 
L 303.449124 -90.041664 
L 304.24457 -90.087338 
L 305.040016 -90.372646 
L 305.835461 -90.347112 
L 306.630907 -89.82297 
L 307.426353 -89.934585 
L 308.221799 -90.232843 
L 309.017245 -89.588077 
L 309.812691 -89.937634 
L 310.608137 -90.026044 
L 311.403583 -89.219306 
L 312.199028 -88.413398 
L 312.994474 -88.699403 
L 313.78992 -87.682124 
L 314.585366 -87.662269 
L 315.380812 -87.030125 
L 316.176258 -86.340691 
L 316.971704 -85.905736 
L 317.76715 -86.047983 
L 318.562595 -85.660345 
L 319.358041 -84.828805 
L 320.153487 -85.035471 
L 320.948933 -84.928671 
L 321.744379 -84.725351 
L 322.539825 -84.605174 
L 323.335271 -84.405715 
L 324.130717 -85.367445 
L 324.926162 -85.104433 
L 325.721608 -85.31452 
L 326.517054 -86.1308 
L 327.3125 -86.178517 
L 328.107946 -86.775863 
L 328.903392 -87.907436 
L 329.698838 -88.025846 
L 330.494283 -88.542836 
L 331.289729 -90.015899 
L 332.085175 -91.136545 
L 332.880621 -92.317481 
L 333.676067 -94.173859 
L 334.471513 -94.035874 
L 335.266959 -96.146636 
L 336.062405 -96.867 
L 336.85785 -98.320286 
L 337.653296 -99.842385 
L 338.448742 -101.347856 
L 339.244188 -102.791067 
L 340.039634 -103.538055 
L 340.83508 -106.327016 
L 341.630526 -108.50533 
L 342.425972 -108.806086 
L 343.221417 -111.39186 
L 344.016863 -112.340895 
L 344.812309 -113.79195 
L 345.607755 -115.452447 
L 346.403201 -117.203169 
L 347.198647 -119.165019 
L 347.994093 -120.456889 
L 348.789539 -122.275607 
L 349.584984 -124.148672 
L 350.38043 -124.78676 
L 351.175876 -126.612272 
L 351.971322 -128.233634 
L 352.766768 -129.351206 
L 353.562214 -131.371014 
L 354.35766 -133.312508 
L 355.153105 -135.229831 
L 355.948551 -136.368044 
L 356.743997 -138.318475 
L 357.539443 -139.188125 
L 358.334889 -140.403949 
L 359.130335 -142.348342 
L 359.925781 -143.226839 
L 360.721227 -144.432416 
L 361.516672 -146.123607 
L 362.312118 -146.624477 
L 363.107564 -148.449196 
L 363.90301 -149.562819 
L 364.698456 -150.275253 
L 365.493902 -151.538427 
L 366.289348 -152.804507 
L 367.084794 -154.887352 
L 367.880239 -155.373404 
L 368.675685 -156.784226 
L 369.471131 -157.840312 
L 370.266577 -159.821168 
L 371.062023 -161.530955 
L 371.857469 -162.943102 
L 372.652915 -164.416071 
L 373.448361 -165.887524 
L 374.243806 -168.615076 
L 375.039252 -169.86934 
L 375.834698 -171.520457 
L 376.630144 -174.165216 
L 377.42559 -175.844641 
L 378.221036 -178.304637 
L 379.016482 -179.329352 
L 379.811927 -181.346516 
L 380.607373 -184.014754 
L 381.402819 -185.651313 
L 382.198265 -187.529343 
L 382.993711 -189.62012 
L 383.789157 -191.916611 
L 384.584603 -193.817168 
L 385.380049 -195.570486 
L 386.175494 -197.632948 
L 386.97094 -199.064997 
L 387.766386 -202.310662 
L 388.561832 -204.205083 
L 389.357278 -206.525533 
L 390.152724 -209.128391 
L 390.94817 -210.30836 
L 391.743616 -212.852745 
L 392.539061 -214.838524 
L 393.334507 -217.308207 
L 394.129953 -218.192814 
L 394.925399 -220.455205 
L 395.720845 -222.795287 
L 396.516291 -225.111037 
L 397.311737 -226.483456 
L 398.107183 -228.654684 
L 398.902628 -230.734351 
L 399.698074 -232.579932 
L 400.49352 -234.932649 
L 401.288966 -237.327936 
L 402.084412 -239.091709 
L 402.879858 -241.131741 
L 403.675304 -242.755229 
L 404.470749 -244.975169 
L 405.266195 -247.737963 
L 406.061641 -248.234849 
L 406.857087 -251.786465 
L 407.652533 -253.85932 
L 408.447979 -255.843534 
L 409.243425 -257.278738 
L 410.038871 -259.579948 
L 410.834316 -261.512755 
L 411.629762 -263.947292 
L 412.425208 -265.675491 
L 413.220654 -267.708826 
L 414.0161 -269.315154 
L 414.811546 -271.553108 
L 415.606992 -273.262305 
L 416.402438 -275.048515 
L 417.197883 -276.080531 
L 417.993329 -278.113015 
L 418.788775 -279.862315 
L 419.584221 -281.565495 
L 420.379667 -282.742476 
L 421.175113 -284.064975 
L 421.970559 -285.526685 
L 422.766005 -287.260191 
L 423.56145 -288.619672 
L 424.356896 -289.876228 
L 425.152342 -291.24557 
L 425.947788 -291.857141 
L 426.743234 -292.810224 
L 427.53868 -294.326156 
L 428.334126 -295.707701 
L 429.129571 -297.122543 
L 429.925017 -296.774862 
L 430.720463 -298.794757 
L 431.515909 -300.106979 
L 432.311355 -300.696098 
L 433.106801 -302.852854 
L 433.902247 -303.149346 
L 434.697693 -303.90374 
L 435.493138 -305.749013 
L 436.288584 -307.2563 
L 437.08403 -308.511147 
L 437.879476 -308.725055 
L 438.674922 -310.591941 
L 439.470368 -311.661675 
L 440.265814 -312.20262 
L 441.06126 -313.948915 
L 441.856705 -314.323468 
L 442.652151 -316.385795 
L 443.447597 -317.78018 
L 444.243043 -318.303995 
L 445.038489 -319.26401 
L 445.833935 -320.1178 
L 446.629381 -320.566736 
L 447.424827 -322.220282 
L 448.220272 -322.469168 
L 449.015718 -323.487206 
L 449.811164 -324.395451 
L 450.60661 -324.82433 
L 451.402056 -325.958171 
L 452.197502 -326.526105 
L 452.992948 -327.606298 
L 453.788393 -328.773467 
L 454.583839 -328.707871 
L 455.379285 -329.523318 
L 456.174731 -330.144497 
L 456.970177 -330.821421 
L 457.765623 -331.390386 
L 458.561069 -331.931888 
L 459.356515 -332.042152 
L 460.15196 -332.629959 
L 460.947406 -333.313468 
L 461.742852 -334.170859 
L 462.538298 -334.196956 
L 463.333744 -334.510261 
L 464.12919 -334.755591 
L 464.924636 -335.11952 
L 465.720082 -335.843721 
L 466.515527 -336.227504 
L 467.310973 -336.252515 
L 468.106419 -335.242715 
L 468.901865 -335.193707 
L 469.697311 -335.952439 
L 470.492757 -335.212998 
L 471.288203 -335.347399 
L 472.083649 -334.825933 
L 472.879094 -334.703099 
L 473.67454 -334.189071 
L 474.469986 -334.778186 
L 475.265432 -334.019645 
L 476.060878 -333.27827 
L 476.856324 -333.491285 
L 477.65177 -332.681327 
L 478.447215 -331.917584 
L 479.242661 -331.924427 
L 480.038107 -330.667402 
L 480.833553 -331.36785 
L 481.628999 -329.979488 
L 482.424445 -330.140278 
L 483.219891 -329.50123 
L 484.015337 -329.35008 
L 484.810782 -329.430292 
L 485.606228 -328.704093 
L 486.401674 -328.097412 
L 487.19712 -328.431905 
L 487.992566 -328.213889 
L 488.788012 -327.598744 
L 489.583458 -326.793291 
L 490.378904 -325.551287 
L 491.174349 -325.950179 
L 491.969795 -325.787519 
L 492.765241 -324.795841 
L 493.560687 -323.861182 
L 494.356133 -323.746555 
L 495.151579 -321.825785 
L 495.947025 -321.233678 
L 496.742471 -319.981364 
L 497.537916 -320.093116 
L 498.333362 -318.655791 
L 499.128808 -317.979433 
L 499.924254 -316.595594 
L 500.7197 -315.513383 
L 501.515146 -314.1028 
L 502.310592 -313.581883 
L 503.106037 -311.433305 
L 503.901483 -310.677216 
L 504.696929 -310.062744 
L 505.492375 -308.386812 
L 506.287821 -306.986437 
L 507.083267 -304.839438 
L 507.878713 -302.377243 
L 508.674159 -302.593755 
L 509.469604 -300.581137 
L 510.26505 -299.436535 
L 511.060496 -297.43762 
L 511.855942 -296.469871 
L 512.651388 -294.280923 
L 513.446834 -292.95421 
L 514.24228 -291.607823 
L 515.037726 -289.54982 
L 515.833171 -287.887943 
L 516.628617 -287.572186 
L 517.424063 -283.929283 
L 518.219509 -283.486535 
L 519.014955 -281.829299 
L 519.810401 -279.151049 
L 520.605847 -278.001455 
L 521.401293 -276.182906 
L 522.196738 -274.366056 
L 522.992184 -274.129401 
L 523.78763 -271.116205 
L 524.583076 -269.906231 
L 525.378522 -268.937949 
L 526.173968 -267.65253 
L 526.969414 -266.226834 
L 527.764859 -264.745187 
L 528.560305 -263.469271 
L 529.355751 -262.021477 
L 530.151197 -260.614711 
L 530.946643 -259.344811 
L 531.742089 -258.249168 
L 532.537535 -256.317181 
L 533.332981 -255.276429 
L 534.128426 -254.218616 
L 534.923872 -252.964726 
L 535.719318 -250.902908 
L 535.719318 -308.52045 
L 535.719318 -308.52045 
L 534.923872 -309.440651 
L 534.128426 -311.563918 
L 533.332981 -312.245705 
L 532.537535 -314.738176 
L 531.742089 -314.922656 
L 530.946643 -316.280028 
L 530.151197 -318.403385 
L 529.355751 -320.547689 
L 528.560305 -320.937457 
L 527.764859 -322.917023 
L 526.969414 -325.026262 
L 526.173968 -326.223864 
L 525.378522 -327.90491 
L 524.583076 -329.889659 
L 523.78763 -331.59281 
L 522.992184 -333.348503 
L 522.196738 -334.833242 
L 521.401293 -336.991056 
L 520.605847 -338.216719 
L 519.810401 -340.385612 
L 519.014955 -342.443536 
L 518.219509 -342.911178 
L 517.424063 -344.321188 
L 516.628617 -346.699567 
L 515.833171 -347.630598 
L 515.037726 -350.031184 
L 514.24228 -351.772957 
L 513.446834 -352.818435 
L 512.651388 -354.322736 
L 511.855942 -357.116738 
L 511.060496 -357.422541 
L 510.26505 -358.93937 
L 509.469604 -361.023885 
L 508.674159 -363.381132 
L 507.878713 -365.050629 
L 507.083267 -366.533688 
L 506.287821 -368.74774 
L 505.492375 -369.518387 
L 504.696929 -370.798883 
L 503.901483 -372.792064 
L 503.106037 -373.587851 
L 502.310592 -375.386817 
L 501.515146 -377.0002 
L 500.7197 -377.822722 
L 499.924254 -379.915346 
L 499.128808 -381.087573 
L 498.333362 -381.370673 
L 497.537916 -383.756856 
L 496.742471 -384.456593 
L 495.947025 -385.371602 
L 495.151579 -386.735166 
L 494.356133 -386.690307 
L 493.560687 -387.406134 
L 492.765241 -388.262545 
L 491.969795 -389.025158 
L 491.174349 -389.686159 
L 490.378904 -389.854339 
L 489.583458 -389.760326 
L 488.788012 -390.17823 
L 487.992566 -391.037628 
L 487.19712 -391.381985 
L 486.401674 -390.333359 
L 485.606228 -390.949343 
L 484.810782 -391.698786 
L 484.015337 -391.006714 
L 483.219891 -390.865299 
L 482.424445 -389.772618 
L 481.628999 -391.506245 
L 480.833553 -391.718266 
L 480.038107 -392.321281 
L 479.242661 -392.429906 
L 478.447215 -392.501344 
L 477.65177 -392.171684 
L 476.856324 -391.933203 
L 476.060878 -392.260674 
L 475.265432 -392.986713 
L 474.469986 -392.361895 
L 473.67454 -392.431375 
L 472.879094 -391.865735 
L 472.083649 -393.657969 
L 471.288203 -393.269717 
L 470.492757 -393.720008 
L 469.697311 -393.390674 
L 468.901865 -392.116906 
L 468.106419 -391.569354 
L 467.310973 -392.891097 
L 466.515527 -392.663278 
L 465.720082 -392.725436 
L 464.924636 -391.828226 
L 464.12919 -391.900535 
L 463.333744 -391.338988 
L 462.538298 -391.220223 
L 461.742852 -390.571356 
L 460.947406 -389.641579 
L 460.15196 -389.97759 
L 459.356515 -389.035281 
L 458.561069 -388.785435 
L 457.765623 -388.753333 
L 456.970177 -387.567147 
L 456.174731 -386.985648 
L 455.379285 -386.146688 
L 454.583839 -385.438181 
L 453.788393 -385.225459 
L 452.992948 -385.14508 
L 452.197502 -383.971273 
L 451.402056 -383.142216 
L 450.60661 -382.131348 
L 449.811164 -382.362882 
L 449.015718 -382.173659 
L 448.220272 -381.60084 
L 447.424827 -380.008064 
L 446.629381 -379.767382 
L 445.833935 -379.624902 
L 445.038489 -378.007184 
L 444.243043 -377.947314 
L 443.447597 -377.458745 
L 442.652151 -375.708696 
L 441.856705 -375.479844 
L 441.06126 -374.519774 
L 440.265814 -372.464418 
L 439.470368 -372.82025 
L 438.674922 -371.165556 
L 437.879476 -369.897086 
L 437.08403 -368.742864 
L 436.288584 -367.829409 
L 435.493138 -366.901663 
L 434.697693 -365.237208 
L 433.902247 -364.347554 
L 433.106801 -363.004725 
L 432.311355 -360.848072 
L 431.515909 -360.179324 
L 430.720463 -358.195662 
L 429.925017 -356.397598 
L 429.129571 -355.721929 
L 428.334126 -354.503107 
L 427.53868 -352.142646 
L 426.743234 -351.250472 
L 425.947788 -349.134953 
L 425.152342 -348.891295 
L 424.356896 -346.602689 
L 423.56145 -344.570044 
L 422.766005 -343.200684 
L 421.970559 -340.901225 
L 421.175113 -340.048398 
L 420.379667 -338.865971 
L 419.584221 -337.319667 
L 418.788775 -334.312576 
L 417.993329 -332.882163 
L 417.197883 -331.24549 
L 416.402438 -329.609002 
L 415.606992 -326.807761 
L 414.811546 -325.448324 
L 414.0161 -322.655183 
L 413.220654 -320.644024 
L 412.425208 -319.278929 
L 411.629762 -316.397464 
L 410.834316 -313.884194 
L 410.038871 -312.412502 
L 409.243425 -309.882452 
L 408.447979 -307.443519 
L 407.652533 -305.154962 
L 406.857087 -302.88061 
L 406.061641 -301.424652 
L 405.266195 -298.574062 
L 404.470749 -296.621767 
L 403.675304 -293.970647 
L 402.879858 -292.286039 
L 402.084412 -289.313182 
L 401.288966 -288.257625 
L 400.49352 -285.742261 
L 399.698074 -283.524669 
L 398.902628 -281.88537 
L 398.107183 -279.010461 
L 397.311737 -277.250381 
L 396.516291 -276.010483 
L 395.720845 -273.006066 
L 394.925399 -272.240442 
L 394.129953 -269.73622 
L 393.334507 -268.248739 
L 392.539061 -265.501096 
L 391.743616 -264.272125 
L 390.94817 -262.473914 
L 390.152724 -260.644725 
L 389.357278 -258.582021 
L 388.561832 -256.60813 
L 387.766386 -254.391712 
L 386.97094 -251.750059 
L 386.175494 -250.903589 
L 385.380049 -247.836388 
L 384.584603 -247.322633 
L 383.789157 -244.194921 
L 382.993711 -242.195818 
L 382.198265 -240.059996 
L 381.402819 -237.649536 
L 380.607373 -236.114143 
L 379.811927 -233.790231 
L 379.016482 -230.863532 
L 378.221036 -229.72118 
L 377.42559 -227.4296 
L 376.630144 -225.097893 
L 375.834698 -222.979174 
L 375.039252 -220.732278 
L 374.243806 -219.578523 
L 373.448361 -216.958174 
L 372.652915 -214.712143 
L 371.857469 -212.768213 
L 371.062023 -211.627082 
L 370.266577 -209.52841 
L 369.471131 -207.695565 
L 368.675685 -205.923973 
L 367.880239 -205.454512 
L 367.084794 -203.732276 
L 366.289348 -201.968715 
L 365.493902 -200.747453 
L 364.698456 -198.668363 
L 363.90301 -198.717206 
L 363.107564 -196.420716 
L 362.312118 -195.580981 
L 361.516672 -193.996107 
L 360.721227 -192.371967 
L 359.925781 -191.156336 
L 359.130335 -190.008836 
L 358.334889 -188.358149 
L 357.539443 -186.569221 
L 356.743997 -186.225567 
L 355.948551 -184.303239 
L 355.153105 -182.020743 
L 354.35766 -180.513539 
L 353.562214 -178.622572 
L 352.766768 -178.308478 
L 351.971322 -175.96185 
L 351.175876 -174.62057 
L 350.38043 -172.689026 
L 349.584984 -171.681053 
L 348.789539 -170.448435 
L 347.994093 -168.246361 
L 347.198647 -167.106355 
L 346.403201 -165.521563 
L 345.607755 -164.026864 
L 344.812309 -163.993835 
L 344.016863 -160.846861 
L 343.221417 -160.761348 
L 342.425972 -158.204712 
L 341.630526 -156.703058 
L 340.83508 -155.230973 
L 340.039634 -153.875641 
L 339.244188 -152.710642 
L 338.448742 -150.96193 
L 337.653296 -150.154391 
L 336.85785 -148.121276 
L 336.062405 -147.166402 
L 335.266959 -145.97703 
L 334.471513 -144.991079 
L 333.676067 -143.264849 
L 332.880621 -142.007365 
L 332.085175 -141.22168 
L 331.289729 -141.099101 
L 330.494283 -139.944733 
L 329.698838 -138.410432 
L 328.903392 -138.260343 
L 328.107946 -137.377262 
L 327.3125 -135.902021 
L 326.517054 -136.20797 
L 325.721608 -135.118292 
L 324.926162 -134.230231 
L 324.130717 -133.676549 
L 323.335271 -133.973778 
L 322.539825 -132.663571 
L 321.744379 -131.897373 
L 320.948933 -132.159308 
L 320.153487 -131.416244 
L 319.358041 -131.3559 
L 318.562595 -131.384319 
L 317.76715 -131.17983 
L 316.971704 -131.050142 
L 316.176258 -131.04047 
L 315.380812 -130.742373 
L 314.585366 -131.020134 
L 313.78992 -131.321674 
L 312.994474 -131.144201 
L 312.199028 -131.295497 
L 311.403583 -131.105056 
L 310.608137 -131.091716 
L 309.812691 -131.602223 
L 309.017245 -131.025645 
L 308.221799 -130.933696 
L 307.426353 -131.170744 
L 306.630907 -130.846899 
L 305.835461 -131.037099 
L 305.040016 -130.327122 
L 304.24457 -130.546924 
L 303.449124 -130.343291 
L 302.653678 -129.620986 
L 301.858232 -129.55149 
L 301.062786 -129.649711 
L 300.26734 -129.695357 
L 299.471895 -129.488949 
L 298.676449 -128.849923 
L 297.881003 -129.24013 
L 297.085557 -129.089088 
L 296.290111 -128.915997 
L 295.494665 -128.585825 
L 294.699219 -129.420327 
L 293.903773 -128.662727 
L 293.108328 -128.31665 
L 292.312882 -128.421128 
L 291.517436 -129.049738 
L 290.72199 -128.526268 
L 289.926544 -128.609706 
L 289.131098 -128.668556 
L 288.335652 -128.036534 
L 287.540206 -127.617075 
L 286.744761 -127.79866 
L 285.949315 -127.344081 
L 285.153869 -127.003468 
L 284.358423 -126.750161 
L 283.562977 -126.732181 
L 282.767531 -126.246333 
L 281.972085 -126.102392 
L 281.176639 -125.21239 
L 280.381194 -125.038483 
L 279.585748 -124.863064 
L 278.790302 -124.730131 
L 277.994856 -123.971483 
L 277.19941 -123.903016 
L 276.403964 -123.932453 
L 275.608518 -123.774587 
L 274.813073 -123.811059 
L 274.017627 -123.054452 
L 273.222181 -123.780855 
L 272.426735 -123.733874 
L 271.631289 -123.639797 
L 270.835843 -123.757837 
L 270.040397 -123.629264 
L 269.244951 -123.668825 
L 268.449506 -123.832168 
L 267.65406 -124.231172 
L 266.858614 -124.365768 
L 266.063168 -124.308155 
L 265.267722 -125.027255 
L 264.472276 -124.934513 
L 263.67683 -125.073606 
L 262.881384 -125.367656 
L 262.085939 -126.005559 
L 261.290493 -125.651172 
L 260.495047 -125.754406 
L 259.699601 -126.400498 
L 258.904155 -126.916765 
L 258.108709 -127.043924 
L 257.313263 -127.473813 
L 256.517817 -127.504921 
L 255.722372 -127.95683 
L 254.926926 -128.737617 
L 254.13148 -129.031316 
L 253.336034 -129.807954 
L 252.540588 -130.671421 
L 251.745142 -130.621812 
L 250.949696 -131.53447 
L 250.154251 -132.237512 
L 249.358805 -132.917343 
L 248.563359 -133.034436 
L 247.767913 -133.838896 
L 246.972467 -134.472841 
L 246.177021 -134.78741 
L 245.381575 -135.540978 
L 244.586129 -135.842409 
L 243.790684 -136.069683 
L 242.995238 -136.352413 
L 242.199792 -137.064224 
L 241.404346 -137.20151 
L 240.6089 -137.577339 
L 239.813454 -137.959089 
L 239.018008 -138.162509 
L 238.222562 -138.397168 
L 237.427117 -138.209538 
L 236.631671 -138.927649 
L 235.836225 -138.973734 
L 235.040779 -139.032983 
L 234.245333 -139.576835 
L 233.449887 -140.229335 
L 232.654441 -140.729989 
L 231.858995 -141.214972 
L 231.06355 -141.429247 
L 230.268104 -142.19986 
L 229.472658 -142.823549 
L 228.677212 -143.373454 
L 227.881766 -144.021142 
L 227.08632 -144.858479 
L 226.290874 -145.360676 
L 225.495429 -146.121796 
L 224.699983 -147.047923 
L 223.904537 -147.625443 
L 223.109091 -147.680566 
L 222.313645 -148.500189 
L 221.518199 -149.033675 
L 220.722753 -149.12536 
L 219.927307 -149.58519 
L 219.131862 -149.751116 
L 218.336416 -150.030504 
L 217.54097 -150.37916 
L 216.745524 -150.075584 
L 215.950078 -150.284451 
L 215.154632 -150.455475 
L 214.359186 -150.319344 
L 213.56374 -150.529109 
L 212.768295 -150.217496 
L 211.972849 -150.20504 
L 211.177403 -150.155232 
L 210.381957 -150.340356 
L 209.586511 -150.056202 
L 208.791065 -149.707876 
L 207.995619 -149.758208 
L 207.200173 -149.672342 
L 206.404728 -149.545478 
L 205.609282 -149.536039 
L 204.813836 -149.40304 
L 204.01839 -149.479477 
L 203.222944 -149.823009 
L 202.427498 -149.686468 
L 201.632052 -150.110192 
L 200.836607 -149.952151 
L 200.041161 -149.984171 
L 199.245715 -150.632962 
L 198.450269 -150.364256 
L 197.654823 -151.151641 
L 196.859377 -151.239327 
L 196.063931 -151.231741 
L 195.268485 -152.071073 
L 194.47304 -151.91843 
L 193.677594 -152.306755 
L 192.882148 -152.841485 
L 192.086702 -152.926354 
L 191.291256 -153.219971 
L 190.49581 -153.565798 
L 189.700364 -153.818961 
L 188.904918 -153.993926 
L 188.109473 -154.29838 
L 187.314027 -155.080573 
L 186.518581 -154.754921 
L 185.723135 -154.999341 
L 184.927689 -155.047409 
L 184.132243 -154.79232 
L 183.336797 -155.251707 
L 182.541351 -155.353965 
L 181.745906 -154.993532 
L 180.95046 -155.044834 
L 180.155014 -155.422108 
L 179.359568 -155.351827 
L 178.564122 -155.482805 
L 177.768676 -155.108147 
L 176.97323 -155.396589 
L 176.177785 -155.399966 
L 175.382339 -155.351383 
L 174.586893 -155.773345 
L 173.791447 -155.788167 
L 172.996001 -156.146172 
L 172.200555 -156.192148 
L 171.405109 -156.74092 
L 170.609663 -157.022927 
L 169.814218 -157.497838 
L 169.018772 -157.940867 
L 168.223326 -158.449976 
L 167.42788 -158.871395 
L 166.632434 -159.318568 
L 165.836988 -159.839418 
L 165.041542 -160.468556 
L 164.246096 -160.708874 
L 163.450651 -161.285572 
L 162.655205 -161.666004 
L 161.859759 -162.109597 
L 161.064313 -162.516151 
L 160.268867 -162.807425 
L 159.473421 -162.966535 
L 158.677975 -163.103495 
L 157.882529 -163.310561 
L 157.087084 -163.4402 
L 156.291638 -163.359034 
L 155.496192 -163.266599 
L 154.700746 -163.23892 
L 153.9053 -163.073568 
L 153.109854 -162.877901 
L 152.314408 -162.721306 
L 151.518963 -162.443059 
L 150.723517 -162.196352 
L 149.928071 -161.964508 
L 149.132625 -161.729055 
L 148.337179 -161.496961 
L 147.541733 -161.417388 
L 146.746287 -161.352327 
L 145.950841 -161.21483 
L 145.155396 -161.2239 
L 144.35995 -161.309832 
L 143.564504 -161.54856 
L 142.769058 -161.718969 
L 141.973612 -161.987061 
L 141.178166 -162.272449 
L 140.38272 -162.833747 
L 139.587274 -163.180628 
L 138.791829 -163.662453 
L 137.996383 -164.151842 
L 137.200937 -164.536552 
L 136.405491 -165.090358 
L 135.610045 -165.266398 
L 134.814599 -165.788827 
L 134.019153 -166.156679 
L 133.223707 -166.471092 
L 132.428262 -166.537546 
L 131.632816 -166.738379 
L 130.83737 -166.850476 
L 130.041924 -166.862032 
L 129.246478 -166.792634 
L 128.451032 -166.653937 
L 127.655586 -166.608197 
L 126.860141 -166.480697 
L 126.064695 -166.098955 
L 125.269249 -166.194017 
L 124.473803 -165.642575 
L 123.678357 -165.504377 
L 122.882911 -165.216183 
L 122.087465 -164.804852 
L 121.292019 -164.706398 
L 120.496574 -164.263299 
L 119.701128 -163.768901 
L 118.905682 -163.629062 
z
" id="m195d770149" style="stroke:#b22222;stroke-opacity:0.2;stroke-width:1.5;"/>
    </defs>
    <g clip-path="url(#pacf7093c79)">
     <use style="fill:#b22222;fill-opacity:0.2;stroke:#b22222;stroke-opacity:0.2;stroke-width:1.5;" x="0" xlink:href="#m195d770149" y="432"/>
    </g>
   </g>
   <g id="PolyCollection_2">
    <defs>
     <path d="M 118.905682 -158.213375 
L 118.905682 -143.245006 
L 119.701128 -143.218411 
L 120.496574 -143.426628 
L 121.292019 -143.40282 
L 122.087465 -143.406918 
L 122.882911 -143.437523 
L 123.678357 -143.628324 
L 124.473803 -143.809943 
L 125.269249 -143.779177 
L 126.064695 -143.653471 
L 126.860141 -143.90276 
L 127.655586 -143.956047 
L 128.451032 -143.910672 
L 129.246478 -144.188143 
L 130.041924 -144.188205 
L 130.83737 -144.304584 
L 131.632816 -144.620806 
L 132.428262 -144.829373 
L 133.223707 -145.025145 
L 134.019153 -145.430462 
L 134.814599 -145.745528 
L 135.610045 -146.136342 
L 136.405491 -146.538843 
L 137.200937 -146.865584 
L 137.996383 -147.263557 
L 138.791829 -147.699413 
L 139.587274 -148.078168 
L 140.38272 -148.609232 
L 141.178166 -148.935298 
L 141.973612 -149.35575 
L 142.769058 -149.564707 
L 143.564504 -149.929337 
L 144.35995 -150.212963 
L 145.155396 -150.413138 
L 145.950841 -150.674077 
L 146.746287 -150.832552 
L 147.541733 -150.981077 
L 148.337179 -151.064694 
L 149.132625 -151.233691 
L 149.928071 -151.356917 
L 150.723517 -151.454133 
L 151.518963 -151.56459 
L 152.314408 -151.709947 
L 153.109854 -151.850994 
L 153.9053 -151.981428 
L 154.700746 -152.290669 
L 155.496192 -152.4285 
L 156.291638 -152.763149 
L 157.087084 -152.951667 
L 157.882529 -153.448348 
L 158.677975 -153.985411 
L 159.473421 -154.465952 
L 160.268867 -154.977975 
L 161.064313 -155.576074 
L 161.859759 -156.325869 
L 162.655205 -156.947384 
L 163.450651 -157.650298 
L 164.246096 -158.158457 
L 165.041542 -158.93012 
L 165.836988 -159.693285 
L 166.632434 -160.123746 
L 167.42788 -160.655812 
L 168.223326 -161.170723 
L 169.018772 -161.67625 
L 169.814218 -161.936032 
L 170.609663 -162.290576 
L 171.405109 -162.521471 
L 172.200555 -162.608186 
L 172.996001 -162.751449 
L 173.791447 -162.662847 
L 174.586893 -162.832303 
L 175.382339 -162.862235 
L 176.177785 -162.57547 
L 176.97323 -162.380806 
L 177.768676 -162.453029 
L 178.564122 -162.731825 
L 179.359568 -162.524255 
L 180.155014 -162.571394 
L 180.95046 -162.322643 
L 181.745906 -162.330099 
L 182.541351 -162.298364 
L 183.336797 -162.027932 
L 184.132243 -162.005913 
L 184.927689 -162.116413 
L 185.723135 -161.593345 
L 186.518581 -161.315513 
L 187.314027 -161.484597 
L 188.109473 -161.107879 
L 188.904918 -160.978468 
L 189.700364 -160.363739 
L 190.49581 -160.028018 
L 191.291256 -159.942681 
L 192.086702 -159.409474 
L 192.882148 -158.826375 
L 193.677594 -158.467198 
L 194.47304 -158.060728 
L 195.268485 -157.752578 
L 196.063931 -157.145961 
L 196.859377 -156.651714 
L 197.654823 -156.704828 
L 198.450269 -156.061518 
L 199.245715 -155.71516 
L 200.041161 -155.563493 
L 200.836607 -154.863256 
L 201.632052 -154.914672 
L 202.427498 -154.320293 
L 203.222944 -154.359163 
L 204.01839 -154.389139 
L 204.813836 -153.652823 
L 205.609282 -153.783487 
L 206.404728 -153.756647 
L 207.200173 -153.85227 
L 207.995619 -153.772173 
L 208.791065 -153.859872 
L 209.586511 -153.742019 
L 210.381957 -153.402111 
L 211.177403 -154.0208 
L 211.972849 -154.22204 
L 212.768295 -153.876064 
L 213.56374 -154.008011 
L 214.359186 -154.395062 
L 215.154632 -153.927273 
L 215.950078 -153.876488 
L 216.745524 -154.430542 
L 217.54097 -154.280477 
L 218.336416 -154.457658 
L 219.131862 -154.388538 
L 219.927307 -154.878108 
L 220.722753 -154.842961 
L 221.518199 -155.114127 
L 222.313645 -154.802079 
L 223.109091 -155.014793 
L 223.904537 -155.033776 
L 224.699983 -155.025451 
L 225.495429 -155.149914 
L 226.290874 -155.671382 
L 227.08632 -155.493048 
L 227.881766 -155.456834 
L 228.677212 -155.008796 
L 229.472658 -154.922847 
L 230.268104 -155.063026 
L 231.06355 -155.255928 
L 231.858995 -155.361071 
L 232.654441 -155.152998 
L 233.449887 -154.873143 
L 234.245333 -154.985222 
L 235.040779 -154.700765 
L 235.836225 -154.982543 
L 236.631671 -154.623877 
L 237.427117 -154.582895 
L 238.222562 -154.437556 
L 239.018008 -154.732942 
L 239.813454 -154.502828 
L 240.6089 -154.1645 
L 241.404346 -154.095663 
L 242.199792 -154.346842 
L 242.995238 -153.663946 
L 243.790684 -154.215618 
L 244.586129 -154.112998 
L 245.381575 -154.263153 
L 246.177021 -154.121528 
L 246.972467 -154.754925 
L 247.767913 -154.822468 
L 248.563359 -154.824186 
L 249.358805 -155.242177 
L 250.154251 -155.386262 
L 250.949696 -155.276385 
L 251.745142 -156.345731 
L 252.540588 -156.096866 
L 253.336034 -156.550671 
L 254.13148 -156.455332 
L 254.926926 -156.881516 
L 255.722372 -157.197025 
L 256.517817 -157.176422 
L 257.313263 -157.91223 
L 258.108709 -157.934546 
L 258.904155 -158.477238 
L 259.699601 -158.332777 
L 260.495047 -158.319732 
L 261.290493 -158.28154 
L 262.085939 -158.343205 
L 262.881384 -158.569806 
L 263.67683 -158.758583 
L 264.472276 -159.001403 
L 265.267722 -158.392369 
L 266.063168 -158.20612 
L 266.858614 -157.787248 
L 267.65406 -158.232932 
L 268.449506 -158.257309 
L 269.244951 -157.928699 
L 270.040397 -157.743421 
L 270.835843 -157.484819 
L 271.631289 -156.977075 
L 272.426735 -156.372081 
L 273.222181 -156.347864 
L 274.017627 -157.006483 
L 274.813073 -156.872017 
L 275.608518 -157.107694 
L 276.403964 -156.501033 
L 277.19941 -156.735587 
L 277.994856 -156.203037 
L 278.790302 -156.816769 
L 279.585748 -156.675897 
L 280.381194 -157.400867 
L 281.176639 -157.133857 
L 281.972085 -157.282579 
L 282.767531 -157.29984 
L 283.562977 -157.453477 
L 284.358423 -157.433596 
L 285.153869 -157.631169 
L 285.949315 -157.344374 
L 286.744761 -157.856042 
L 287.540206 -158.120859 
L 288.335652 -158.236472 
L 289.131098 -158.241398 
L 289.926544 -158.246458 
L 290.72199 -158.004669 
L 291.517436 -158.864323 
L 292.312882 -157.905961 
L 293.108328 -157.930218 
L 293.903773 -157.865475 
L 294.699219 -158.144793 
L 295.494665 -157.297253 
L 296.290111 -157.428467 
L 297.085557 -156.869285 
L 297.881003 -156.401307 
L 298.676449 -155.974036 
L 299.471895 -155.866142 
L 300.26734 -155.493625 
L 301.062786 -155.06204 
L 301.858232 -154.606755 
L 302.653678 -154.04984 
L 303.449124 -153.979569 
L 304.24457 -153.211521 
L 305.040016 -152.722693 
L 305.835461 -151.668483 
L 306.630907 -151.39117 
L 307.426353 -150.718191 
L 308.221799 -149.956577 
L 309.017245 -149.525227 
L 309.812691 -149.182451 
L 310.608137 -148.99944 
L 311.403583 -148.073893 
L 312.199028 -147.385768 
L 312.994474 -146.846623 
L 313.78992 -146.125888 
L 314.585366 -145.765418 
L 315.380812 -145.184825 
L 316.176258 -145.394745 
L 316.971704 -144.48947 
L 317.76715 -143.756326 
L 318.562595 -143.606219 
L 319.358041 -143.332067 
L 320.153487 -142.895223 
L 320.948933 -142.955999 
L 321.744379 -143.038209 
L 322.539825 -142.709871 
L 323.335271 -142.464379 
L 324.130717 -142.403783 
L 324.926162 -143.16634 
L 325.721608 -142.319889 
L 326.517054 -142.655022 
L 327.3125 -142.597869 
L 328.107946 -142.912233 
L 328.903392 -143.269992 
L 329.698838 -143.337474 
L 330.494283 -143.202111 
L 331.289729 -143.663988 
L 332.085175 -143.606498 
L 332.880621 -143.920529 
L 333.676067 -144.723609 
L 334.471513 -144.653708 
L 335.266959 -145.333229 
L 336.062405 -145.560312 
L 336.85785 -146.192418 
L 337.653296 -146.914439 
L 338.448742 -147.17869 
L 339.244188 -148.363387 
L 340.039634 -148.779482 
L 340.83508 -149.476061 
L 341.630526 -150.530674 
L 342.425972 -151.06884 
L 343.221417 -152.30658 
L 344.016863 -152.824441 
L 344.812309 -154.078856 
L 345.607755 -154.80518 
L 346.403201 -155.880896 
L 347.198647 -156.659003 
L 347.994093 -157.711524 
L 348.789539 -158.699948 
L 349.584984 -159.362777 
L 350.38043 -161.1208 
L 351.175876 -161.392305 
L 351.971322 -162.909117 
L 352.766768 -162.965318 
L 353.562214 -164.500102 
L 354.35766 -165.678244 
L 355.153105 -166.510329 
L 355.948551 -166.809929 
L 356.743997 -168.002054 
L 357.539443 -168.728139 
L 358.334889 -169.704358 
L 359.130335 -170.80014 
L 359.925781 -171.185009 
L 360.721227 -171.989325 
L 361.516672 -173.450726 
L 362.312118 -174.321519 
L 363.107564 -174.703514 
L 363.90301 -175.889531 
L 364.698456 -176.231108 
L 365.493902 -178.413154 
L 366.289348 -179.010767 
L 367.084794 -179.895866 
L 367.880239 -181.244123 
L 368.675685 -182.306197 
L 369.471131 -183.22141 
L 370.266577 -184.435856 
L 371.062023 -185.597938 
L 371.857469 -186.439976 
L 372.652915 -187.754023 
L 373.448361 -188.517561 
L 374.243806 -189.653862 
L 375.039252 -191.334539 
L 375.834698 -192.935795 
L 376.630144 -194.151032 
L 377.42559 -194.569182 
L 378.221036 -196.469968 
L 379.016482 -198.108182 
L 379.811927 -199.31429 
L 380.607373 -200.274392 
L 381.402819 -201.165051 
L 382.198265 -202.591541 
L 382.993711 -204.417421 
L 383.789157 -204.971508 
L 384.584603 -205.729087 
L 385.380049 -207.226139 
L 386.175494 -208.146712 
L 386.97094 -209.358565 
L 387.766386 -211.168918 
L 388.561832 -211.992531 
L 389.357278 -213.513914 
L 390.152724 -215.016351 
L 390.94817 -216.284717 
L 391.743616 -217.370369 
L 392.539061 -217.289312 
L 393.334507 -218.739567 
L 394.129953 -220.041293 
L 394.925399 -220.32263 
L 395.720845 -221.611588 
L 396.516291 -223.122435 
L 397.311737 -223.385491 
L 398.107183 -225.037644 
L 398.902628 -225.883643 
L 399.698074 -227.37221 
L 400.49352 -228.509819 
L 401.288966 -229.431796 
L 402.084412 -230.519093 
L 402.879858 -231.428429 
L 403.675304 -232.855169 
L 404.470749 -234.513539 
L 405.266195 -235.128413 
L 406.061641 -236.905824 
L 406.857087 -237.952887 
L 407.652533 -238.097184 
L 408.447979 -240.179223 
L 409.243425 -242.525812 
L 410.038871 -243.859626 
L 410.834316 -245.58009 
L 411.629762 -247.343344 
L 412.425208 -248.912856 
L 413.220654 -250.928522 
L 414.0161 -252.315922 
L 414.811546 -253.507974 
L 415.606992 -255.495924 
L 416.402438 -257.250332 
L 417.197883 -258.294039 
L 417.993329 -260.125407 
L 418.788775 -261.570466 
L 419.584221 -262.271335 
L 420.379667 -264.333753 
L 421.175113 -265.51975 
L 421.970559 -266.767956 
L 422.766005 -268.368202 
L 423.56145 -269.807721 
L 424.356896 -269.768023 
L 425.152342 -271.54988 
L 425.947788 -272.18282 
L 426.743234 -273.864603 
L 427.53868 -274.811572 
L 428.334126 -274.669419 
L 429.129571 -277.198853 
L 429.925017 -277.091645 
L 430.720463 -277.752519 
L 431.515909 -278.42947 
L 432.311355 -279.963936 
L 433.106801 -280.191996 
L 433.902247 -280.496088 
L 434.697693 -281.666391 
L 435.493138 -282.342582 
L 436.288584 -283.412102 
L 437.08403 -282.960855 
L 437.879476 -283.367052 
L 438.674922 -284.459947 
L 439.470368 -284.416828 
L 440.265814 -286.027945 
L 441.06126 -285.883353 
L 441.856705 -286.694794 
L 442.652151 -287.979707 
L 443.447597 -288.589469 
L 444.243043 -288.415594 
L 445.038489 -288.884809 
L 445.833935 -288.644366 
L 446.629381 -290.073916 
L 447.424827 -290.158547 
L 448.220272 -289.977334 
L 449.015718 -290.960301 
L 449.811164 -291.133653 
L 450.60661 -290.900837 
L 451.402056 -291.54879 
L 452.197502 -291.448818 
L 452.992948 -292.451917 
L 453.788393 -292.011068 
L 454.583839 -291.538743 
L 455.379285 -292.268912 
L 456.174731 -291.731659 
L 456.970177 -291.373611 
L 457.765623 -291.261708 
L 458.561069 -290.367835 
L 459.356515 -290.661337 
L 460.15196 -290.371973 
L 460.947406 -289.711468 
L 461.742852 -289.067106 
L 462.538298 -288.460568 
L 463.333744 -288.369941 
L 464.12919 -286.270834 
L 464.924636 -287.05595 
L 465.720082 -286.045594 
L 466.515527 -284.2755 
L 467.310973 -283.699125 
L 468.106419 -282.786499 
L 468.901865 -282.421156 
L 469.697311 -281.31334 
L 470.492757 -280.895685 
L 471.288203 -280.046612 
L 472.083649 -279.237683 
L 472.879094 -278.984613 
L 473.67454 -278.289501 
L 474.469986 -278.063725 
L 475.265432 -277.318142 
L 476.060878 -277.318039 
L 476.856324 -276.508338 
L 477.65177 -277.452302 
L 478.447215 -276.354124 
L 479.242661 -276.396139 
L 480.038107 -275.98041 
L 480.833553 -276.439437 
L 481.628999 -275.795043 
L 482.424445 -275.82187 
L 483.219891 -275.707263 
L 484.015337 -275.827486 
L 484.810782 -275.332208 
L 485.606228 -275.473228 
L 486.401674 -275.574709 
L 487.19712 -275.175116 
L 487.992566 -275.610044 
L 488.788012 -275.713461 
L 489.583458 -275.332011 
L 490.378904 -275.412223 
L 491.174349 -276.017075 
L 491.969795 -274.923988 
L 492.765241 -275.36144 
L 493.560687 -276.067325 
L 494.356133 -275.135985 
L 495.151579 -275.710952 
L 495.947025 -274.802769 
L 496.742471 -275.334876 
L 497.537916 -276.107555 
L 498.333362 -275.302316 
L 499.128808 -275.327532 
L 499.924254 -275.215116 
L 500.7197 -274.858839 
L 501.515146 -274.125235 
L 502.310592 -273.911301 
L 503.106037 -273.056563 
L 503.901483 -273.774654 
L 504.696929 -272.83326 
L 505.492375 -272.418758 
L 506.287821 -272.379282 
L 507.083267 -271.494836 
L 507.878713 -271.969072 
L 508.674159 -271.417105 
L 509.469604 -270.387612 
L 510.26505 -269.997259 
L 511.060496 -269.936965 
L 511.855942 -268.570989 
L 512.651388 -269.302248 
L 513.446834 -268.058308 
L 514.24228 -267.340711 
L 515.037726 -266.80319 
L 515.833171 -266.069789 
L 516.628617 -266.206332 
L 517.424063 -264.849029 
L 518.219509 -264.593397 
L 519.014955 -263.979509 
L 519.810401 -263.744738 
L 520.605847 -263.40254 
L 521.401293 -262.41823 
L 522.196738 -261.663304 
L 522.992184 -259.934693 
L 523.78763 -259.977142 
L 524.583076 -258.92827 
L 525.378522 -257.284724 
L 526.173968 -256.283211 
L 526.969414 -255.671623 
L 527.764859 -255.168111 
L 528.560305 -254.950296 
L 529.355751 -252.750909 
L 530.151197 -252.641376 
L 530.946643 -251.054599 
L 531.742089 -250.745357 
L 532.537535 -250.098584 
L 533.332981 -248.420255 
L 534.128426 -247.791659 
L 534.923872 -246.852545 
L 535.719318 -245.398474 
L 535.719318 -304.918587 
L 535.719318 -304.918587 
L 534.923872 -305.653799 
L 534.128426 -306.796596 
L 533.332981 -308.116545 
L 532.537535 -308.683759 
L 531.742089 -310.743735 
L 530.946643 -311.070344 
L 530.151197 -312.091551 
L 529.355751 -312.569533 
L 528.560305 -314.575982 
L 527.764859 -315.64167 
L 526.969414 -315.868707 
L 526.173968 -317.165946 
L 525.378522 -317.60652 
L 524.583076 -319.569355 
L 523.78763 -319.856264 
L 522.992184 -320.510044 
L 522.196738 -321.790321 
L 521.401293 -322.073833 
L 520.605847 -323.579585 
L 519.810401 -323.734083 
L 519.014955 -324.226876 
L 518.219509 -325.310506 
L 517.424063 -325.316734 
L 516.628617 -324.786075 
L 515.833171 -326.691382 
L 515.037726 -327.064681 
L 514.24228 -328.283532 
L 513.446834 -328.303757 
L 512.651388 -328.781826 
L 511.855942 -328.492637 
L 511.060496 -328.568716 
L 510.26505 -329.182594 
L 509.469604 -330.304462 
L 508.674159 -330.234146 
L 507.878713 -330.20974 
L 507.083267 -329.906439 
L 506.287821 -330.925268 
L 505.492375 -330.969562 
L 504.696929 -331.542096 
L 503.901483 -332.212591 
L 503.106037 -331.801663 
L 502.310592 -333.459793 
L 501.515146 -333.149111 
L 500.7197 -332.893385 
L 499.924254 -333.278019 
L 499.128808 -333.541635 
L 498.333362 -333.298048 
L 497.537916 -333.960911 
L 496.742471 -333.871127 
L 495.947025 -333.141861 
L 495.151579 -332.556859 
L 494.356133 -332.792481 
L 493.560687 -333.966565 
L 492.765241 -333.369132 
L 491.969795 -332.800675 
L 491.174349 -333.090036 
L 490.378904 -332.320401 
L 489.583458 -333.243328 
L 488.788012 -333.334261 
L 487.992566 -332.436029 
L 487.19712 -333.251812 
L 486.401674 -332.185034 
L 485.606228 -332.453062 
L 484.810782 -332.936199 
L 484.015337 -331.894113 
L 483.219891 -332.653152 
L 482.424445 -332.235236 
L 481.628999 -332.800828 
L 480.833553 -331.885561 
L 480.038107 -331.662137 
L 479.242661 -331.910176 
L 478.447215 -331.832605 
L 477.65177 -332.359206 
L 476.856324 -331.716618 
L 476.060878 -333.334185 
L 475.265432 -332.745706 
L 474.469986 -332.093483 
L 473.67454 -335.175029 
L 472.879094 -334.478334 
L 472.083649 -335.001429 
L 471.288203 -335.855969 
L 470.492757 -335.987169 
L 469.697311 -336.71654 
L 468.901865 -337.691725 
L 468.106419 -338.319428 
L 467.310973 -339.019042 
L 466.515527 -339.969682 
L 465.720082 -341.207576 
L 464.924636 -341.638052 
L 464.12919 -342.25414 
L 463.333744 -343.920573 
L 462.538298 -344.837554 
L 461.742852 -345.134967 
L 460.947406 -346.308201 
L 460.15196 -346.07752 
L 459.356515 -347.82267 
L 458.561069 -348.071264 
L 457.765623 -347.127517 
L 456.970177 -348.639455 
L 456.174731 -350.178185 
L 455.379285 -348.969978 
L 454.583839 -350.028494 
L 453.788393 -350.052199 
L 452.992948 -350.427961 
L 452.197502 -350.198907 
L 451.402056 -350.163958 
L 450.60661 -350.16921 
L 449.811164 -350.5337 
L 449.015718 -350.352763 
L 448.220272 -349.40403 
L 447.424827 -349.373265 
L 446.629381 -349.602741 
L 445.833935 -348.878849 
L 445.038489 -349.230813 
L 444.243043 -348.544117 
L 443.447597 -347.459569 
L 442.652151 -347.145804 
L 441.856705 -346.152727 
L 441.06126 -345.787278 
L 440.265814 -345.942028 
L 439.470368 -344.992398 
L 438.674922 -344.066092 
L 437.879476 -343.395525 
L 437.08403 -343.037182 
L 436.288584 -343.053891 
L 435.493138 -341.434318 
L 434.697693 -340.190833 
L 433.902247 -338.509679 
L 433.106801 -338.640597 
L 432.311355 -337.535031 
L 431.515909 -335.963324 
L 430.720463 -335.685887 
L 429.925017 -333.930446 
L 429.129571 -333.205599 
L 428.334126 -331.935611 
L 427.53868 -331.393279 
L 426.743234 -330.245312 
L 425.947788 -328.619854 
L 425.152342 -325.638407 
L 424.356896 -324.88548 
L 423.56145 -323.901859 
L 422.766005 -323.539978 
L 421.970559 -321.653157 
L 421.175113 -320.258579 
L 420.379667 -318.513185 
L 419.584221 -317.19227 
L 418.788775 -315.928823 
L 417.993329 -314.487971 
L 417.197883 -312.943127 
L 416.402438 -310.444849 
L 415.606992 -309.390656 
L 414.811546 -308.333605 
L 414.0161 -306.692868 
L 413.220654 -303.9424 
L 412.425208 -302.030224 
L 411.629762 -301.136211 
L 410.834316 -297.813637 
L 410.038871 -296.443777 
L 409.243425 -295.366634 
L 408.447979 -294.180847 
L 407.652533 -292.181508 
L 406.857087 -290.321599 
L 406.061641 -289.449852 
L 405.266195 -287.318258 
L 404.470749 -285.55794 
L 403.675304 -284.432884 
L 402.879858 -282.392452 
L 402.084412 -281.909584 
L 401.288966 -279.907676 
L 400.49352 -278.595773 
L 399.698074 -277.439449 
L 398.902628 -276.501419 
L 398.107183 -276.179981 
L 397.311737 -273.321064 
L 396.516291 -273.051267 
L 395.720845 -271.326748 
L 394.925399 -271.015676 
L 394.129953 -268.842745 
L 393.334507 -267.659425 
L 392.539061 -266.515204 
L 391.743616 -266.369173 
L 390.94817 -264.248234 
L 390.152724 -263.270581 
L 389.357278 -262.30905 
L 388.561832 -260.692072 
L 387.766386 -259.556055 
L 386.97094 -257.818216 
L 386.175494 -256.503384 
L 385.380049 -255.341482 
L 384.584603 -254.079273 
L 383.789157 -252.53107 
L 382.993711 -251.291005 
L 382.198265 -249.554585 
L 381.402819 -248.496542 
L 380.607373 -247.442296 
L 379.811927 -245.480587 
L 379.016482 -245.029125 
L 378.221036 -242.546412 
L 377.42559 -241.992784 
L 376.630144 -240.53502 
L 375.834698 -239.767865 
L 375.039252 -238.385229 
L 374.243806 -236.374813 
L 373.448361 -235.472776 
L 372.652915 -233.823186 
L 371.857469 -233.473632 
L 371.062023 -232.248745 
L 370.266577 -230.334511 
L 369.471131 -230.156583 
L 368.675685 -228.982253 
L 367.880239 -227.703288 
L 367.084794 -226.011153 
L 366.289348 -226.232239 
L 365.493902 -224.096183 
L 364.698456 -223.194818 
L 363.90301 -222.515337 
L 363.107564 -221.044786 
L 362.312118 -220.538027 
L 361.516672 -218.673483 
L 360.721227 -217.700368 
L 359.925781 -216.940721 
L 359.130335 -216.618028 
L 358.334889 -215.602421 
L 357.539443 -213.694263 
L 356.743997 -212.819155 
L 355.948551 -212.203196 
L 355.153105 -210.913929 
L 354.35766 -209.662606 
L 353.562214 -207.930493 
L 352.766768 -207.17762 
L 351.971322 -206.541325 
L 351.175876 -204.663295 
L 350.38043 -203.698423 
L 349.584984 -202.425423 
L 348.789539 -201.203629 
L 347.994093 -200.06117 
L 347.198647 -198.475737 
L 346.403201 -198.060351 
L 345.607755 -195.943196 
L 344.812309 -195.380517 
L 344.016863 -193.664532 
L 343.221417 -192.575701 
L 342.425972 -191.40101 
L 341.630526 -190.494748 
L 340.83508 -189.317954 
L 340.039634 -188.164844 
L 339.244188 -187.878822 
L 338.448742 -186.654865 
L 337.653296 -185.442867 
L 336.85785 -185.074648 
L 336.062405 -184.652925 
L 335.266959 -183.747612 
L 334.471513 -183.155765 
L 333.676067 -182.524815 
L 332.880621 -181.759787 
L 332.085175 -181.672557 
L 331.289729 -181.917437 
L 330.494283 -180.774018 
L 329.698838 -181.140014 
L 328.903392 -180.297115 
L 328.107946 -180.614757 
L 327.3125 -180.225213 
L 326.517054 -180.71568 
L 325.721608 -180.348373 
L 324.926162 -180.714216 
L 324.130717 -181.062394 
L 323.335271 -181.238694 
L 322.539825 -181.270557 
L 321.744379 -181.991826 
L 320.948933 -181.713065 
L 320.153487 -181.58031 
L 319.358041 -182.460207 
L 318.562595 -183.213873 
L 317.76715 -183.182468 
L 316.971704 -183.282526 
L 316.176258 -183.723722 
L 315.380812 -184.684522 
L 314.585366 -184.490774 
L 313.78992 -184.715317 
L 312.994474 -185.735468 
L 312.199028 -185.997273 
L 311.403583 -185.840593 
L 310.608137 -186.44802 
L 309.812691 -186.928134 
L 309.017245 -187.796809 
L 308.221799 -187.56348 
L 307.426353 -188.551311 
L 306.630907 -188.64979 
L 305.835461 -188.475632 
L 305.040016 -189.672632 
L 304.24457 -189.203963 
L 303.449124 -189.97965 
L 302.653678 -190.23776 
L 301.858232 -190.272601 
L 301.062786 -191.196731 
L 300.26734 -191.343515 
L 299.471895 -191.381365 
L 298.676449 -191.844638 
L 297.881003 -192.035423 
L 297.085557 -192.149576 
L 296.290111 -192.542303 
L 295.494665 -192.34651 
L 294.699219 -192.71536 
L 293.903773 -192.583164 
L 293.108328 -193.167756 
L 292.312882 -192.858373 
L 291.517436 -193.218919 
L 290.72199 -193.654726 
L 289.926544 -193.882172 
L 289.131098 -193.474967 
L 288.335652 -193.050492 
L 287.540206 -193.703337 
L 286.744761 -193.024527 
L 285.949315 -193.00084 
L 285.153869 -193.588229 
L 284.358423 -193.009326 
L 283.562977 -193.091524 
L 282.767531 -193.148195 
L 281.972085 -192.956052 
L 281.176639 -192.72509 
L 280.381194 -192.731612 
L 279.585748 -192.995193 
L 278.790302 -193.028148 
L 277.994856 -192.078304 
L 277.19941 -192.356875 
L 276.403964 -192.417877 
L 275.608518 -192.333977 
L 274.813073 -192.350145 
L 274.017627 -192.769118 
L 273.222181 -191.852767 
L 272.426735 -192.081277 
L 271.631289 -192.243788 
L 270.835843 -191.876319 
L 270.040397 -192.833997 
L 269.244951 -192.593389 
L 268.449506 -192.603443 
L 267.65406 -192.682715 
L 266.858614 -192.403107 
L 266.063168 -192.157254 
L 265.267722 -192.457821 
L 264.472276 -192.400529 
L 263.67683 -191.617948 
L 262.881384 -191.699432 
L 262.085939 -191.788871 
L 261.290493 -191.611646 
L 260.495047 -191.670608 
L 259.699601 -191.175012 
L 258.904155 -190.759635 
L 258.108709 -190.520205 
L 257.313263 -190.293828 
L 256.517817 -190.229317 
L 255.722372 -189.752329 
L 254.926926 -189.568913 
L 254.13148 -189.450577 
L 253.336034 -188.588149 
L 252.540588 -188.05936 
L 251.745142 -188.018605 
L 250.949696 -187.915292 
L 250.154251 -187.137369 
L 249.358805 -186.874087 
L 248.563359 -186.865881 
L 247.767913 -185.812796 
L 246.972467 -185.780925 
L 246.177021 -184.825016 
L 245.381575 -184.823651 
L 244.586129 -184.525258 
L 243.790684 -184.456005 
L 242.995238 -184.201438 
L 242.199792 -183.923159 
L 241.404346 -183.550657 
L 240.6089 -183.32232 
L 239.813454 -183.500915 
L 239.018008 -183.251941 
L 238.222562 -183.312207 
L 237.427117 -183.052839 
L 236.631671 -182.529199 
L 235.836225 -182.542789 
L 235.040779 -182.616419 
L 234.245333 -182.956128 
L 233.449887 -183.067397 
L 232.654441 -182.696461 
L 231.858995 -182.580022 
L 231.06355 -182.989899 
L 230.268104 -183.086067 
L 229.472658 -182.838685 
L 228.677212 -182.784158 
L 227.881766 -183.308592 
L 227.08632 -183.365999 
L 226.290874 -183.146001 
L 225.495429 -183.27104 
L 224.699983 -182.283688 
L 223.904537 -183.140985 
L 223.109091 -182.310657 
L 222.313645 -181.917716 
L 221.518199 -182.310971 
L 220.722753 -182.070212 
L 219.927307 -181.872344 
L 219.131862 -181.916326 
L 218.336416 -181.288149 
L 217.54097 -180.62871 
L 216.745524 -180.706664 
L 215.950078 -179.973593 
L 215.154632 -180.122737 
L 214.359186 -179.483537 
L 213.56374 -179.17977 
L 212.768295 -179.18736 
L 211.972849 -178.281678 
L 211.177403 -178.083686 
L 210.381957 -177.470875 
L 209.586511 -177.177492 
L 208.791065 -177.034935 
L 207.995619 -176.9022 
L 207.200173 -176.258965 
L 206.404728 -176.188857 
L 205.609282 -176.150138 
L 204.813836 -175.498968 
L 204.01839 -175.725151 
L 203.222944 -176.058806 
L 202.427498 -175.674906 
L 201.632052 -175.697804 
L 200.836607 -175.64212 
L 200.041161 -176.016782 
L 199.245715 -176.18184 
L 198.450269 -176.425043 
L 197.654823 -176.73225 
L 196.859377 -177.052207 
L 196.063931 -177.407855 
L 195.268485 -178.028764 
L 194.47304 -178.226679 
L 193.677594 -178.448242 
L 192.882148 -178.855514 
L 192.086702 -179.274388 
L 191.291256 -179.71897 
L 190.49581 -179.849223 
L 189.700364 -180.218622 
L 188.904918 -180.324598 
L 188.109473 -180.472523 
L 187.314027 -180.626303 
L 186.518581 -180.19658 
L 185.723135 -180.622704 
L 184.927689 -180.512951 
L 184.132243 -180.349562 
L 183.336797 -180.421957 
L 182.541351 -180.387035 
L 181.745906 -180.377486 
L 180.95046 -179.888695 
L 180.155014 -179.843237 
L 179.359568 -179.802425 
L 178.564122 -179.48676 
L 177.768676 -179.238188 
L 176.97323 -178.862321 
L 176.177785 -178.836272 
L 175.382339 -178.443484 
L 174.586893 -178.119662 
L 173.791447 -177.712887 
L 172.996001 -177.464553 
L 172.200555 -177.10375 
L 171.405109 -176.304676 
L 170.609663 -175.855215 
L 169.814218 -175.282662 
L 169.018772 -174.377373 
L 168.223326 -173.638627 
L 167.42788 -172.734164 
L 166.632434 -171.653599 
L 165.836988 -170.616281 
L 165.041542 -169.691456 
L 164.246096 -168.499029 
L 163.450651 -167.554785 
L 162.655205 -166.37735 
L 161.859759 -165.477793 
L 161.064313 -164.373539 
L 160.268867 -163.571457 
L 159.473421 -162.592537 
L 158.677975 -161.751415 
L 157.882529 -160.92464 
L 157.087084 -160.365199 
L 156.291638 -159.690556 
L 155.496192 -159.133291 
L 154.700746 -158.680805 
L 153.9053 -158.14807 
L 153.109854 -157.809633 
L 152.314408 -157.51661 
L 151.518963 -157.143505 
L 150.723517 -156.896988 
L 149.928071 -156.478379 
L 149.132625 -156.336456 
L 148.337179 -156.025115 
L 147.541733 -155.820961 
L 146.746287 -155.524019 
L 145.950841 -155.335651 
L 145.155396 -155.12811 
L 144.35995 -155.038137 
L 143.564504 -154.966011 
L 142.769058 -154.893723 
L 141.973612 -154.889394 
L 141.178166 -154.910446 
L 140.38272 -155.092884 
L 139.587274 -155.119297 
L 138.791829 -155.233537 
L 137.996383 -155.314667 
L 137.200937 -155.636382 
L 136.405491 -155.732275 
L 135.610045 -155.992558 
L 134.814599 -156.153762 
L 134.019153 -156.434163 
L 133.223707 -156.499869 
L 132.428262 -156.501177 
L 131.632816 -156.759255 
L 130.83737 -156.767739 
L 130.041924 -157.095909 
L 129.246478 -157.208711 
L 128.451032 -157.308327 
L 127.655586 -157.418593 
L 126.860141 -157.46021 
L 126.064695 -157.709977 
L 125.269249 -157.759464 
L 124.473803 -157.701121 
L 123.678357 -157.835137 
L 122.882911 -157.821108 
L 122.087465 -157.776287 
L 121.292019 -157.853393 
L 120.496574 -158.026075 
L 119.701128 -157.747609 
L 118.905682 -158.213375 
z
" id="m025959f033" style="stroke:#4682b4;stroke-opacity:0.2;stroke-width:1.5;"/>
    </defs>
    <g clip-path="url(#pacf7093c79)">
     <use style="fill:#4682b4;fill-opacity:0.2;stroke:#4682b4;stroke-opacity:0.2;stroke-width:1.5;" x="0" xlink:href="#m025959f033" y="432"/>
    </g>
   </g>
   <g id="patch_3">
    <path clip-path="url(#pacf7093c79)" d="M 250.154251 363.06 
L 250.154251 22.814277 
L 294.699219 22.814277 
L 294.699219 363.06 
z
" style="fill:#ff0000;opacity:0.3;stroke:#ff0000;stroke-linejoin:miter;stroke-width:1.5;"/>
   </g>
   <g id="matplotlib.axis_1">
    <g id="xtick_1">
     <g id="line2d_1">
      <defs>
       <path d="M 0 0 
L 0 9 
" id="m1bbfe70d71" style="stroke:#000000;stroke-width:1.875;"/>
      </defs>
      <g>
       <use style="stroke:#000000;stroke-width:1.875;" x="118.905682" xlink:href="#m1bbfe70d71" y="363.06"/>
      </g>
     </g>
     <g id="text_1">
      <!-- 1 -->
      <defs>
       <path d="M 10.59375 35.5 
L 73.1875 35.5 
L 73.1875 27.203125 
L 10.59375 27.203125 
z
" id="DejaVuSans-8722"/>
       <path d="M 12.40625 8.296875 
L 28.515625 8.296875 
L 28.515625 63.921875 
L 10.984375 60.40625 
L 10.984375 69.390625 
L 28.421875 72.90625 
L 38.28125 72.90625 
L 38.28125 8.296875 
L 54.390625 8.296875 
L 54.390625 0 
L 12.40625 0 
z
" id="DejaVuSans-49"/>
      </defs>
      <g transform="translate(106.743377 388.097422)scale(0.165 -0.165)">
       <use xlink:href="#DejaVuSans-8722"/>
       <use x="83.789062" xlink:href="#DejaVuSans-49"/>
      </g>
     </g>
    </g>
    <g id="xtick_2">
     <g id="line2d_2">
      <g>
       <use style="stroke:#000000;stroke-width:1.875;" x="178.564122" xlink:href="#m1bbfe70d71" y="363.06"/>
      </g>
     </g>
     <g id="text_2">
      <!-- 0 -->
      <defs>
       <path d="M 31.78125 66.40625 
Q 24.171875 66.40625 20.328125 58.90625 
Q 16.5 51.421875 16.5 36.375 
Q 16.5 21.390625 20.328125 13.890625 
Q 24.171875 6.390625 31.78125 6.390625 
Q 39.453125 6.390625 43.28125 13.890625 
Q 47.125 21.390625 47.125 36.375 
Q 47.125 51.421875 43.28125 58.90625 
Q 39.453125 66.40625 31.78125 66.40625 
z
M 31.78125 74.21875 
Q 44.046875 74.21875 50.515625 64.515625 
Q 56.984375 54.828125 56.984375 36.375 
Q 56.984375 17.96875 50.515625 8.265625 
Q 44.046875 -1.421875 31.78125 -1.421875 
Q 19.53125 -1.421875 13.0625 8.265625 
Q 6.59375 17.96875 6.59375 36.375 
Q 6.59375 54.828125 13.0625 64.515625 
Q 19.53125 74.21875 31.78125 74.21875 
z
" id="DejaVuSans-48"/>
      </defs>
      <g transform="translate(173.31506 388.097422)scale(0.165 -0.165)">
       <use xlink:href="#DejaVuSans-48"/>
      </g>
     </g>
    </g>
    <g id="xtick_3">
     <g id="line2d_3">
      <g>
       <use style="stroke:#000000;stroke-width:1.875;" x="238.222562" xlink:href="#m1bbfe70d71" y="363.06"/>
      </g>
     </g>
     <g id="text_3">
      <!-- 1 -->
      <g transform="translate(232.9735 388.097422)scale(0.165 -0.165)">
       <use xlink:href="#DejaVuSans-49"/>
      </g>
     </g>
    </g>
    <g id="xtick_4">
     <g id="line2d_4">
      <g>
       <use style="stroke:#000000;stroke-width:1.875;" x="297.881003" xlink:href="#m1bbfe70d71" y="363.06"/>
      </g>
     </g>
     <g id="text_4">
      <!-- 2 -->
      <defs>
       <path d="M 19.1875 8.296875 
L 53.609375 8.296875 
L 53.609375 0 
L 7.328125 0 
L 7.328125 8.296875 
Q 12.9375 14.109375 22.625 23.890625 
Q 32.328125 33.6875 34.8125 36.53125 
Q 39.546875 41.84375 41.421875 45.53125 
Q 43.3125 49.21875 43.3125 52.78125 
Q 43.3125 58.59375 39.234375 62.25 
Q 35.15625 65.921875 28.609375 65.921875 
Q 23.96875 65.921875 18.8125 64.3125 
Q 13.671875 62.703125 7.8125 59.421875 
L 7.8125 69.390625 
Q 13.765625 71.78125 18.9375 73 
Q 24.125 74.21875 28.421875 74.21875 
Q 39.75 74.21875 46.484375 68.546875 
Q 53.21875 62.890625 53.21875 53.421875 
Q 53.21875 48.921875 51.53125 44.890625 
Q 49.859375 40.875 45.40625 35.40625 
Q 44.1875 33.984375 37.640625 27.21875 
Q 31.109375 20.453125 19.1875 8.296875 
z
" id="DejaVuSans-50"/>
      </defs>
      <g transform="translate(292.63194 388.097422)scale(0.165 -0.165)">
       <use xlink:href="#DejaVuSans-50"/>
      </g>
     </g>
    </g>
    <g id="xtick_5">
     <g id="line2d_5">
      <g>
       <use style="stroke:#000000;stroke-width:1.875;" x="357.539443" xlink:href="#m1bbfe70d71" y="363.06"/>
      </g>
     </g>
     <g id="text_5">
      <!-- 3 -->
      <defs>
       <path d="M 40.578125 39.3125 
Q 47.65625 37.796875 51.625 33 
Q 55.609375 28.21875 55.609375 21.1875 
Q 55.609375 10.40625 48.1875 4.484375 
Q 40.765625 -1.421875 27.09375 -1.421875 
Q 22.515625 -1.421875 17.65625 -0.515625 
Q 12.796875 0.390625 7.625 2.203125 
L 7.625 11.71875 
Q 11.71875 9.328125 16.59375 8.109375 
Q 21.484375 6.890625 26.8125 6.890625 
Q 36.078125 6.890625 40.9375 10.546875 
Q 45.796875 14.203125 45.796875 21.1875 
Q 45.796875 27.640625 41.28125 31.265625 
Q 36.765625 34.90625 28.71875 34.90625 
L 20.21875 34.90625 
L 20.21875 43.015625 
L 29.109375 43.015625 
Q 36.375 43.015625 40.234375 45.921875 
Q 44.09375 48.828125 44.09375 54.296875 
Q 44.09375 59.90625 40.109375 62.90625 
Q 36.140625 65.921875 28.71875 65.921875 
Q 24.65625 65.921875 20.015625 65.03125 
Q 15.375 64.15625 9.8125 62.3125 
L 9.8125 71.09375 
Q 15.4375 72.65625 20.34375 73.4375 
Q 25.25 74.21875 29.59375 74.21875 
Q 40.828125 74.21875 47.359375 69.109375 
Q 53.90625 64.015625 53.90625 55.328125 
Q 53.90625 49.265625 50.4375 45.09375 
Q 46.96875 40.921875 40.578125 39.3125 
z
" id="DejaVuSans-51"/>
      </defs>
      <g transform="translate(352.290381 388.097422)scale(0.165 -0.165)">
       <use xlink:href="#DejaVuSans-51"/>
      </g>
     </g>
    </g>
    <g id="xtick_6">
     <g id="line2d_6">
      <g>
       <use style="stroke:#000000;stroke-width:1.875;" x="417.197883" xlink:href="#m1bbfe70d71" y="363.06"/>
      </g>
     </g>
     <g id="text_6">
      <!-- 4 -->
      <defs>
       <path d="M 37.796875 64.3125 
L 12.890625 25.390625 
L 37.796875 25.390625 
z
M 35.203125 72.90625 
L 47.609375 72.90625 
L 47.609375 25.390625 
L 58.015625 25.390625 
L 58.015625 17.1875 
L 47.609375 17.1875 
L 47.609375 0 
L 37.796875 0 
L 37.796875 17.1875 
L 4.890625 17.1875 
L 4.890625 26.703125 
z
" id="DejaVuSans-52"/>
      </defs>
      <g transform="translate(411.948821 388.097422)scale(0.165 -0.165)">
       <use xlink:href="#DejaVuSans-52"/>
      </g>
     </g>
    </g>
    <g id="xtick_7">
     <g id="line2d_7">
      <g>
       <use style="stroke:#000000;stroke-width:1.875;" x="476.856324" xlink:href="#m1bbfe70d71" y="363.06"/>
      </g>
     </g>
     <g id="text_7">
      <!-- 5 -->
      <defs>
       <path d="M 10.796875 72.90625 
L 49.515625 72.90625 
L 49.515625 64.59375 
L 19.828125 64.59375 
L 19.828125 46.734375 
Q 21.96875 47.46875 24.109375 47.828125 
Q 26.265625 48.1875 28.421875 48.1875 
Q 40.625 48.1875 47.75 41.5 
Q 54.890625 34.8125 54.890625 23.390625 
Q 54.890625 11.625 47.5625 5.09375 
Q 40.234375 -1.421875 26.90625 -1.421875 
Q 22.3125 -1.421875 17.546875 -0.640625 
Q 12.796875 0.140625 7.71875 1.703125 
L 7.71875 11.625 
Q 12.109375 9.234375 16.796875 8.0625 
Q 21.484375 6.890625 26.703125 6.890625 
Q 35.15625 6.890625 40.078125 11.328125 
Q 45.015625 15.765625 45.015625 23.390625 
Q 45.015625 31 40.078125 35.4375 
Q 35.15625 39.890625 26.703125 39.890625 
Q 22.75 39.890625 18.8125 39.015625 
Q 14.890625 38.140625 10.796875 36.28125 
z
" id="DejaVuSans-53"/>
      </defs>
      <g transform="translate(471.607261 388.097422)scale(0.165 -0.165)">
       <use xlink:href="#DejaVuSans-53"/>
      </g>
     </g>
    </g>
    <g id="xtick_8">
     <g id="line2d_8">
      <g>
       <use style="stroke:#000000;stroke-width:1.875;" x="536.514764" xlink:href="#m1bbfe70d71" y="363.06"/>
      </g>
     </g>
     <g id="text_8">
      <!-- 6 -->
      <defs>
       <path d="M 33.015625 40.375 
Q 26.375 40.375 22.484375 35.828125 
Q 18.609375 31.296875 18.609375 23.390625 
Q 18.609375 15.53125 22.484375 10.953125 
Q 26.375 6.390625 33.015625 6.390625 
Q 39.65625 6.390625 43.53125 10.953125 
Q 47.40625 15.53125 47.40625 23.390625 
Q 47.40625 31.296875 43.53125 35.828125 
Q 39.65625 40.375 33.015625 40.375 
z
M 52.59375 71.296875 
L 52.59375 62.3125 
Q 48.875 64.0625 45.09375 64.984375 
Q 41.3125 65.921875 37.59375 65.921875 
Q 27.828125 65.921875 22.671875 59.328125 
Q 17.53125 52.734375 16.796875 39.40625 
Q 19.671875 43.65625 24.015625 45.921875 
Q 28.375 48.1875 33.59375 48.1875 
Q 44.578125 48.1875 50.953125 41.515625 
Q 57.328125 34.859375 57.328125 23.390625 
Q 57.328125 12.15625 50.6875 5.359375 
Q 44.046875 -1.421875 33.015625 -1.421875 
Q 20.359375 -1.421875 13.671875 8.265625 
Q 6.984375 17.96875 6.984375 36.375 
Q 6.984375 53.65625 15.1875 63.9375 
Q 23.390625 74.21875 37.203125 74.21875 
Q 40.921875 74.21875 44.703125 73.484375 
Q 48.484375 72.75 52.59375 71.296875 
z
" id="DejaVuSans-54"/>
      </defs>
      <g transform="translate(531.265702 388.097422)scale(0.165 -0.165)">
       <use xlink:href="#DejaVuSans-54"/>
      </g>
     </g>
    </g>
    <g id="text_9">
     <!-- Time (s) -->
     <defs>
      <path d="M -0.296875 72.90625 
L 61.375 72.90625 
L 61.375 64.59375 
L 35.5 64.59375 
L 35.5 0 
L 25.59375 0 
L 25.59375 64.59375 
L -0.296875 64.59375 
z
" id="DejaVuSans-84"/>
      <path d="M 9.421875 54.6875 
L 18.40625 54.6875 
L 18.40625 0 
L 9.421875 0 
z
M 9.421875 75.984375 
L 18.40625 75.984375 
L 18.40625 64.59375 
L 9.421875 64.59375 
z
" id="DejaVuSans-105"/>
      <path d="M 52 44.1875 
Q 55.375 50.25 60.0625 53.125 
Q 64.75 56 71.09375 56 
Q 79.640625 56 84.28125 50.015625 
Q 88.921875 44.046875 88.921875 33.015625 
L 88.921875 0 
L 79.890625 0 
L 79.890625 32.71875 
Q 79.890625 40.578125 77.09375 44.375 
Q 74.3125 48.1875 68.609375 48.1875 
Q 61.625 48.1875 57.5625 43.546875 
Q 53.515625 38.921875 53.515625 30.90625 
L 53.515625 0 
L 44.484375 0 
L 44.484375 32.71875 
Q 44.484375 40.625 41.703125 44.40625 
Q 38.921875 48.1875 33.109375 48.1875 
Q 26.21875 48.1875 22.15625 43.53125 
Q 18.109375 38.875 18.109375 30.90625 
L 18.109375 0 
L 9.078125 0 
L 9.078125 54.6875 
L 18.109375 54.6875 
L 18.109375 46.1875 
Q 21.1875 51.21875 25.484375 53.609375 
Q 29.78125 56 35.6875 56 
Q 41.65625 56 45.828125 52.96875 
Q 50 49.953125 52 44.1875 
z
" id="DejaVuSans-109"/>
      <path d="M 56.203125 29.59375 
L 56.203125 25.203125 
L 14.890625 25.203125 
Q 15.484375 15.921875 20.484375 11.0625 
Q 25.484375 6.203125 34.421875 6.203125 
Q 39.59375 6.203125 44.453125 7.46875 
Q 49.3125 8.734375 54.109375 11.28125 
L 54.109375 2.78125 
Q 49.265625 0.734375 44.1875 -0.34375 
Q 39.109375 -1.421875 33.890625 -1.421875 
Q 20.796875 -1.421875 13.15625 6.1875 
Q 5.515625 13.8125 5.515625 26.8125 
Q 5.515625 40.234375 12.765625 48.109375 
Q 20.015625 56 32.328125 56 
Q 43.359375 56 49.78125 48.890625 
Q 56.203125 41.796875 56.203125 29.59375 
z
M 47.21875 32.234375 
Q 47.125 39.59375 43.09375 43.984375 
Q 39.0625 48.390625 32.421875 48.390625 
Q 24.90625 48.390625 20.390625 44.140625 
Q 15.875 39.890625 15.1875 32.171875 
z
" id="DejaVuSans-101"/>
      <path id="DejaVuSans-32"/>
      <path d="M 31 75.875 
Q 24.46875 64.65625 21.28125 53.65625 
Q 18.109375 42.671875 18.109375 31.390625 
Q 18.109375 20.125 21.3125 9.0625 
Q 24.515625 -2 31 -13.1875 
L 23.1875 -13.1875 
Q 15.875 -1.703125 12.234375 9.375 
Q 8.59375 20.453125 8.59375 31.390625 
Q 8.59375 42.28125 12.203125 53.3125 
Q 15.828125 64.359375 23.1875 75.875 
z
" id="DejaVuSans-40"/>
      <path d="M 44.28125 53.078125 
L 44.28125 44.578125 
Q 40.484375 46.53125 36.375 47.5 
Q 32.28125 48.484375 27.875 48.484375 
Q 21.1875 48.484375 17.84375 46.4375 
Q 14.5 44.390625 14.5 40.28125 
Q 14.5 37.15625 16.890625 35.375 
Q 19.28125 33.59375 26.515625 31.984375 
L 29.59375 31.296875 
Q 39.15625 29.25 43.1875 25.515625 
Q 47.21875 21.78125 47.21875 15.09375 
Q 47.21875 7.46875 41.1875 3.015625 
Q 35.15625 -1.421875 24.609375 -1.421875 
Q 20.21875 -1.421875 15.453125 -0.5625 
Q 10.6875 0.296875 5.421875 2 
L 5.421875 11.28125 
Q 10.40625 8.6875 15.234375 7.390625 
Q 20.0625 6.109375 24.8125 6.109375 
Q 31.15625 6.109375 34.5625 8.28125 
Q 37.984375 10.453125 37.984375 14.40625 
Q 37.984375 18.0625 35.515625 20.015625 
Q 33.0625 21.96875 24.703125 23.78125 
L 21.578125 24.515625 
Q 13.234375 26.265625 9.515625 29.90625 
Q 5.8125 33.546875 5.8125 39.890625 
Q 5.8125 47.609375 11.28125 51.796875 
Q 16.75 56 26.8125 56 
Q 31.78125 56 36.171875 55.265625 
Q 40.578125 54.546875 44.28125 53.078125 
z
" id="DejaVuSans-115"/>
      <path d="M 8.015625 75.875 
L 15.828125 75.875 
Q 23.140625 64.359375 26.78125 53.3125 
Q 30.421875 42.28125 30.421875 31.390625 
Q 30.421875 20.453125 26.78125 9.375 
Q 23.140625 -1.703125 15.828125 -13.1875 
L 8.015625 -13.1875 
Q 14.5 -2 17.703125 9.0625 
Q 20.90625 20.125 20.90625 31.390625 
Q 20.90625 42.671875 17.703125 53.65625 
Q 14.5 64.65625 8.015625 75.875 
z
" id="DejaVuSans-41"/>
     </defs>
     <g transform="translate(290.443438 409.206094)scale(0.18 -0.18)">
      <use xlink:href="#DejaVuSans-84"/>
      <use x="61.037109" xlink:href="#DejaVuSans-105"/>
      <use x="88.820312" xlink:href="#DejaVuSans-109"/>
      <use x="186.232422" xlink:href="#DejaVuSans-101"/>
      <use x="247.755859" xlink:href="#DejaVuSans-32"/>
      <use x="279.542969" xlink:href="#DejaVuSans-40"/>
      <use x="318.556641" xlink:href="#DejaVuSans-115"/>
      <use x="370.65625" xlink:href="#DejaVuSans-41"/>
     </g>
    </g>
   </g>
   <g id="matplotlib.axis_2">
    <g id="ytick_1">
     <g id="line2d_9">
      <defs>
       <path d="M 0 0 
L -9 0 
" id="m676e61abab" style="stroke:#000000;stroke-width:1.875;"/>
      </defs>
      <g>
       <use style="stroke:#000000;stroke-width:1.875;" x="98.065" xlink:href="#m676e61abab" y="325.023621"/>
      </g>
     </g>
     <g id="text_10">
      <!-- 0.2 -->
      <defs>
       <path d="M 10.6875 12.40625 
L 21 12.40625 
L 21 0 
L 10.6875 0 
z
" id="DejaVuSans-46"/>
      </defs>
      <g transform="translate(45.498359 331.292332)scale(0.165 -0.165)">
       <use xlink:href="#DejaVuSans-8722"/>
       <use x="83.789062" xlink:href="#DejaVuSans-48"/>
       <use x="147.412109" xlink:href="#DejaVuSans-46"/>
       <use x="179.199219" xlink:href="#DejaVuSans-50"/>
      </g>
     </g>
    </g>
    <g id="ytick_2">
     <g id="line2d_10">
      <g>
       <use style="stroke:#000000;stroke-width:1.875;" x="98.065" xlink:href="#m676e61abab" y="275.111917"/>
      </g>
     </g>
     <g id="text_11">
      <!-- 0.0 -->
      <g transform="translate(59.324844 281.380628)scale(0.165 -0.165)">
       <use xlink:href="#DejaVuSans-48"/>
       <use x="63.623047" xlink:href="#DejaVuSans-46"/>
       <use x="95.410156" xlink:href="#DejaVuSans-48"/>
      </g>
     </g>
    </g>
    <g id="ytick_3">
     <g id="line2d_11">
      <g>
       <use style="stroke:#000000;stroke-width:1.875;" x="98.065" xlink:href="#m676e61abab" y="225.200213"/>
      </g>
     </g>
     <g id="text_12">
      <!-- 0.2 -->
      <g transform="translate(59.324844 231.468924)scale(0.165 -0.165)">
       <use xlink:href="#DejaVuSans-48"/>
       <use x="63.623047" xlink:href="#DejaVuSans-46"/>
       <use x="95.410156" xlink:href="#DejaVuSans-50"/>
      </g>
     </g>
    </g>
    <g id="ytick_4">
     <g id="line2d_12">
      <g>
       <use style="stroke:#000000;stroke-width:1.875;" x="98.065" xlink:href="#m676e61abab" y="175.288508"/>
      </g>
     </g>
     <g id="text_13">
      <!-- 0.4 -->
      <g transform="translate(59.324844 181.557219)scale(0.165 -0.165)">
       <use xlink:href="#DejaVuSans-48"/>
       <use x="63.623047" xlink:href="#DejaVuSans-46"/>
       <use x="95.410156" xlink:href="#DejaVuSans-52"/>
      </g>
     </g>
    </g>
    <g id="ytick_5">
     <g id="line2d_13">
      <g>
       <use style="stroke:#000000;stroke-width:1.875;" x="98.065" xlink:href="#m676e61abab" y="125.376804"/>
      </g>
     </g>
     <g id="text_14">
      <!-- 0.6 -->
      <g transform="translate(59.324844 131.645515)scale(0.165 -0.165)">
       <use xlink:href="#DejaVuSans-48"/>
       <use x="63.623047" xlink:href="#DejaVuSans-46"/>
       <use x="95.410156" xlink:href="#DejaVuSans-54"/>
      </g>
     </g>
    </g>
    <g id="ytick_6">
     <g id="line2d_14">
      <g>
       <use style="stroke:#000000;stroke-width:1.875;" x="98.065" xlink:href="#m676e61abab" y="75.4651"/>
      </g>
     </g>
     <g id="text_15">
      <!-- 0.8 -->
      <defs>
       <path d="M 31.78125 34.625 
Q 24.75 34.625 20.71875 30.859375 
Q 16.703125 27.09375 16.703125 20.515625 
Q 16.703125 13.921875 20.71875 10.15625 
Q 24.75 6.390625 31.78125 6.390625 
Q 38.8125 6.390625 42.859375 10.171875 
Q 46.921875 13.96875 46.921875 20.515625 
Q 46.921875 27.09375 42.890625 30.859375 
Q 38.875 34.625 31.78125 34.625 
z
M 21.921875 38.8125 
Q 15.578125 40.375 12.03125 44.71875 
Q 8.5 49.078125 8.5 55.328125 
Q 8.5 64.0625 14.71875 69.140625 
Q 20.953125 74.21875 31.78125 74.21875 
Q 42.671875 74.21875 48.875 69.140625 
Q 55.078125 64.0625 55.078125 55.328125 
Q 55.078125 49.078125 51.53125 44.71875 
Q 48 40.375 41.703125 38.8125 
Q 48.828125 37.15625 52.796875 32.3125 
Q 56.78125 27.484375 56.78125 20.515625 
Q 56.78125 9.90625 50.3125 4.234375 
Q 43.84375 -1.421875 31.78125 -1.421875 
Q 19.734375 -1.421875 13.25 4.234375 
Q 6.78125 9.90625 6.78125 20.515625 
Q 6.78125 27.484375 10.78125 32.3125 
Q 14.796875 37.15625 21.921875 38.8125 
z
M 18.3125 54.390625 
Q 18.3125 48.734375 21.84375 45.5625 
Q 25.390625 42.390625 31.78125 42.390625 
Q 38.140625 42.390625 41.71875 45.5625 
Q 45.3125 48.734375 45.3125 54.390625 
Q 45.3125 60.0625 41.71875 63.234375 
Q 38.140625 66.40625 31.78125 66.40625 
Q 25.390625 66.40625 21.84375 63.234375 
Q 18.3125 60.0625 18.3125 54.390625 
z
" id="DejaVuSans-56"/>
      </defs>
      <g transform="translate(59.324844 81.733811)scale(0.165 -0.165)">
       <use xlink:href="#DejaVuSans-48"/>
       <use x="63.623047" xlink:href="#DejaVuSans-46"/>
       <use x="95.410156" xlink:href="#DejaVuSans-56"/>
      </g>
     </g>
    </g>
    <g id="ytick_7">
     <g id="line2d_15">
      <g>
       <use style="stroke:#000000;stroke-width:1.875;" x="98.065" xlink:href="#m676e61abab" y="25.553396"/>
      </g>
     </g>
     <g id="text_16">
      <!-- 1.0 -->
      <g transform="translate(59.324844 31.822107)scale(0.165 -0.165)">
       <use xlink:href="#DejaVuSans-49"/>
       <use x="63.623047" xlink:href="#DejaVuSans-46"/>
       <use x="95.410156" xlink:href="#DejaVuSans-48"/>
      </g>
     </g>
    </g>
    <g id="text_17">
     <!-- Mean $\beta$ -->
     <defs>
      <path d="M 9.8125 72.90625 
L 24.515625 72.90625 
L 43.109375 23.296875 
L 61.8125 72.90625 
L 76.515625 72.90625 
L 76.515625 0 
L 66.890625 0 
L 66.890625 64.015625 
L 48.09375 14.015625 
L 38.1875 14.015625 
L 19.390625 64.015625 
L 19.390625 0 
L 9.8125 0 
z
" id="DejaVuSans-77"/>
      <path d="M 34.28125 27.484375 
Q 23.390625 27.484375 19.1875 25 
Q 14.984375 22.515625 14.984375 16.5 
Q 14.984375 11.71875 18.140625 8.90625 
Q 21.296875 6.109375 26.703125 6.109375 
Q 34.1875 6.109375 38.703125 11.40625 
Q 43.21875 16.703125 43.21875 25.484375 
L 43.21875 27.484375 
z
M 52.203125 31.203125 
L 52.203125 0 
L 43.21875 0 
L 43.21875 8.296875 
Q 40.140625 3.328125 35.546875 0.953125 
Q 30.953125 -1.421875 24.3125 -1.421875 
Q 15.921875 -1.421875 10.953125 3.296875 
Q 6 8.015625 6 15.921875 
Q 6 25.140625 12.171875 29.828125 
Q 18.359375 34.515625 30.609375 34.515625 
L 43.21875 34.515625 
L 43.21875 35.40625 
Q 43.21875 41.609375 39.140625 45 
Q 35.0625 48.390625 27.6875 48.390625 
Q 23 48.390625 18.546875 47.265625 
Q 14.109375 46.140625 10.015625 43.890625 
L 10.015625 52.203125 
Q 14.9375 54.109375 19.578125 55.046875 
Q 24.21875 56 28.609375 56 
Q 40.484375 56 46.34375 49.84375 
Q 52.203125 43.703125 52.203125 31.203125 
z
" id="DejaVuSans-97"/>
      <path d="M 54.890625 33.015625 
L 54.890625 0 
L 45.90625 0 
L 45.90625 32.71875 
Q 45.90625 40.484375 42.875 44.328125 
Q 39.84375 48.1875 33.796875 48.1875 
Q 26.515625 48.1875 22.3125 43.546875 
Q 18.109375 38.921875 18.109375 30.90625 
L 18.109375 0 
L 9.078125 0 
L 9.078125 54.6875 
L 18.109375 54.6875 
L 18.109375 46.1875 
Q 21.34375 51.125 25.703125 53.5625 
Q 30.078125 56 35.796875 56 
Q 45.21875 56 50.046875 50.171875 
Q 54.890625 44.34375 54.890625 33.015625 
z
" id="DejaVuSans-110"/>
      <path d="M 13.625 3.375 
L 8.9375 -20.796875 
L -0.09375 -20.796875 
L 14.5 54.34375 
Q 18.84375 76.609375 39.65625 76.609375 
Q 60.75 76.609375 57.171875 57.8125 
Q 54.734375 44.4375 45.21875 39.546875 
Q 58.015625 35.15625 55.515625 22.125 
Q 51.125 -1.078125 27.484375 -1.03125 
Q 17.140625 -0.984375 13.625 3.375 
z
M 15.921875 15.09375 
Q 19.671875 6.59375 29.296875 6.640625 
Q 43.359375 6.640625 46.34375 21.96875 
Q 49.03125 35.75 26.171875 34.671875 
L 27.78125 42.96875 
Q 45.453125 42.671875 48.53125 58.59375 
Q 50.640625 69.34375 39.203125 69.28125 
Q 26.421875 69.28125 23.484375 54.046875 
z
" id="DejaVuSans-Oblique-946"/>
     </defs>
     <g transform="translate(37.718359 226.147138)rotate(-90)scale(0.18 -0.18)">
      <use transform="translate(0 0.390625)" xlink:href="#DejaVuSans-77"/>
      <use transform="translate(86.279297 0.390625)" xlink:href="#DejaVuSans-101"/>
      <use transform="translate(147.802734 0.390625)" xlink:href="#DejaVuSans-97"/>
      <use transform="translate(209.082031 0.390625)" xlink:href="#DejaVuSans-110"/>
      <use transform="translate(272.460938 0.390625)" xlink:href="#DejaVuSans-32"/>
      <use transform="translate(304.248047 0.390625)" xlink:href="#DejaVuSans-Oblique-946"/>
     </g>
    </g>
   </g>
   <g id="line2d_16">
    <path clip-path="url(#pacf7093c79)" d="M 118.905682 277.590963 
L 121.292019 275.398701 
L 122.882911 274.155358 
L 124.473803 273.129627 
L 126.064695 272.327626 
L 127.655586 271.738382 
L 129.246478 271.346937 
L 130.83737 271.144213 
L 132.428262 271.129374 
L 134.019153 271.303224 
L 135.610045 271.655345 
L 137.996383 272.435128 
L 141.178166 273.557715 
L 142.769058 273.951831 
L 144.35995 274.13826 
L 145.950841 274.089724 
L 147.541733 273.824147 
L 149.928071 273.155879 
L 153.109854 272.251329 
L 154.700746 272.010002 
L 156.291638 272.00901 
L 157.882529 272.290192 
L 159.473421 272.865316 
L 161.064313 273.717666 
L 162.655205 274.8074 
L 165.041542 276.761336 
L 171.405109 282.285886 
L 173.791447 283.965723 
L 176.177785 285.338026 
L 179.359568 286.849089 
L 191.291256 292.053837 
L 193.677594 292.839189 
L 196.063931 293.404198 
L 198.450269 293.713965 
L 200.836607 293.78437 
L 204.01839 293.614037 
L 213.56374 292.837302 
L 215.950078 292.98316 
L 217.54097 293.267556 
L 219.131862 293.739036 
L 220.722753 294.420509 
L 222.313645 295.319853 
L 223.904537 296.424389 
L 226.290874 298.379381 
L 231.06355 302.493512 
L 233.449887 304.155466 
L 235.040779 305.027283 
L 237.427117 306.035075 
L 242.199792 307.829305 
L 243.790684 308.6436 
L 245.381575 309.64452 
L 247.767913 311.480764 
L 251.745142 315.020393 
L 254.926926 317.691649 
L 257.313263 319.373704 
L 259.699601 320.77532 
L 262.881384 322.359134 
L 267.65406 324.468483 
L 270.040397 325.345198 
L 272.426735 325.94209 
L 274.017627 326.118045 
L 275.608518 326.086486 
L 277.19941 325.844089 
L 278.790302 325.41109 
L 281.176639 324.505309 
L 285.153869 322.886496 
L 286.744761 322.410823 
L 288.335652 322.111445 
L 289.926544 322.003259 
L 292.312882 322.149206 
L 297.881003 322.764091 
L 299.471895 322.69525 
L 301.858232 322.319221 
L 305.835461 321.511891 
L 307.426353 321.379135 
L 309.017245 321.444138 
L 310.608137 321.709341 
L 312.994474 322.380072 
L 316.176258 323.343953 
L 317.76715 323.653515 
L 319.358041 323.756187 
L 320.948933 323.615638 
L 322.539825 323.221049 
L 324.130717 322.57907 
L 325.721608 321.701687 
L 327.3125 320.595518 
L 328.903392 319.25575 
L 330.494283 317.665813 
L 332.085175 315.80448 
L 333.676067 313.657081 
L 335.266959 311.227259 
L 337.653296 307.123778 
L 340.83508 301.117009 
L 357.539443 268.99209 
L 360.721227 263.419438 
L 369.471131 248.753016 
L 371.857469 243.909276 
L 374.243806 238.494222 
L 377.42559 230.595773 
L 393.334507 189.826917 
L 399.698074 174.016681 
L 403.675304 163.473613 
L 413.220654 137.562665 
L 416.402438 129.918916 
L 418.788775 124.703351 
L 421.970559 118.343943 
L 425.152342 112.479489 
L 429.129571 105.632881 
L 433.106801 99.256378 
L 436.288584 94.503597 
L 439.470368 90.110712 
L 442.652151 86.148268 
L 445.833935 82.621765 
L 449.015718 79.450898 
L 452.197502 76.567767 
L 455.379285 73.976771 
L 458.561069 71.712847 
L 460.947406 70.26219 
L 463.333744 69.078235 
L 464.924636 68.471692 
L 466.515527 68.033382 
L 468.106419 67.77501 
L 469.697311 67.699402 
L 471.288203 67.801094 
L 472.879094 68.068327 
L 475.265432 68.736098 
L 478.447215 69.947306 
L 482.424445 71.452502 
L 486.401674 72.610147 
L 488.788012 73.386635 
L 490.378904 74.102236 
L 491.969795 75.058067 
L 493.560687 76.29562 
L 495.151579 77.826282 
L 496.742471 79.636916 
L 499.128808 82.815481 
L 501.515146 86.454981 
L 503.901483 90.464144 
L 507.083267 96.25299 
L 511.060496 103.999893 
L 515.833171 113.856286 
L 522.992184 128.826767 
L 526.969414 136.567535 
L 531.742089 145.28923 
L 535.719318 152.158043 
L 535.719318 152.158043 
" style="fill:none;stroke:#b22222;stroke-linecap:square;stroke-width:2.25;"/>
   </g>
   <g id="line2d_17">
    <path clip-path="url(#pacf7093c79)" d="M 118.905682 281.341403 
L 122.882911 281.306956 
L 129.246478 281.254832 
L 133.223707 281.188133 
L 136.405491 280.89395 
L 140.38272 280.232739 
L 145.950841 279.016254 
L 152.314408 277.415414 
L 154.700746 276.560912 
L 156.291638 275.775719 
L 157.882529 274.75708 
L 159.473421 273.48434 
L 161.859759 271.159804 
L 167.42788 265.335998 
L 169.018772 264.022243 
L 170.609663 262.981034 
L 172.200555 262.216544 
L 173.791447 261.697992 
L 176.177785 261.256372 
L 179.359568 260.973009 
L 183.336797 260.78978 
L 185.723135 260.882229 
L 187.314027 261.105985 
L 188.904918 261.484018 
L 191.291256 262.327227 
L 194.47304 263.802028 
L 198.450269 265.692558 
L 200.836607 266.565871 
L 202.427498 266.952225 
L 204.01839 267.150816 
L 205.609282 267.156016 
L 207.200173 266.984429 
L 209.586511 266.479137 
L 219.927307 263.820988 
L 223.904537 263.135624 
L 227.08632 262.850981 
L 230.268104 262.853201 
L 235.040779 263.188526 
L 238.222562 263.337563 
L 240.6089 263.253541 
L 242.995238 262.929582 
L 245.381575 262.348776 
L 248.563359 261.252812 
L 256.517817 258.245572 
L 259.699601 257.344948 
L 262.085939 256.887614 
L 264.472276 256.670736 
L 266.858614 256.70071 
L 270.040397 257.01708 
L 274.813073 257.51997 
L 277.19941 257.542282 
L 279.585748 257.35264 
L 283.562977 256.737181 
L 286.744761 256.298778 
L 289.131098 256.166976 
L 291.517436 256.255154 
L 293.903773 256.569194 
L 296.290111 257.111805 
L 298.676449 257.896816 
L 301.062786 258.934906 
L 303.449124 260.204167 
L 307.426353 262.633462 
L 312.199028 265.528899 
L 315.380812 267.233594 
L 318.562595 268.69033 
L 320.948933 269.55638 
L 323.335271 270.148831 
L 324.926162 270.357488 
L 326.517054 270.401024 
L 328.107946 270.272594 
L 329.698838 269.968761 
L 331.289729 269.485144 
L 332.880621 268.814557 
L 334.471513 267.94649 
L 336.062405 266.870841 
L 337.653296 265.583012 
L 340.039634 263.26709 
L 342.425972 260.549188 
L 345.607755 256.476358 
L 357.539443 240.571948 
L 367.084794 228.878397 
L 370.266577 224.494315 
L 373.448361 219.759515 
L 377.42559 213.441188 
L 386.97094 198.10867 
L 392.539061 189.634307 
L 396.516291 183.945187 
L 402.084412 176.08836 
L 404.470749 172.274512 
L 406.857087 167.953057 
L 409.243425 163.132308 
L 417.993329 144.747158 
L 420.379667 140.41362 
L 423.56145 135.176105 
L 426.743234 130.478241 
L 429.129571 127.319986 
L 431.515909 124.497076 
L 433.902247 121.995529 
L 436.288584 119.764812 
L 439.470368 117.116559 
L 442.652151 114.810552 
L 445.038489 113.359125 
L 447.424827 112.217538 
L 449.015718 111.659726 
L 450.60661 111.283691 
L 452.197502 111.104852 
L 453.788393 111.13878 
L 455.379285 111.40128 
L 456.970177 111.90655 
L 458.561069 112.66416 
L 460.15196 113.673306 
L 461.742852 114.91798 
L 464.12919 117.144104 
L 470.492757 123.553709 
L 472.083649 124.84857 
L 473.67454 125.911864 
L 475.265432 126.732231 
L 476.856324 127.323632 
L 478.447215 127.718474 
L 480.833553 128.032389 
L 484.015337 128.12285 
L 487.992566 127.94852 
L 495.151579 127.493525 
L 497.537916 127.605741 
L 499.924254 127.994797 
L 502.310592 128.679443 
L 504.696929 129.619612 
L 507.878713 131.150329 
L 512.651388 133.760415 
L 516.628617 136.173913 
L 519.014955 137.856476 
L 521.401293 139.840784 
L 523.78763 142.183781 
L 526.173968 144.85393 
L 530.151197 149.719402 
L 535.719318 156.640928 
L 535.719318 156.640928 
" style="fill:none;stroke:#4682b4;stroke-linecap:square;stroke-width:2.25;"/>
   </g>
   <g id="line2d_18"/>
   <g id="line2d_19"/>
   <g id="line2d_20"/>
   <g id="line2d_21">
    <path clip-path="url(#pacf7093c79)" d="M 98.065 275.111917 
L 556.56 275.111917 
" style="fill:none;stroke:#808080;stroke-dasharray:8.325,3.6;stroke-dashoffset:0;stroke-width:2.25;"/>
   </g>
   <g id="line2d_22">
    <path clip-path="url(#pacf7093c79)" d="M 178.564122 363.06 
L 178.564122 22.814277 
" style="fill:none;stroke:#000000;stroke-dasharray:8.325,3.6;stroke-dashoffset:0;stroke-width:2.25;"/>
   </g>
   <g id="line2d_23">
    <path clip-path="url(#pacf7093c79)" d="M 98.065 275.111917 
L 556.56 275.111917 
" style="fill:none;stroke:#808080;stroke-dasharray:8.325,3.6;stroke-dashoffset:0;stroke-width:2.25;"/>
   </g>
   <g id="line2d_24">
    <path clip-path="url(#pacf7093c79)" d="M 178.564122 363.06 
L 178.564122 22.814277 
" style="fill:none;stroke:#000000;stroke-dasharray:8.325,3.6;stroke-dashoffset:0;stroke-width:2.25;"/>
   </g>
   <g id="patch_4">
    <path d="M 98.065 363.06 
L 98.065 22.814277 
" style="fill:none;stroke:#000000;stroke-linecap:square;stroke-linejoin:miter;stroke-width:1.875;"/>
   </g>
   <g id="patch_5">
    <path d="M 98.065 363.06 
L 556.56 363.06 
" style="fill:none;stroke:#000000;stroke-linecap:square;stroke-linejoin:miter;stroke-width:1.875;"/>
   </g>
   <g id="legend_1">
    <g id="patch_6">
     <path d="M 418.155938 354.81 
L 545.01 354.81 
Q 548.31 354.81 548.31 351.51 
L 548.31 280.503281 
Q 548.31 277.203281 545.01 277.203281 
L 418.155938 277.203281 
Q 414.855938 277.203281 414.855938 280.503281 
L 414.855938 351.51 
Q 414.855938 354.81 418.155938 354.81 
z
" style="fill:#ffffff;opacity:0.8;stroke:#cccccc;stroke-linejoin:miter;stroke-width:1.5;"/>
    </g>
    <g id="line2d_25">
     <path d="M 421.455938 290.565703 
L 454.455938 290.565703 
" style="fill:none;"/>
    </g>
    <g id="line2d_26"/>
    <g id="text_18">
     <!-- Valence -->
     <defs>
      <path d="M 28.609375 0 
L 0.78125 72.90625 
L 11.078125 72.90625 
L 34.1875 11.53125 
L 57.328125 72.90625 
L 67.578125 72.90625 
L 39.796875 0 
z
" id="DejaVuSans-86"/>
      <path d="M 9.421875 75.984375 
L 18.40625 75.984375 
L 18.40625 0 
L 9.421875 0 
z
" id="DejaVuSans-108"/>
      <path d="M 48.78125 52.59375 
L 48.78125 44.1875 
Q 44.96875 46.296875 41.140625 47.34375 
Q 37.3125 48.390625 33.40625 48.390625 
Q 24.65625 48.390625 19.8125 42.84375 
Q 14.984375 37.3125 14.984375 27.296875 
Q 14.984375 17.28125 19.8125 11.734375 
Q 24.65625 6.203125 33.40625 6.203125 
Q 37.3125 6.203125 41.140625 7.25 
Q 44.96875 8.296875 48.78125 10.40625 
L 48.78125 2.09375 
Q 45.015625 0.34375 40.984375 -0.53125 
Q 36.96875 -1.421875 32.421875 -1.421875 
Q 20.0625 -1.421875 12.78125 6.34375 
Q 5.515625 14.109375 5.515625 27.296875 
Q 5.515625 40.671875 12.859375 48.328125 
Q 20.21875 56 33.015625 56 
Q 37.15625 56 41.109375 55.140625 
Q 45.0625 54.296875 48.78125 52.59375 
z
" id="DejaVuSans-99"/>
     </defs>
     <g transform="translate(467.655938 296.340703)scale(0.165 -0.165)">
      <use xlink:href="#DejaVuSans-86"/>
      <use x="68.298828" xlink:href="#DejaVuSans-97"/>
      <use x="129.578125" xlink:href="#DejaVuSans-108"/>
      <use x="157.361328" xlink:href="#DejaVuSans-101"/>
      <use x="218.884766" xlink:href="#DejaVuSans-110"/>
      <use x="282.263672" xlink:href="#DejaVuSans-99"/>
      <use x="337.244141" xlink:href="#DejaVuSans-101"/>
     </g>
    </g>
    <g id="line2d_27">
     <path d="M 421.455938 314.784609 
L 454.455938 314.784609 
" style="fill:none;stroke:#b22222;stroke-linecap:square;stroke-width:2.25;"/>
    </g>
    <g id="line2d_28"/>
    <g id="text_19">
     <!-- Positive -->
     <defs>
      <path d="M 19.671875 64.796875 
L 19.671875 37.40625 
L 32.078125 37.40625 
Q 38.96875 37.40625 42.71875 40.96875 
Q 46.484375 44.53125 46.484375 51.125 
Q 46.484375 57.671875 42.71875 61.234375 
Q 38.96875 64.796875 32.078125 64.796875 
z
M 9.8125 72.90625 
L 32.078125 72.90625 
Q 44.34375 72.90625 50.609375 67.359375 
Q 56.890625 61.8125 56.890625 51.125 
Q 56.890625 40.328125 50.609375 34.8125 
Q 44.34375 29.296875 32.078125 29.296875 
L 19.671875 29.296875 
L 19.671875 0 
L 9.8125 0 
z
" id="DejaVuSans-80"/>
      <path d="M 30.609375 48.390625 
Q 23.390625 48.390625 19.1875 42.75 
Q 14.984375 37.109375 14.984375 27.296875 
Q 14.984375 17.484375 19.15625 11.84375 
Q 23.34375 6.203125 30.609375 6.203125 
Q 37.796875 6.203125 41.984375 11.859375 
Q 46.1875 17.53125 46.1875 27.296875 
Q 46.1875 37.015625 41.984375 42.703125 
Q 37.796875 48.390625 30.609375 48.390625 
z
M 30.609375 56 
Q 42.328125 56 49.015625 48.375 
Q 55.71875 40.765625 55.71875 27.296875 
Q 55.71875 13.875 49.015625 6.21875 
Q 42.328125 -1.421875 30.609375 -1.421875 
Q 18.84375 -1.421875 12.171875 6.21875 
Q 5.515625 13.875 5.515625 27.296875 
Q 5.515625 40.765625 12.171875 48.375 
Q 18.84375 56 30.609375 56 
z
" id="DejaVuSans-111"/>
      <path d="M 18.3125 70.21875 
L 18.3125 54.6875 
L 36.8125 54.6875 
L 36.8125 47.703125 
L 18.3125 47.703125 
L 18.3125 18.015625 
Q 18.3125 11.328125 20.140625 9.421875 
Q 21.96875 7.515625 27.59375 7.515625 
L 36.8125 7.515625 
L 36.8125 0 
L 27.59375 0 
Q 17.1875 0 13.234375 3.875 
Q 9.28125 7.765625 9.28125 18.015625 
L 9.28125 47.703125 
L 2.6875 47.703125 
L 2.6875 54.6875 
L 9.28125 54.6875 
L 9.28125 70.21875 
z
" id="DejaVuSans-116"/>
      <path d="M 2.984375 54.6875 
L 12.5 54.6875 
L 29.59375 8.796875 
L 46.6875 54.6875 
L 56.203125 54.6875 
L 35.6875 0 
L 23.484375 0 
z
" id="DejaVuSans-118"/>
     </defs>
     <g transform="translate(467.655938 320.559609)scale(0.165 -0.165)">
      <use xlink:href="#DejaVuSans-80"/>
      <use x="60.255859" xlink:href="#DejaVuSans-111"/>
      <use x="121.4375" xlink:href="#DejaVuSans-115"/>
      <use x="173.537109" xlink:href="#DejaVuSans-105"/>
      <use x="201.320312" xlink:href="#DejaVuSans-116"/>
      <use x="240.529297" xlink:href="#DejaVuSans-105"/>
      <use x="268.3125" xlink:href="#DejaVuSans-118"/>
      <use x="327.492188" xlink:href="#DejaVuSans-101"/>
     </g>
    </g>
    <g id="line2d_29">
     <path d="M 421.455938 339.003516 
L 454.455938 339.003516 
" style="fill:none;stroke:#4682b4;stroke-linecap:square;stroke-width:2.25;"/>
    </g>
    <g id="line2d_30"/>
    <g id="text_20">
     <!-- Negative -->
     <defs>
      <path d="M 9.8125 72.90625 
L 23.09375 72.90625 
L 55.421875 11.921875 
L 55.421875 72.90625 
L 64.984375 72.90625 
L 64.984375 0 
L 51.703125 0 
L 19.390625 60.984375 
L 19.390625 0 
L 9.8125 0 
z
" id="DejaVuSans-78"/>
      <path d="M 45.40625 27.984375 
Q 45.40625 37.75 41.375 43.109375 
Q 37.359375 48.484375 30.078125 48.484375 
Q 22.859375 48.484375 18.828125 43.109375 
Q 14.796875 37.75 14.796875 27.984375 
Q 14.796875 18.265625 18.828125 12.890625 
Q 22.859375 7.515625 30.078125 7.515625 
Q 37.359375 7.515625 41.375 12.890625 
Q 45.40625 18.265625 45.40625 27.984375 
z
M 54.390625 6.78125 
Q 54.390625 -7.171875 48.1875 -13.984375 
Q 42 -20.796875 29.203125 -20.796875 
Q 24.46875 -20.796875 20.265625 -20.09375 
Q 16.0625 -19.390625 12.109375 -17.921875 
L 12.109375 -9.1875 
Q 16.0625 -11.328125 19.921875 -12.34375 
Q 23.78125 -13.375 27.78125 -13.375 
Q 36.625 -13.375 41.015625 -8.765625 
Q 45.40625 -4.15625 45.40625 5.171875 
L 45.40625 9.625 
Q 42.625 4.78125 38.28125 2.390625 
Q 33.9375 0 27.875 0 
Q 17.828125 0 11.671875 7.65625 
Q 5.515625 15.328125 5.515625 27.984375 
Q 5.515625 40.671875 11.671875 48.328125 
Q 17.828125 56 27.875 56 
Q 33.9375 56 38.28125 53.609375 
Q 42.625 51.21875 45.40625 46.390625 
L 45.40625 54.6875 
L 54.390625 54.6875 
z
" id="DejaVuSans-103"/>
     </defs>
     <g transform="translate(467.655938 344.778516)scale(0.165 -0.165)">
      <use xlink:href="#DejaVuSans-78"/>
      <use x="74.804688" xlink:href="#DejaVuSans-101"/>
      <use x="136.328125" xlink:href="#DejaVuSans-103"/>
      <use x="199.804688" xlink:href="#DejaVuSans-97"/>
      <use x="261.083984" xlink:href="#DejaVuSans-116"/>
      <use x="300.292969" xlink:href="#DejaVuSans-105"/>
      <use x="328.076172" xlink:href="#DejaVuSans-118"/>
      <use x="387.255859" xlink:href="#DejaVuSans-101"/>
     </g>
    </g>
   </g>
  </g>
 </g>
 <defs>
  <clipPath id="pacf7093c79">
   <rect height="340.245723" width="458.495" x="98.065" y="22.814277"/>
  </clipPath>
 </defs>
</svg>
